<?xml version="1.0" encoding="UTF-8"?>
<svg id="Layer_1" data-name="Layer 1" xmlns="http://www.w3.org/2000/svg" viewBox="0 0 1291.61 809.69">
  <defs>
    <style>
      .cls-1 {
        fill: #293f33;
      }
    </style>
  </defs>
  <path class="cls-1" d="M1184.54,264.37c-54.77-39.64-120.38-48.93-186.01-35.92-11.66-118.87-145.77-172.35-244.43-112.04-8.71-4.53-12.88-15.35-19.29-21.26-25.58-23.61-56.86-37.48-89.01-41.66-32.16,4.18-63.43,18.05-89.01,41.66-6.4,5.91-10.57,16.73-19.29,21.26-98.66-60.31-232.77-6.83-244.43,112.04-65.64-13.01-131.25-3.71-186.01,35.92-113.4,82.05-68.4,238.77,70.49,248.26,26.39,1.81,53.65-2.6,80.03,1.14,36.81,50.1,87.34,91.21,146.48,112.26,15.25,5.43,49.65,9.75,58.91,14.65,3.91,2.06,14.52,19.21,19.05,24.08,25.14,27.08,49.13,47.83,79.95,67.78,0,0,101.74,53.22,167.66,0,30.82-19.95,54.81-40.7,79.95-67.78,4.53-4.87,15.14-22.01,19.05-24.08,9.26-4.9,43.66-9.22,58.91-14.65,59.14-21.05,109.67-62.16,146.48-112.26,26.38-3.74,53.64.66,80.03-1.14,138.9-9.49,183.9-166.21,70.49-248.26ZM295.61,449.11h106.54c.69,42.03,14.03,81.88,25.34,121.77-55.45-21.82-111.91-64.14-131.88-121.77ZM493.51,568.33c-17.17-38.14-27.99-77.22-30.47-119.22h93.84c-7.36,43.75-25.78,93.3-63.38,119.22ZM657.34,699.19c-1.88-.06-6.27-1.71-11.53-4.05-5.26,2.34-9.65,3.99-11.53,4.05-17.57.6-103.65-60.08-105.03-76.75,9.74-11.77,22.84-20.83,32.64-32.61,18.68-22.47,34.13-53.32,43.25-81.05,5.64-17.12,7.78-41.04,13.12-55.38,2.18-5.87,17.21-5.16,27.56-4.08,10.35-1.08,25.38-1.79,27.56,4.08,5.34,14.34,7.48,38.26,13.12,55.38,9.12,27.73,24.57,58.58,43.25,81.05,9.79,11.78,22.9,20.84,32.64,32.61-1.38,16.68-87.45,77.35-105.03,76.75ZM798.1,568.33c-37.6-25.92-56.01-75.47-63.38-119.22h93.84c-2.48,42-13.3,81.08-30.47,119.22ZM864.12,570.88c11.31-39.88,24.65-79.74,25.34-121.77h106.55c-19.97,57.62-76.43,99.95-131.88,121.77Z"/>
</svg>