<?xml version="1.0" encoding="utf-8"?>
<!-- Generator: Adobe Illustrator 27.5.0, SVG Export Plug-In . SVG Version: 6.00 Build 0)  -->
<svg version="1.1" xmlns="http://www.w3.org/2000/svg" xmlns:xlink="http://www.w3.org/1999/xlink" x="0px" y="0px"
	 viewBox="0 0 500 500" style="enable-background:new 0 0 500 500;" xml:space="preserve">
<g id="BACKGROUND">
	<rect style="fill:#61C15C;" width="500" height="500"/>
</g>
<g id="OBJECTS">
	<g>
		<defs>
			<rect id="SVGID_1_" width="500" height="500"/>
		</defs>
		<clipPath id="SVGID_00000181065012239561809630000000163755913000732046_">
			<use xlink:href="#SVGID_1_"  style="overflow:visible;"/>
		</clipPath>
		<g style="clip-path:url(#SVGID_00000181065012239561809630000000163755913000732046_);">
			<path style="fill:#E2C9A1;" d="M196.185,138.015c-0.192-0.04-0.378-0.118-0.524-0.27c-5.107-5.341-12.375-8.5-19.734-8.666
				c-0.093,0.027-0.187,0.057-0.281,0.057c-0.122,0-0.238-0.03-0.35-0.072c-0.482,0-0.964,0.012-1.446,0.039
				c-11.227,0.6-20.649,7.878-26.576,13.879c-4.928,4.985-7.111,9.252-6.872,13.425c0.248,4.331,3.05,7.852,6.016,11.578
				c0.969,1.218,1.971,2.478,2.864,3.757c1.818,2.602,3.275,5.461,4.684,8.226c1.91,3.749,3.714,7.29,6.358,10.309
				c4.033,4.605,9.989,7.775,16.77,8.925c5.851,0.992,12.273,0.523,19.091-1.382V138.015z M194.268,162.021
				c-0.526,0.515-1.119,0.866-1.693,1.205c-0.157,0.094-0.315,0.187-0.471,0.283c-3.283,2.046-5.391,5.867-5.367,9.736
				c0.022,3.868,2.175,7.665,5.484,9.672c0.473,0.287,0.623,0.902,0.337,1.374c-0.188,0.311-0.518,0.481-0.856,0.481
				c-0.177,0-0.355-0.047-0.518-0.145c-3.891-2.36-6.421-6.823-6.447-11.371c-0.014-2.273,0.598-4.531,1.694-6.522
				c-0.072-1.696,2.06-3.262,1.786-5.058c-0.104-0.682-0.548-1.259-1.001-1.78c-1.329-1.532-2.872-2.876-4.562-3.999
				c-3.142-2.088-6.601-3.21-10.306-3.761c-0.382-0.057-0.828-0.13-1.24-0.249c-1.404,2.989-2.136,6.282-2.07,9.6
				c0.094,4.751,1.786,9.405,4.766,13.107c0.346,0.431,0.278,1.06-0.152,1.406c-0.185,0.148-0.406,0.221-0.626,0.221
				c-0.293,0-0.582-0.128-0.78-0.373c-3.255-4.045-5.105-9.131-5.207-14.322c-0.021-1.08,0.042-2.157,0.17-3.225
				c-0.38-1.737,0.563-3.962-0.636-5.334c-0.6-0.687-1.57-0.912-2.48-0.974c-2.273-0.155-4.592,0.495-6.454,1.807
				c-0.792,0.559-1.475,1.23-2.06,1.977c-1.328,2.823-1.723,6.275-1.026,9.696c0.773,3.79,2.787,7.608,5.985,11.351
				c0.359,0.419,0.31,1.051-0.11,1.409c-0.417,0.357-1.051,0.31-1.409-0.11c-3.422-4.002-5.584-8.123-6.425-12.249
				c-1.016-4.98,0.026-10.069,2.788-13.615c2.694-3.459,7.083-5.662,12.04-6.044c4.042-0.311,8.458,0.553,13.141,2.564
				c3.106,1.334,6.07,3.047,8.81,5.091c1.385,1.033,2.721,2.16,3.972,3.349c0.144,0.136,0.29,0.267,0.432,0.394
				c0.695,0.621,1.483,1.325,1.506,2.361C195.297,160.67,194.965,161.339,194.268,162.021z"/>
			<path style="fill:#A38E5A;" d="M191.979,183.646c-0.658-0.229-1.417-0.304-2.095-0.561c-2.468-0.938-4.752-2.485-6.163-4.753
				c-1.377-2.213-2.243-4.671-2.583-7.247c-0.246-1.864-0.398-3.694-1.546-5.26c-0.988-1.348-2.495-2.302-3.965-3.046
				c-1.278-0.646-2.803-1.584-3.897-0.164c-1.536,1.994-0.935,4.895-0.315,7.111c0.469,1.678,0.958,3.166,1.922,4.61
				c-2.644-1.884-4.259-4.751-5.2-7.825c-0.61-1.991-0.478-4.247-1.195-6.179c-0.569-1.532-1.801-2.033-3.318-2.224
				c-1.457-0.184-3.018-0.1-4.188,0.891c-1.757,1.488-2.319,4.228-2.512,6.384c-0.227,2.538-0.071,5.067,0.771,7.485
				c0.37,1.063,1.326,2.193,1.53,3.274c-0.778-0.152-1.757-1.765-2.159-2.355c-1.885-2.76-2.889-6.138-3.585-9.37
				c-0.48-2.23-0.625-4.474-0.007-6.699c0.581-2.09,2.239-3.924,3.892-5.272c3.411-2.782,7.811-3.907,12.065-4.609
				c2.267-0.374,4.514-0.361,6.748,0.167c2.008,0.475,3.665,1.233,5.474,2.217c2.981,1.621,5.465,3.627,7.708,6.154
				c0.646,0.728,1.607,1.731,1.684,2.76c0.092,1.228-1.314,2.599-1.908,3.546c-1.823,2.909-2.856,6.513-3.019,9.936
				c-0.1,2.089,0.472,3.874,1.418,5.712c0.669,1.299,1.644,2.38,2.582,3.472C190.552,182.307,190.995,183.152,191.979,183.646z"/>
			<path style="fill:#E2C9A1;" d="M295.553,179.129c-0.881,2.44-1.853,4.704-2.899,6.812c2.824-0.385,6.522-1.61,8.273-3.29
				c1.827-1.735,2.669-3.834,3.055-5.22C300.684,177.708,297.707,178.449,295.553,179.129z"/>
			<path style="fill:#E2C9A1;" d="M330.609,199.647c-0.3,0.12-0.59,0.22-0.89,0.32c-1.68-1.36-3.73-2.45-6.06-3.17
				c-8.08-2.48-14.6,4.63-16.84,7.5c-2.26-2.81-8.99-9.87-19.52-9.9c0.64-0.79,1.27-1.62,1.87-2.51c0.84-1.2,1.63-2.5,2.39-3.87
				c0.07,0,0.16,0.01,0.22,0.01c0.23,0,0.44-0.01,0.63-0.03c2.64-0.28,7.45-1.55,9.9-3.9c1.57-1.49,2.53-3.22,3.11-4.69
				c0.82,1.84,2.06,4.04,3.78,5.61c1.63,1.49,4.46,1.81,6,1.86c0.82,0.04,1.71-0.21,2.76-0.76c0.64,1.38,1.32,2.67,2.04,3.86
				C322.969,194.937,326.549,198.207,330.609,199.647z"/>
			<path style="fill:#E2C9A1;" d="M342.364,227.795c-0.004-0.013-0.009-0.025-0.013-0.039c-1.854-5.923-5.757-12.671-7.997-16.283
				c-0.22,1.071-0.605,2.104-1.17,3.056c-0.283,0.476-0.898,0.632-1.37,0.351c-0.476-0.282-0.632-0.896-0.351-1.37
				c1.282-2.161,1.459-4.843,0.487-7.358c-1.313-3.4-4.549-6.111-8.875-7.439c-7.681-2.357-14.15,6.061-15.244,7.583v8.981
				c0,0.553-0.447,1-1,1c-0.553,0-1-0.447-1-1v-8.989c-1.287-1.841-9.752-12.922-24.503-9.115c-8.96,2.311-12.863,6.319-14.56,9.5
				c-0.007,0.015-0.016,0.028-0.023,0.043c-0.11,0.207-0.21,0.411-0.302,0.611c-1.396,3.042-1.401,6.541-0.014,9.359
				c0.243,0.495,0.04,1.095-0.456,1.339c-0.142,0.069-0.292,0.103-0.44,0.103c-0.369,0-0.724-0.205-0.898-0.559
				c-1.048-2.13-1.426-4.577-1.145-6.998c-3.82,3.054-12.022,11.582-13.774,29.497c-1.094,11.19,1.276,28.579,4.111,43.93
				c35.663,9.579,64.371,9.628,87.717,0.15c0.881-20.554,1.893-45.557,1.84-50.838C343.369,231.664,342.982,229.776,342.364,227.795
				z M282.563,233.876c-0.098,0.098-0.226,0.146-0.354,0.146s-0.256-0.049-0.353-0.146c-0.66-0.659-1.313-1.333-1.966-2.007
				c-1.357-1.402-2.762-2.852-4.225-4.156c-0.515-0.46-1.082-0.816-1.684-1.195l-0.236-0.156c-0.103-0.071-0.276-0.191-0.352-0.198
				c-0.275-0.024-0.479-0.267-0.454-0.542c0.023-0.274,0.254-0.476,0.542-0.454c0.34,0.029,0.614,0.221,0.834,0.373l0.131,0.089
				c0.705,0.443,1.308,0.822,1.885,1.338c1.49,1.329,2.907,2.792,4.277,4.206c0.649,0.671,1.298,1.34,1.954,1.996
				C282.758,233.364,282.758,233.68,282.563,233.876z M297.91,210.971c-0.31,0.788-1.013,1.437-1.848,1.575
				c-0.457,0.076-0.928,0.001-1.37-0.136c-0.509-0.158-1-0.405-1.372-0.786c-0.447-0.457-0.695-1.076-0.832-1.701
				c-0.137-0.625-0.173-1.266-0.259-1.9c-0.119-0.876-0.344-1.76-0.851-2.484c-0.22-0.314-0.497-0.59-0.816-0.803
				c-0.24-0.16-0.747-0.24-0.904-0.472c-0.506-0.744,1.216-0.626,1.513-0.581c1.997,0.301,3.887,1.267,5.301,2.709
				c0.592,0.604,1.109,1.3,1.401,2.095C298.166,209.283,298.22,210.184,297.91,210.971z M317.72,280.568
				c-1.953,1.062-4.188,1.587-6.423,1.587c-2.626,0-5.256-0.724-7.439-2.154c-0.231-0.15-0.296-0.461-0.145-0.691
				c0.151-0.234,0.463-0.297,0.691-0.145c3.747,2.45,8.905,2.662,12.839,0.524c0.239-0.131,0.545-0.042,0.678,0.201
				C318.053,280.133,317.963,280.436,317.72,280.568z M321.937,204.518c-0.147,0.217-0.621,0.291-0.845,0.441
				c-0.298,0.199-0.557,0.458-0.762,0.75c-0.474,0.676-0.684,1.503-0.795,2.321c-0.08,0.592-0.114,1.192-0.242,1.775
				c-0.128,0.584-0.359,1.162-0.777,1.589c-0.348,0.356-0.807,0.587-1.283,0.734c-0.413,0.128-0.853,0.198-1.28,0.127
				c-0.78-0.129-1.437-0.736-1.727-1.472c-0.289-0.736-0.239-1.578,0.034-2.321c0.273-0.742,0.756-1.393,1.31-1.957
				c1.321-1.347,3.087-2.25,4.953-2.531C320.8,203.933,322.409,203.822,321.937,204.518z M329.323,222.804
				c-0.068,0.094-0.132,0.18-0.175,0.254c-0.398,0.69-0.77,1.393-1.142,2.095c-0.43,0.81-0.859,1.62-1.327,2.411
				c-0.094,0.157-0.26,0.245-0.431,0.245c-0.087,0-0.175-0.022-0.255-0.069c-0.237-0.141-0.316-0.447-0.176-0.686
				c0.461-0.777,0.883-1.573,1.305-2.37c0.378-0.713,0.756-1.426,1.161-2.126c0.057-0.1,0.14-0.215,0.23-0.34
				c0.112-0.155,0.376-0.518,0.356-0.642c-0.042-0.265,0.13-0.534,0.394-0.587c0.259-0.051,0.517,0.095,0.579,0.355
				C329.976,221.904,329.599,222.424,329.323,222.804z"/>
			<path style="fill:#E2C9A1;" d="M315.275,184.883c0.453-0.005,1.088-0.197,1.869-0.601c-0.7-1.686-1.35-3.497-1.946-5.431
				c-2.774-1.108-5.686-1.52-8.475-1.533c0.652,1.713,1.922,4.484,3.827,6.224C311.381,184.301,313.148,184.802,315.275,184.883z"/>
			<path style="fill:#71AD6E;" d="M314.832,170.008c-0.042,0.064-0.092,0.124-0.148,0.178c-0.238,0.224-0.572,0.317-0.891,0.25
				c-2.082-0.436-5.251-0.979-8.632-1.131c-0.004,0-0.008,0.001-0.012,0.001c-0.003,0-0.005-0.001-0.008-0.001
				c-2.504-0.111-5.122-0.009-7.506,0.515c-0.261,0.058-0.53,0.008-0.752-0.133c-3.484-0.842-36.845-8.618-52.4-2.189
				c-0.112,0.047-0.232,0.072-0.355,0.076c-3.096,0.085-4.69,0.61-5.149,1.075c-0.52,0.52-0.801,1.694-0.701,2.926
				c0.1,1.231,0.564,2.285,1.21,2.751c0.936,0.669,2.311,0.81,3.298,0.81c0.507,0,0.934,0.379,0.993,0.883
				c1.233,10.456,5.977,23.409,21.564,25.738c0.859,0.127,1.667,0.195,2.462,0.229c2.545-2.558,6.591-5.091,13.024-6.751
				c1.271-0.328,2.498-0.547,3.686-0.681c4.635-5.051,7.626-11.768,9.32-16.559c0.103-0.293,0.336-0.52,0.63-0.617
				c2.459-0.807,6.114-1.753,10.188-1.997c0.155-0.123,0.344-0.207,0.552-0.221c0.219-0.007,0.434,0.054,0.614,0.168
				c3.437-0.084,7.112,0.372,10.591,1.862c0.272,0.116,0.479,0.347,0.564,0.631c0.632,2.096,1.39,4.257,2.289,6.357
				c0.001,0.002,0.003,0.003,0.004,0.005c0.008,0.013,0.008,0.028,0.016,0.042c3.556,8.283,9.343,15.589,18.569,14.102
				c3.508-0.567,6.283-1.998,8.492-3.955c0.043-0.046,0.092-0.081,0.143-0.118c5.028-4.554,7.023-11.911,7.745-18.242
				c0.058-0.506,0.485-0.887,0.993-0.887c0.019-0.001,0.054,0.001,0.084,0.001c0.581,0,1.574-0.087,2.219-0.618
				c0.457-0.369,0.799-1.228,0.898-2.247c0.12-1.23-0.145-2.266-0.471-2.654c-0.293-0.347-1.433-0.791-3.675-0.893
				c-0.139-0.006-0.274-0.041-0.398-0.103C342.706,163.09,318.909,168.943,314.832,170.008z M268.738,196.431c-0.001,0,0,0-0.001,0
				c-0.8,0-1.636-0.064-2.486-0.191c-14.575-2.172-16.775-17.152-16.97-24.439c2.64-0.701,6.477-1.255,12.009-1.255
				c10.01,0,20.982,1.808,27.778,3.159C286.43,182.133,280.255,196.431,268.738,196.431z M350.351,172.263
				c-0.219,6.401-2.032,19.544-13.079,21.327c-0.644,0.104-1.277,0.153-1.882,0.146c-0.001,0,0,0-0.001,0
				c-8.713-0.098-13.241-12.712-15.153-20.14c5.154-1.128,13.472-2.624,21.044-2.538
				C345.464,171.106,348.361,171.625,350.351,172.263z"/>
			<path style="fill:#E2C9A1;" d="M333.813,200.391c-0.79,0.424-1.609,0.799-2.45,1.126c1.064,1.175,1.903,2.488,2.453,3.913
				c0.318,0.823,0.528,1.661,0.645,2.499c0.829,1.236,5.295,8.027,8.256,15.069c0.618-6.439,1.831-18.242,2.896-23.701
				c0.128-0.661,0.23-1.355,0.306-2.074c-2.13,1.484-4.682,2.581-7.75,3.077C336.671,200.543,335.221,200.555,333.813,200.391z"/>
			<path style="fill:#7A623F;" d="M320.149,108.767c-1.74-2.72-3.63-5.31-5.46-7.66c-6.49,4.09-14.41,5.42-22.1,6
				c-8.18,0.62-16.5,0.54-24.42,2.68c-8.51,2.3-16.25,7.1-24.9,8.8c-5.55,1.08-11.29,0.84-16.85,1.88
				c-10.54,1.96-19.62,8.28-28.23,14.75v194.9c20.67-0.86,74.96,10.03,82.3,14.38c2.88-1.25,16.92-7.14,27.38-8.5v-8.96
				c-2.8,0.36-5.65,0.56-8.56,0.56c-10.2,0-21.07-2.24-32.73-6.71c-3.11-1.2-5.67-3.39-7.38-6.16l-52.47-50.1
				c-0.4-0.38-0.41-1.01-0.03-1.41c0.38-0.4,1.02-0.41,1.41-0.03l49.22,46.98c-1.4-5.88-3.47-15.06-5.35-25.2
				c0-0.02-0.01-0.03-0.01-0.05c-2.9-15.63-5.37-33.52-4.24-45.05c2.22-22.75,14.24-30.93,16.46-32.25
				c0.05-0.17,0.12-0.33,0.19-0.49c-27.7-2.54-32.93-23.31-32.98-23.53c-0.04-0.14-0.04-0.3,0-0.45c0.83-3.65,3.32-6.89,5.45-9.11
				c-0.3-0.68-0.5-1.45-0.56-2.3c-0.03-0.3-0.03-0.59-0.02-0.88c-4.45-0.06-9.19,0.35-11.3,0.53l-0.46,0.04
				c-0.19,0.02-0.41,0.03-0.65,0.03c-1.3,0-3.26-0.33-5-1.96c-2.4-2.23-3.57-6.13-3.49-11.59c0.2-11.61,2.22-16.9,7.71-20.21
				c2.98-1.81,7.5-2.44,12.21-2.04c0.44-1.88,1.81-5,3.98-8.15c3.15-4.57,7.98-9.22,14.12-10.32c2.68-0.48,6.19-0.12,10.13,0.73
				h0.01c6.1,1.3,13.21,3.75,19.79,6.01c6.44,2.22,12.53,4.32,15.53,4.49c3.45,0.2,6.82-1.74,10.39-3.78
				c4.21-2.41,9-5.14,14.68-4.63c0.74,0.07,1.45,0.24,2.14,0.47C324.719,116.547,322.579,112.537,320.149,108.767z M221.789,225.977
				c0.12,0.16,0.19,0.35,0.2,0.55l1.83,32.71c0.03,0.55-0.39,1.02-0.94,1.05h-0.06c-0.53,0-0.97-0.41-1-0.94l-1.81-32.41
				l-13.34-17.85c-0.33-0.44-0.24-1.07,0.2-1.4c0.44-0.33,1.07-0.24,1.4,0.2L221.789,225.977z"/>
			<path style="fill:#E2C9A1;" d="M254.236,286.172c1.816,9.573,3.762,18.174,5.078,23.719c0.992,4.177,3.977,7.588,7.985,9.126
				c15.05,5.772,28.749,7.732,41.34,5.881c0.075-0.018,0.146-0.046,0.227-0.046c0.012,0,0.021,0.006,0.033,0.007
				c9.23-1.397,17.866-4.844,25.997-10.363c3.431-2.329,5.588-6.152,5.77-10.228c0.209-4.702,0.487-11.003,0.786-17.928
				c-11.631,4.585-24.537,6.883-38.904,6.883C288.005,293.222,271.964,290.868,254.236,286.172z M325.719,301.518
				c0.264-0.083,0.543,0.066,0.625,0.33c0.082,0.264-0.066,0.544-0.33,0.625c-5.902,1.826-12.108,2.751-18.305,2.751
				c-2.996,0-5.99-0.217-8.947-0.651c-0.272-0.041-0.462-0.295-0.422-0.568c0.041-0.273,0.288-0.453,0.568-0.422
				C307.833,304.898,317.104,304.182,325.719,301.518z"/>
			<path style="fill:#E2C9A1;" d="M265.305,205.201c0.256-0.435,0.551-0.88,0.884-1.331c-0.376-0.04-0.749-0.077-1.139-0.134
				c-17.19-2.568-21.898-17.414-23.15-26.634c-1.149-0.089-2.5-0.381-3.577-1.15c-0.106-0.076-0.204-0.164-0.303-0.252
				c-1.833,1.968-3.867,4.69-4.62,7.666C234.029,185.671,239.659,203.208,265.305,205.201z"/>
			<path style="fill:#E2C9A1;" d="M344.526,140.431c2.959,1.014,5.176,6.826,6.496,12.362c1.033-1.331,1.934-2.771,2.261-4.372
				c0.339-1.657,0.043-3.394-0.415-5.061c-0.174,0.51-0.323,1.026-0.435,1.553c-0.1,0.47-0.515,0.791-0.977,0.791
				c-0.069,0-0.14-0.007-0.21-0.022c-0.54-0.115-0.884-0.646-0.768-1.187c0.514-2.408,1.652-4.59,2.753-6.699
				c1.211-2.32,2.354-4.513,2.69-6.925c0.125-0.898,0.096-1.626-0.09-2.228c-0.201-0.65-0.617-1.176-1.112-1.402
				c-0.903-0.412-2.139,0.047-3.116,0.494c-1.702,0.779-3.393,1.73-5.027,2.65c-2.891,1.627-5.875,3.295-9.16,4.18
				c1.094,2.708,1.796,5.053,2.125,6.247C341.784,140.296,343.566,140.105,344.526,140.431z"/>
			<path style="fill:#D8B236;" d="M336.171,380.672c-0.411,3.393-1.149,6.195-1.185,6.332c-0.119,0.448-0.524,0.743-0.966,0.743
				c-0.085,0-0.172-0.011-0.258-0.034c-0.534-0.142-0.852-0.689-0.71-1.223c0.011-0.038,1.011-3.835,1.308-7.811
				c0.246-3.047,0.004-5.446-0.698-6.945c-1.559-3.3-7.559-2.255-9.548-1.806c-0.033,0.182-0.104,0.356-0.229,0.495l-7.675,8.497
				c-0.197,0.219-0.47,0.33-0.742,0.33c-0.239,0-0.479-0.085-0.67-0.258c-0.41-0.37-0.442-1.003-0.072-1.412l7.438-8.234
				l0.014-0.271c0.438-11.048-0.596-25.51-4.949-29.863c-1.308-1.309-4.158-1.769-8.255-1.336
				c-9.555,1.021-23.193,6.553-27.098,8.202c3.876,7.813,2.603,41.346,2.434,45.371c-0.016,0.382-0.249,0.722-0.6,0.875
				l-71.542,31.16c-3.501,1.524-5.701,5.107-5.476,8.913l2.558,42.814c19.153,3.646,41.752,7.57,50.3,7.57
				c15.829,0,35.672-6.464,35.87-6.529c0.523-0.174,1.09,0.112,1.263,0.638c0.172,0.524-0.113,1.09-0.638,1.263
				c-0.202,0.066-20.349,6.629-36.495,6.629c-8.718,0-31.085-3.865-50.176-7.496l1.592,26.655l160.283-0.847
				c2.521-19.919-8.588-41.659-8.701-41.878c-0.044-0.084-0.073-0.173-0.091-0.263c-0.003-0.014-0.001-0.029-0.004-0.044
				c-0.016-0.105-0.013-0.211,0.004-0.316c0.003-0.016-0.003-0.032,0-0.048c0.002-0.011,0.011-0.019,0.013-0.03
				c0.026-0.104,0.063-0.206,0.123-0.3c1.89-2.94,7.203-20.121,9.749-28.795c0.155-0.53,0.713-0.832,1.241-0.679
				c0.53,0.156,0.834,0.712,0.679,1.241c-0.281,0.956-6.4,21.756-9.322,28.047c2.166,0.394,6.561,1.075,9.322,0.696
				c3.24-0.448,4.198-4.037,4.237-4.19c0.137-0.533,0.68-0.858,1.215-0.722c0.534,0.136,0.858,0.676,0.725,1.21
				c-0.051,0.206-1.313,5.049-5.903,5.683c-0.657,0.091-1.388,0.129-2.15,0.129c-2.487,0-5.329-0.406-7.181-0.725
				c2.653,5.69,10.151,23.669,8.057,40.973l18.989-0.1c-0.65-28.418-13.716-84.851-14.864-89.758L336.171,380.672z M327.228,411.672
				c1.364-1.062,2.26-2.639,3.023-4.185c2.255-4.564,3.74-9.436,4.413-14.482c0.037-0.275,0.289-0.479,0.563-0.429
				c0.273,0.036,0.466,0.287,0.43,0.562c-0.688,5.154-2.205,10.131-4.509,14.793c-0.816,1.652-1.783,3.345-3.307,4.53
				c-0.091,0.071-0.199,0.105-0.307,0.105c-0.148,0-0.296-0.066-0.395-0.193C326.97,412.155,327.009,411.841,327.228,411.672z
				 M307.295,391.085l7.789-7.563c0.199-0.193,0.516-0.188,0.707,0.01c0.192,0.198,0.189,0.515-0.01,0.707l-7.789,7.563
				c-0.098,0.095-0.223,0.142-0.349,0.142c-0.131,0-0.261-0.051-0.358-0.151C307.093,391.593,307.097,391.277,307.295,391.085z
				 M297.865,347.168c2.331-0.998,4.792-1.646,7.316-1.924c0.264-0.035,0.521,0.167,0.552,0.442c0.03,0.274-0.168,0.522-0.442,0.552
				c-2.425,0.267-4.791,0.89-7.032,1.85c-0.064,0.027-0.131,0.04-0.196,0.04c-0.193,0-0.379-0.113-0.46-0.304
				C297.493,347.571,297.612,347.277,297.865,347.168z M294.653,371.194c2.904-1.627,5.394-3.966,7.197-6.763
				c0.15-0.232,0.462-0.301,0.69-0.149c0.233,0.149,0.3,0.459,0.15,0.69c-1.892,2.935-4.502,5.388-7.549,7.095
				c-0.077,0.043-0.161,0.063-0.244,0.063c-0.175,0-0.345-0.092-0.436-0.256C294.326,371.634,294.411,371.33,294.653,371.194z
				 M290.669,390.492l11.238-4.935c0.507-0.219,1.096,0.008,1.318,0.514c0.222,0.506-0.008,1.096-0.514,1.318l-11.238,4.935
				c-0.131,0.057-0.268,0.084-0.401,0.084c-0.385,0-0.752-0.223-0.917-0.598C289.934,391.304,290.163,390.715,290.669,390.492z
				 M241.734,470.403c-0.089,0.065-0.192,0.097-0.296,0.097c-0.153,0-0.305-0.07-0.403-0.204c-2.641-3.594-5.604-6.983-8.807-10.075
				c-0.198-0.191-0.204-0.508-0.012-0.707c0.191-0.198,0.508-0.203,0.707-0.012c3.242,3.13,6.243,6.563,8.918,10.202
				C242.004,469.926,241.956,470.239,241.734,470.403z M247.564,448.922c-0.189,0.31-0.518,0.481-0.855,0.481
				c-0.177,0-0.356-0.047-0.519-0.146l-10.157-6.174c-0.472-0.287-0.622-0.902-0.335-1.374c0.287-0.472,0.902-0.622,1.374-0.335
				l10.157,6.174C247.701,447.836,247.851,448.451,247.564,448.922z M251.091,433.139c-0.023,0-0.047-0.001-0.07-0.002
				l-20.558-1.437c1.865,1.735,3.04,4.202,3.04,6.944c0,4.614-3.309,8.466-7.678,9.317l4.039,5.633
				c0.322,0.449,0.219,1.074-0.23,1.396c-0.177,0.127-0.381,0.188-0.582,0.188c-0.312,0-0.618-0.145-0.813-0.417l-4.765-6.647
				c-4.988-0.279-8.963-4.413-8.963-9.469c0-5.236,4.26-9.497,9.496-9.497c0.792,0,1.557,0.108,2.293,0.292
				c0.056-0.007,0.108-0.027,0.166-0.024l24.694,1.726c0.552,0.039,0.967,0.517,0.929,1.067
				C252.051,432.736,251.612,433.139,251.091,433.139z M260.747,455.179c-0.074,0.203-0.266,0.328-0.47,0.328
				c-0.058,0-0.115-0.01-0.172-0.03l-5.482-2.013c-0.259-0.096-0.392-0.383-0.297-0.643c0.097-0.259,0.382-0.389,0.643-0.297
				l5.479,2.013C260.709,454.634,260.842,454.921,260.747,455.179z M269.128,430.856c-3.299,0-6.473-0.355-9.468-1.07
				c-0.269-0.064-0.435-0.334-0.37-0.603c0.064-0.268,0.332-0.439,0.603-0.37c7.569,1.809,16.329,1.261,25.335-1.581
				c8.332-2.629,16.12-6.884,23.294-11.091c0.236-0.137,0.544-0.061,0.685,0.179c0.14,0.238,0.06,0.545-0.179,0.685
				c-7.225,4.235-15.072,8.522-23.499,11.181C279.901,429.962,274.359,430.856,269.128,430.856z M300.042,433.036l-12.977,2.732
				c-0.034,0.008-0.069,0.011-0.104,0.011c-0.231,0-0.439-0.161-0.488-0.398c-0.057-0.27,0.116-0.535,0.387-0.592l12.977-2.731
				c0.268-0.063,0.534,0.115,0.592,0.387C300.486,432.714,300.313,432.979,300.042,433.036z M334.109,478.327
				c-0.016,0-0.031-0.001-0.047-0.002l-7.676-0.716c-0.275-0.025-0.478-0.27-0.452-0.544c0.026-0.276,0.282-0.465,0.544-0.452
				l7.676,0.716c0.275,0.025,0.478,0.27,0.452,0.544C334.581,478.133,334.364,478.327,334.109,478.327z M341.422,454.88
				l-30.761,18.744c-0.536,0.327-1.145,0.657-1.793,0.657c-0.178,0-0.358-0.024-0.54-0.081c-0.265-0.081-0.412-0.361-0.33-0.625
				c0.081-0.264,0.361-0.416,0.625-0.33c0.455,0.141,1.022-0.172,1.519-0.475l30.761-18.744c0.234-0.145,0.542-0.071,0.687,0.167
				C341.733,454.429,341.658,454.737,341.422,454.88z M373.354,423.777c-0.094,0.077-0.207,0.115-0.319,0.115
				c-0.144,0-0.286-0.062-0.385-0.181c-0.177-0.213-0.146-0.528,0.065-0.704c0.634-0.525,1.087-1.291,1.241-2.099
				c0.051-0.272,0.32-0.449,0.585-0.397c0.272,0.052,0.449,0.314,0.397,0.585C374.738,422.144,374.175,423.096,373.354,423.777z"/>
			<path style="fill:#D8B236;" d="M331.779,95.827c-2.8-7.33-6.29-14.44-10.37-21.14c-1.9-3.13-4.55-6.74-8.22-6.96
				c-1.62-0.1-3.22,0.48-4.91,1.09l-0.57,0.21c-6.11,2.17-12.49,3.28-18.98,3.28h-0.1c-2.32-0.01-4.66-0.16-6.92-0.3
				c-3.56-0.22-7.25-0.46-10.81-0.11c-5.38,0.51-10.65,2.35-15.74,4.12c-1.55,0.54-3.09,1.07-4.63,1.58
				c-9.38,3.05-19.66,5.11-31.43,6.31l-1.8,0.18c-5,0.49-10.18,1-14.78,2.94c-2.59,1.09-5.05,2.67-7.42,4.2
				c-2.85,1.82-5.79,3.71-9.08,4.87c-1.56,0.55-3.18,0.93-4.75,1.3c-2.62,0.61-5.09,1.19-7.25,2.48c-4.23,2.53-6.59,7.86-5.62,12.69
				c0.64,3.16,2.46,5.87,4.39,8.73c1.24,1.84,2.5,3.74,3.46,5.79c2.68,0.09,5.34,0.54,7.9,1.34c4.48,1.37,8.64,3.77,12.04,7.02
				v-1.57c-0.19-0.33-0.42-0.63-0.66-0.91c-0.93-1.05-2.05-2.24-1.91-3.58c-0.21-0.07-0.39-0.19-0.51-0.38
				c-0.31-0.46-0.18-1.09,0.28-1.39c1.04-0.69,2.19-1.29,3.4-1.78l0.01-0.01h0.01c2.66-1.1,5.54-1.73,8.32-2.33
				c2.79-0.61,5.68-1.23,8.27-2.33c1.39-0.6,2.76-1.35,4.08-2.08c2.01-1.11,4.08-2.26,6.36-2.93c2.84-0.83,5.8-0.87,8.66-0.91
				c1.28-0.02,2.61-0.04,3.9-0.13c6.98-0.5,13.68-3.26,20.16-5.93c5.88-2.42,11.95-4.92,18.35-5.84c3.32-0.47,6.7-0.51,9.97-0.55
				c2.66-0.04,5.41-0.07,8.08-0.34c5.21-0.53,10.26-1.95,14.99-4.22c0.58-0.28,1.14-0.56,1.71-0.85c0.85-0.43,1.73-0.87,2.62-1.26
				c1.03-0.45,1.88-0.76,2.68-0.98c1.78-0.5,5.19-1.05,8.05,0.81c0.46,0.3,0.59,0.92,0.29,1.39c-0.3,0.46-0.92,0.59-1.38,0.29
				c-1.61-1.05-3.95-1.25-6.43-0.57c-0.36,0.11-0.75,0.23-1.16,0.39c0.21,0.26,0.43,0.54,0.65,0.81c0.39,0.3,0.69,0.65,0.85,1.05
				c2.44,3.09,5.01,6.63,7.26,10.36c0.74,1.24,1.44,2.5,2.1,3.77l5.68-8.62c0.82-1.24,1.66-2.52,1.89-3.92
				C333.029,99.277,332.449,97.577,331.779,95.827z M309.699,75.217c0.45-0.32,1.07-0.21,1.4,0.24c1.15,1.63,1.84,3.62,1.94,5.61
				c0.02,0.56-0.4,1.02-0.95,1.05h-0.05c-0.53,0-0.98-0.41-1-0.95c-0.08-1.62-0.64-3.23-1.58-4.55
				C309.149,76.167,309.249,75.537,309.699,75.217z M280.399,81.707c0.51-0.19,1.09,0.07,1.28,0.59c0.54,1.45,0.85,2.97,0.95,4.52
				c0.03,0.55-0.39,1.02-0.94,1.06h-0.06c-0.53,0-0.97-0.41-1-0.94c-0.08-1.35-0.36-2.68-0.82-3.95
				C279.609,82.477,279.879,81.897,280.399,81.707z M259.689,78.197c0.31-0.3,0.73-0.43,1.16-0.37c0.67,0.09,1.21,0.62,1.5,1.08
				c0.58,0.95,1.02,1.98,1.31,3.05c0.15,0.53-0.17,1.08-0.7,1.23c-0.09,0.02-0.18,0.03-0.27,0.03c-0.43,0-0.84-0.29-0.96-0.74
				c-0.24-0.89-0.61-1.74-1.09-2.52c-0.01-0.02-0.02-0.04-0.04-0.06c-0.33,0.08-0.7-0.02-0.95-0.28
				C259.269,79.207,259.289,78.577,259.689,78.197z M258.069,88.507c0.53-0.17,1.09,0.12,1.26,0.65c0.62,1.92,1.12,3.91,1.47,5.9
				c0.1,0.55-0.26,1.07-0.8,1.16c-0.06,0.01-0.12,0.02-0.18,0.02c-0.48,0-0.9-0.34-0.98-0.82c-0.35-1.91-0.82-3.81-1.41-5.65
				C257.259,89.237,257.539,88.677,258.069,88.507z M245.979,97.257c0.55-0.08,1.05,0.31,1.13,0.86l0.54,3.83
				c0.08,0.55-0.3,1.06-0.85,1.13c-0.05,0.01-0.1,0.01-0.14,0.01c-0.49,0-0.92-0.36-0.99-0.86l-0.54-3.84
				C245.049,97.847,245.429,97.337,245.979,97.257z M228.499,95.487c0.54-0.11,1.07,0.23,1.19,0.77c0.79,3.72,1.68,7.94,0.56,12
				c-0.12,0.45-0.52,0.74-0.96,0.74c-0.09,0-0.18-0.02-0.26-0.04c-0.54-0.15-0.85-0.7-0.7-1.23c0.98-3.59,0.14-7.56-0.6-11.05
				C227.609,96.137,227.959,95.607,228.499,95.487z M210.859,92.227c0.46-0.31,1.08-0.2,1.39,0.26c0.78,1.13,1.39,2.37,1.8,3.68
				c0.17,0.53-0.12,1.09-0.65,1.25c-0.1,0.04-0.2,0.05-0.3,0.05c-0.43,0-0.82-0.27-0.96-0.7c-0.35-1.12-0.87-2.18-1.53-3.14
				C210.289,93.167,210.409,92.547,210.859,92.227z M193.029,99.497c0.43-0.35,1.06-0.29,1.41,0.13c2.2,2.63,3.84,5.77,4.73,9.08
				c0.14,0.53-0.17,1.08-0.71,1.22c-0.08,0.03-0.17,0.04-0.26,0.04c-0.44,0-0.84-0.3-0.96-0.74c-0.82-3.03-2.32-5.91-4.33-8.32
				C192.549,100.487,192.609,99.857,193.029,99.497z M181.829,114.377c-0.13,0.06-0.26,0.08-0.39,0.08c-0.39,0-0.76-0.22-0.92-0.6
				c-0.6-1.42-1.14-2.87-1.58-4.34c-0.16-0.53,0.13-1.09,0.66-1.25c0.53-0.16,1.09,0.14,1.25,0.66c0.43,1.4,0.93,2.8,1.51,4.14
				C182.569,113.577,182.339,114.167,181.829,114.377z M191.239,124.207c-0.14,0.07-0.3,0.1-0.45,0.1c-0.36,0-0.72-0.2-0.89-0.55
				l-1.02-2.02c-0.25-0.49-0.06-1.09,0.44-1.34c0.49-0.25,1.09-0.05,1.34,0.44l1.02,2.02
				C191.929,123.357,191.729,123.957,191.239,124.207z M209.649,117.337c-0.01,0-0.01,0-0.02,0c-0.55,0-0.99-0.46-0.98-1.01
				c0.01-0.72-0.21-1.44-0.62-2.04c-0.31-0.45-0.19-1.08,0.26-1.39c0.46-0.31,1.08-0.19,1.4,0.26c0.63,0.93,0.98,2.07,0.96,3.2
				C210.639,116.907,210.189,117.337,209.649,117.337z M295.229,96.027c-0.05,0.51-0.49,0.89-0.99,0.89h-0.11
				c-0.55-0.06-0.94-0.55-0.89-1.1c0.11-1.02,0.16-2.05,0.16-3.08c0-1.32-0.1-2.63-0.29-3.94c-0.07-0.55,0.31-1.05,0.85-1.13
				c0.54-0.08,1.05,0.3,1.13,0.85c0.22,1.53,0.33,3.07,0.31,4.61C295.389,94.097,295.329,95.067,295.229,96.027z M317.919,87.347
				l-0.96,2.74c-0.14,0.41-0.53,0.67-0.94,0.67c-0.11,0-0.22-0.02-0.33-0.06c-0.52-0.18-0.8-0.75-0.62-1.27l0.6-1.69l0.37-1.06
				c0.18-0.52,0.75-0.79,1.27-0.61c0.4,0.15,0.66,0.51,0.67,0.91C317.979,87.107,317.959,87.227,317.919,87.347z"/>
			<path style="fill:#D8B236;" d="M178.207,471.054c-0.541-0.114-0.887-0.645-0.772-1.185c0.113-0.54,0.649-0.885,1.185-0.773
				c0.287,0.061,13.07,2.749,28.603,5.727l-2.528-42.307c-0.275-4.642,2.406-9.009,6.673-10.866l70.968-30.91
				c0.633-15.882,0.472-41.453-2.64-44.381c-3.551-3.338-61.633-15.546-82.445-14.192c-2.296,0.15-3.973,0.467-4.981,0.939
				c-9.775,4.528-6.305,30.699-5.802,34.151l10.054,6.879c0.456,0.311,0.572,0.935,0.261,1.39c-0.311,0.455-0.933,0.573-1.39,0.261
				l-10.288-7.039c-0.967-0.282-5.65-1.482-7.88,1.671c-1.007,1.419-1.828,3.918-2.374,7.228c-0.768,4.645-0.828,9.691-0.646,12.602
				c0.034,0.552-0.385,1.026-0.936,1.061c-0.021,0.001-0.043,0.002-0.064,0.002c-0.523,0-0.964-0.407-0.997-0.938
				c-0.155-2.481-0.133-6.462,0.321-10.474l-51.712,43.152l-12.914,81.434l32.518-0.172c2.92-11.454,10.425-29.387,13.569-36.683
				c1.026-2.396,0.858-5.162-0.45-7.399l-16.282-28.027c-0.278-0.478-0.115-1.089,0.362-1.366c0.473-0.278,1.089-0.117,1.366,0.362
				l16.281,28.024c1.626,2.78,1.836,6.219,0.56,9.195c-3.079,7.147-10.367,24.554-13.338,35.883l66.475-0.351l-1.616-27.052
				C192.087,473.975,179.373,471.301,178.207,471.054z M254.502,392.411c-0.089,0.482-0.509,0.819-0.982,0.819
				c-0.059,0-0.121-0.005-0.182-0.017l-44.679-8.224c-0.544-0.1-0.902-0.621-0.803-1.164c0.1-0.543,0.622-0.905,1.164-0.803
				l44.679,8.224C254.243,391.346,254.602,391.868,254.502,392.411z M201.31,372.003c6.496,0.599,13.076,1.32,19.557,2.146
				c0.273,0.035,0.468,0.285,0.433,0.56c-0.032,0.252-0.247,0.436-0.495,0.436c-0.021,0-0.043-0.001-0.064-0.004
				c-6.469-0.824-13.036-1.545-19.521-2.142c-0.275-0.025-0.478-0.269-0.452-0.544C200.791,372.179,201.039,371.981,201.31,372.003z
				 M195.59,382.113c0.184-0.206,0.499-0.223,0.706-0.04c1.419,1.268,2.443,2.984,2.885,4.834c0.064,0.269-0.102,0.538-0.37,0.603
				c-0.039,0.01-0.078,0.014-0.116,0.014c-0.227,0-0.432-0.154-0.486-0.384c-0.395-1.653-1.311-3.188-2.578-4.32
				C195.424,382.634,195.406,382.319,195.59,382.113z M146.738,475.158c-1.233,0.887-2.386,1.9-3.424,3.012
				c-0.099,0.105-0.232,0.159-0.365,0.159c-0.122,0-0.245-0.045-0.341-0.135c-0.202-0.189-0.213-0.505-0.024-0.706
				c1.082-1.16,2.284-2.217,3.57-3.143c0.225-0.161,0.537-0.11,0.698,0.114C147.013,474.684,146.962,474.997,146.738,475.158z
				 M151.633,464.284c0.322,0.449,0.22,1.073-0.229,1.396c-0.485,0.349-11.973,8.556-20.142,10.04
				c-0.061,0.012-0.12,0.017-0.18,0.017c-0.475,0-0.896-0.338-0.982-0.821c-0.1-0.543,0.261-1.064,0.805-1.162
				c7.725-1.405,19.216-9.614,19.331-9.697C150.685,463.735,151.309,463.836,151.633,464.284z M147.031,456.906
				c0.248,0.121,0.35,0.421,0.228,0.669c-0.087,0.177-0.264,0.279-0.448,0.279c-0.074,0-0.149-0.017-0.221-0.052
				c-3.835-1.886-7.441-4.231-10.721-6.974c-0.212-0.178-0.24-0.492-0.063-0.704c0.178-0.214,0.495-0.239,0.704-0.064
				C139.729,452.753,143.269,455.055,147.031,456.906z M181.251,404.615c0.266,0.009,0.506,0.209,0.516,0.484l0.24,7.491
				c0.009,0.275-0.208,0.507-0.484,0.516c-0.005,0-0.011,0-0.016,0c-0.27,0-0.491-0.214-0.5-0.484l-0.24-7.491
				C180.758,404.855,180.975,404.624,181.251,404.615z M175.687,397.149c0.055-0.273,0.322-0.449,0.588-0.393
				c0.271,0.054,0.446,0.317,0.393,0.588c-1.832,9.164-2.913,18.546-3.213,27.886c-0.009,0.271-0.231,0.484-0.5,0.484
				c-0.005,0-0.011,0-0.016,0c-0.276-0.009-0.493-0.24-0.484-0.516C172.756,415.803,173.844,406.366,175.687,397.149z
				 M162.689,465.564c6.521-2.142,12.909-4.847,18.986-8.04c0.243-0.128,0.547-0.036,0.675,0.21c0.129,0.244,0.034,0.547-0.21,0.675
				c-6.126,3.22-12.565,5.946-19.139,8.104c-0.052,0.018-0.105,0.025-0.156,0.025c-0.21,0-0.406-0.134-0.475-0.344
				C162.283,465.932,162.427,465.65,162.689,465.564z M170.74,483.977c-0.077,0.043-0.16,0.063-0.242,0.063
				c-0.176,0-0.347-0.093-0.438-0.258c-1.958-3.544-4.699-6.707-7.928-9.147c-0.22-0.166-0.264-0.479-0.097-0.7
				c0.166-0.221,0.48-0.263,0.7-0.097c3.339,2.523,6.175,5.795,8.199,9.46C171.07,483.54,170.982,483.843,170.74,483.977z"/>
			<path style="fill:#FBF4F0;" d="M224.006,431.148c-4.134,0-7.496,3.363-7.496,7.497s3.362,7.496,7.496,7.496
				c4.134,0,7.497-3.362,7.497-7.496S228.14,431.148,224.006,431.148z"/>
			<path style="fill:#E2C9A1;" d="M310.23,126.375c-3.833,2.193-7.471,4.261-11.494,4.035c-3.278-0.186-9.205-2.227-16.066-4.59
				c-10.076-3.469-22.606-7.783-28.93-6.662c-9.137,1.626-15.503,12.756-16.476,16.737c3.931,0.579,7.872,1.862,11.064,3.807
				c7.278,4.444,34.544,11.602,34.818,11.673c0.534,0.14,0.855,0.687,0.715,1.221c-0.141,0.534-0.685,0.849-1.221,0.715
				c-1.133-0.296-27.827-7.305-35.354-11.9c-3.331-2.029-7.317-3.209-11.135-3.653c-0.009,0-0.018,0.005-0.027,0.005
				c-0.023,0-0.042-0.012-0.064-0.013c-4.801-0.544-9.329,0.077-11.943,1.657c-4.794,2.893-6.559,7.743-6.743,18.536
				c-0.078,4.795,0.906,8.287,2.846,10.096c1.495,1.396,3.218,1.476,4.117,1.4l0.46-0.04c2.194-0.192,7.175-0.63,11.817-0.532
				c0.222-0.654,0.54-1.218,0.949-1.627c0.983-0.993,3.113-1.552,6.329-1.658c16.727-6.763,51.073,1.567,53.668,2.213
				c2.074-0.42,4.287-0.556,6.446-0.522c-0.246-1.74-0.598-3.49-1.059-5.218c-0.142-0.534,0.174-1.082,0.707-1.225
				c0.537-0.145,1.082,0.174,1.225,0.707c0.515,1.925,0.897,3.877,1.155,5.816c2.853,0.176,5.496,0.597,7.448,0.98
				c0.067-0.037,0.14-0.067,0.217-0.089c1.011-0.283,22.173-6.113,35.984-3.124c0.487-0.817,0.74-1.769,0.74-2.908
				c0-5.513-3.161-18.729-6.539-19.886c-2.855-0.97-19.58,5.58-29.445,9.936c-0.507,0.224-1.096-0.007-1.319-0.511
				c-0.223-0.506,0.006-1.096,0.511-1.319c3.178-1.402,15.656-6.825,23.972-9.122c-1.026-3.639-5.723-18.567-13.861-19.307
				C318.674,121.536,314.383,123.999,310.23,126.375z"/>
			<path style="fill:#D8B236;" d="M312.609,59.547c-0.26-0.27-0.53-0.52-0.82-0.77c-2.11-1.83-4.79-3.11-7-4.15
				c-12.1-5.76-24.36-11.04-36.43-15.7c-5.06-1.95-9.64-3.58-14.5-3.76c-4.63-0.16-9.33,1.05-13.85,2.23
				c-1.23,0.32-2.45,0.64-3.67,0.94c-7.63,1.83-15.53,2.7-23.16,3.54c-6.25,0.69-12.7,1.4-18.94,2.63
				c-4.24,0.84-8.89,2.17-11.26,5.72c-1.9,2.85-1.9,6.39-1.91,10.14c0,2.4,0,4.89-0.52,7.26c-0.53,2.35-1.55,4.52-2.53,6.62
				c-0.27,0.56-0.53,1.11-0.78,1.67c-2.57,5.69-4.14,11.83-4.68,18.06c-0.14,1.53-0.21,3.07-0.21,4.61
				c0.21-0.15,0.42-0.29,0.64-0.42c2.43-1.45,5.17-2.1,7.82-2.72c1.52-0.35,3.09-0.72,4.55-1.23c3.06-1.09,5.78-2.83,8.66-4.68
				c2.44-1.57,4.98-3.19,7.73-4.35c4.87-2.06,10.2-2.59,15.35-3.09l1.8-0.18c11.62-1.18,21.77-3.22,31.01-6.23
				c1.53-0.5,3.06-1.03,4.59-1.56c5.21-1.81,10.59-3.68,16.2-4.22c3.73-0.36,7.5-0.12,11.14,0.1c2.23,0.15,4.54,0.29,6.79,0.3h0.1
				c6.26,0,12.42-1.07,18.31-3.17l0.56-0.2c1.81-0.65,3.67-1.33,5.71-1.21c0.75,0.05,1.46,0.21,2.14,0.44
				C315.579,63.587,314.149,61.117,312.609,59.547z M256.869,51.817c3.1-1.9,5.53-4.81,6.84-8.19c0.2-0.52,0.78-0.77,1.3-0.57
				c0.51,0.2,0.77,0.78,0.57,1.29c-1.48,3.79-4.2,7.05-7.67,9.17c-0.16,0.1-0.34,0.15-0.52,0.15c-0.34,0-0.66-0.17-0.85-0.48
				C256.249,52.717,256.399,52.097,256.869,51.817z M197.349,67.347c10.87,1.66,22.11,0.65,32.51-2.91c0.52-0.18,1.09,0.1,1.27,0.62
				c0.18,0.53-0.1,1.1-0.62,1.28c-7.36,2.51-15.12,3.79-22.89,3.79c-3.54,0-7.07-0.26-10.57-0.8c-0.55-0.08-0.92-0.59-0.84-1.14
				C196.289,67.647,196.799,67.267,197.349,67.347z"/>
			<path style="fill:#C48723;" d="M149.234,449.361c-2.354-3.937-4.993-7.694-7.504-11.533c-1.81-2.769-3.554-5.582-5.229-8.434
				c1.274,1.962,0.193,4.52,0,6.852c-0.272,3.269,1.318,6.413,3.251,9.064c1.932,2.651,4.259,5.034,5.831,7.913
				c-3.708,0.668-7.037-2.175-9.733-4.808c-2.509-2.45-5.017-4.9-7.526-7.349c3.971,5.022,3.931,12.805,8.987,16.732
				c2.546,1.978,6.088,2.67,8.061,5.219c-3.43,1.043-5.917,4.067-9.231,5.437c-5.153,2.13-11.124-0.121-16.578,1.039
				c1.89,1.746,3.599,3.686,5.095,5.78c1.339,1.874,3.076,3.725,2.657,6.152c-0.181,1.05-0.544,2.075-0.578,3.14
				c-0.062,1.97,1.004,3.859,0.866,5.825c-0.096,1.371-0.767,2.624-1.373,3.857c-1.502,3.057-2.693,6.289-3.239,9.651
				c-0.05,0.31-0.066,0.692,0.194,0.867c0.137,0.093,0.314,0.096,0.48,0.092c0.989-0.025,1.966-0.205,2.946-0.335
				c2.783-0.37,5.62-0.338,8.395,0.094c1.877,0.292,3.823,0.763,5.639,0.207c0.207-0.063,0.415-0.143,0.576-0.287
				c0.201-0.181,0.307-0.442,0.406-0.694c4.21-10.744,7.387-21.849,11.729-32.514c0.936-2.3,2.334-4.848,2.351-7.395
				c0.015-2.276-1.206-4.465-2.152-6.466c-0.668-1.414-1.37-2.812-2.107-4.192C150.971,452.383,149.234,450.325,149.234,449.361z"/>
			<path style="fill:#C48723;" d="M184.838,457.463c-0.186,0.506-0.385,1.006-0.648,1.454c-0.487,0.83-0.991,1.65-1.539,2.441
				c-1.08,1.558-2.345,3.014-3.919,4.09c-2.15,1.469-4.733,2.145-7.279,2.696c-2.12,0.459-4.255,0.849-6.4,1.169
				c1.607,3.505,3.213,7.009,4.82,10.514c0.691,1.507,1.396,3.084,1.33,4.74c-4.285-3.018-7.664-7.537-12.637-9.192
				c-1.915-0.637-3.951-0.801-5.963-0.956c0.565,0,2.376-7.259,2.818-8.041c1.004-1.774,3.922-1.22,5.774-1.435
				c2.738-0.318,5.566-0.737,8.234-1.389c2.642-0.645,5.133-1.791,7.505-3.102c2.636-1.457,5.149-3.126,7.759-4.628
				c0.204-0.117,0.509-0.212,0.634-0.013c0.077,0.124,0.024,0.284-0.031,0.419C185.133,456.629,184.99,457.048,184.838,457.463z"/>
			<path style="fill:#C48723;" d="M305.633,473.416c-15.923,5.883-32.622,10.643-49.587,10.067
				c-7.773-0.264-15.459-1.646-23.108-3.052c-18.772-3.452-37.512-7.078-56.217-10.877c6.721,6.355,14.785,11.013,22.646,15.887
				c7.553,4.684,15.293,9.445,23.973,11.355c7.577,1.667,15.446,1.064,23.181,0.453c12.715-1.005,26.024-2.204,36.724-9.146
				c3.891-2.524,7.328-5.752,11.443-7.891c3.615-1.879,7.775-2.939,10.703-5.771C305.744,474.1,306.069,473.639,305.633,473.416z"/>
			<path style="fill:#C48723;" d="M335.366,458.306c-1.068,0.739-2.149,1.459-3.262,2.128c-3.783,2.273-7.914,3.93-11.595,6.379
				c-1.538,1.024-2.715,1.805-4.41,2.466c-1.799,0.702-3.604,1.913-4.949,3.293c-0.284,0.291-0.57,0.652-0.525,1.056
				c0.065,0.585,0.743,0.859,1.312,1.009c9.514,2.504,19.308,3.944,29.14,4.282c-1.309-1.618-3.236-2.587-4.867-3.879
				c-1.632-1.292-3.074-3.228-2.733-5.281c0.302-1.824,1.882-3.11,3.238-4.368c3.336-3.095,6.054-6.478,7.111-10.997
				c0.094-0.403,0.131-0.92-0.222-1.136c-0.309-0.189-0.704-0.008-1.015,0.175C340.085,454.907,337.755,456.653,335.366,458.306z"/>
			<path style="fill:#C48723;" d="M373.61,431.349c0.273-0.816,0.872-1.821,1.7-1.586c0.323,0.091,0.561,0.364,0.739,0.648
				c0.61,0.971,0.719,2.171,0.698,3.318c-0.119,6.431-3.779,12.328-4.354,18.734c-0.139,1.546,0.219,3.53,1.73,3.887
				c1.12,0.264,2.181-0.575,2.979-1.403c1.727-1.792,3.207-3.821,4.384-6.014c-0.429,2.425-0.043,4.91,0.014,7.372
				c0.056,2.462-0.292,5.102-1.907,6.961c-2.073,2.387-5.985,3.236-6.889,6.266c-0.381,1.276-0.098,2.645,0.186,3.946
				c0.97,4.435,2.139,9.21,5.63,12.111c2.116,1.758,4.978,2.717,6.463,5.032c0.709,1.105,1.023,2.411,1.325,3.69
				c0.697,2.946,1.393,5.891,2.09,8.837c-5.43,1.339-11.278,2.657-16.485,0.616c0.776-3.145,0.8-6.432,0.546-9.662
				c-0.884-11.257-5.03-21.954-8.253-32.777c-0.148-0.496-0.295-1.004-0.273-1.521c0.026-0.628,0.299-1.215,0.563-1.785
				c2.054-4.443,3.851-9.005,5.381-13.655C371.3,440.043,372.168,435.666,373.61,431.349z"/>
			<path style="fill:#C48723;" d="M316.657,414.652c1.205-3.78,2.41-7.56,3.614-11.34c-6.569,11.34-18.874,18.075-31.139,22.691
				c-4.575,1.722-9.283,3.241-14.155,3.644c-5.655,0.467-11.333-0.586-17.005-0.425c6.465,1.823,13.032,3.281,19.66,4.366
				c5.556,0.909,11.225,1.556,16.807,0.822c8.76-1.152,16.7-5.605,25.142-8.213c-3.879,5.291-8.822,9.798-14.447,13.175
				c5.918-1.237,11.25-4.368,16.335-7.639c2.458-1.581,4.933-3.248,6.729-5.554c3.381-4.344,3.836-10.186,4.908-15.586
				c0.785-3.953,1.966-7.828,3.521-11.546c1.895,4.368,3.061,9.052,3.436,13.799c2.309-5.792,3.604-11.987,3.81-18.219
				c0.141-4.277-0.348-8.878-3.096-12.159c-0.957-1.143-2.34-2.362-3.778-2.848c-2.004-0.677-1.451,1.099-1.535,2.631
				c-0.17,3.093-0.71,6.164-1.581,9.136c-1.766,6.027-4.892,11.658-9.087,16.332C322.408,410.38,319.672,412.729,316.657,414.652z"
				/>
			<path style="fill:#C48723;" d="M228.533,454.655c1.305,1.796,2.838,3.413,4.365,5.025c3.321,3.504,6.643,7.008,9.964,10.513
				c-2.725-4.504-5.451-9.008-8.176-13.513c-0.86-1.421-1.741-2.902-1.916-4.554c-0.252-2.37,0.979-4.616,2.169-6.681
				c0.155-0.268,0.32-0.548,0.585-0.709c0.318-0.193,0.718-0.177,1.087-0.125c1.356,0.191,2.622,0.779,3.839,1.407
				c3.504,1.808,6.799,4.004,10.328,5.763c3.529,1.759,7.38,3.091,11.322,2.991c-4.061-3.262-8.143-6.538-12.656-9.139
				c-1.651-0.952-3.368-1.819-4.831-3.041c-1.462-1.222-2.674-2.87-2.921-4.759c-0.1-0.763-0.04-1.538,0.07-2.3
				c0.047-0.324,0.109-0.663,0.312-0.92c0.19-0.241,0.478-0.38,0.756-0.51c1.44-0.676,2.88-1.352,4.32-2.029
				c-3.048,0.219-6.062-0.576-9.073-1.096c-3.29-0.569-6.637-0.813-9.975-0.727c2.033,1.995,4.078,4.27,4.478,7.09
				c0.3,2.113-0.411,4.311-1.741,5.98c-1.33,1.669-3.24,2.828-5.285,3.439c-0.406,0.121-0.909,0.183-1.248,0.402
				C225.298,449.762,226.899,452.408,228.533,454.655z"/>
			<path style="fill:#C48723;" d="M324.535,368.797c-0.25,0.12-0.491,0.273-0.72,0.469c-1.61,1.377-2.792,3.416-4.339,4.914
				c-3.394,3.285-7.327,5.953-11.298,8.482c-2.627,1.673-5.284,3.3-7.968,4.88c-1.304,0.767-2.645,1.535-4.129,1.833
				c1.668-1.742,3.296-3.551,4.522-5.628c1.226-2.077,2.037-4.457,1.945-6.868c-3.487,4.748-7.147,9.65-12.337,12.436
				c-1.216,0.652-2.471,1.067-3.739,1.544c-1.345,0.506-2.621,1.349-3.932,1.954c-2.707,1.249-5.489,2.327-8.267,3.405
				c-2.92,1.132-5.778,2.697-8.89,2.896c-3.077,0.196-6.35,2.731-9.019,4.177c1.534,1.035,4.98,0.285,6.75,0.184
				c2.732-0.155,5.468-0.23,8.204-0.223c2.713,0.007,5.459,0.091,8.101-0.526c2.708-0.632,5.188-1.972,7.652-3.259
				c5.064-2.645,10.214-5.126,15.439-7.438c-0.996,4.044-2.664,7.922-4.916,11.425c3.559-2.248,7.119-4.497,10.678-6.745
				c2.286-1.444,4.601-2.912,6.428-4.906c2.137-2.332,3.492-5.259,5.27-7.876c1.761-2.593,3.952-4.893,6.456-6.779
				c1.1-0.828,2.29-1.591,3.631-1.908c1.34-0.317,2.863-0.125,3.898,0.783c0.374,0.328,0.709,0.542,0.919,0.993
				c0.576-0.525,0.542-1.428,0.443-2.201c-0.233-1.817-0.676-3.785-2.117-4.916c-0.97-0.761-2.243-1.012-3.472-1.107
				C328.047,368.663,326.11,368.045,324.535,368.797z"/>
			<path style="fill:#C48723;" d="M287.874,345.225c-0.361,1.268-0.313,2.615-0.172,3.925c0.276,2.567,0.896,5.084,1.514,7.591
				c0.928,3.764,1.855,7.528,2.783,11.292c0.108,0.438,0.231,0.902,0.562,1.209c0.643,0.596,1.675,0.302,2.472-0.062
				c1.887-0.861,3.681-1.927,5.339-3.174c-1.211,2.872-3.275,5.377-5.862,7.115c-1.309,0.879-2.78,1.595-3.761,2.83
				c-0.885,1.113-1.275,2.534-1.561,3.928c-0.469,2.28-0.719,4.606-0.745,6.934c-0.017,1.528,0.04,3.147-0.716,4.475
				c-0.714,1.254-2.056,2.037-3.436,2.46c-0.163,0.05-0.34,0.095-0.501,0.039c-0.255-0.09-0.357-0.39-0.412-0.655
				c-0.258-1.245-0.189-2.532-0.111-3.801c0.69-11.252,1.926-22.699-0.607-33.684c-0.689-2.991-1.656-5.93-2.007-8.978
				c-0.037-0.324-0.063-0.672,0.096-0.957c0.135-0.243,0.383-0.399,0.623-0.541c1.836-1.088,3.79-1.978,5.815-2.652
				c0.615-0.205,1.757-0.75,1.84,0.31C289.077,343.495,288.073,344.526,287.874,345.225z"/>
			<path style="fill:#C48723;" d="M247.975,390.677c-13.353-2.247-26.707-4.495-40.06-6.743c-1.202-0.202-2.418-0.409-3.54-0.888
				c-2.117-0.904-3.704-2.687-5.336-4.311c-3.592-3.577-7.721-6.613-12.206-8.976c4.574,5.287,9.285,10.829,11.062,17.59
				c0.242,0.921,0.458,1.916,1.145,2.576c0.415,0.399,0.961,0.631,1.508,0.813c4.09,1.357,8.725,0.302,12.737,1.874
				c-4.971,4.581-12.147,6.925-15.549,12.766c6.822-2.656,13.884-5.159,21.205-5.21c2.4-0.017,4.843,0.228,7.169-0.363
				c3.468-0.881,6.293-3.525,9.773-4.358c2.124-0.509,4.347-0.307,6.518-0.069c4.738,0.519,9.525,1.212,13.902,3.098
				c1.299,0.56,2.593,1.253,3.477,2.358c1.237-0.598,5.606-1.897,5.864-3.331c0.318-1.764-3.335-3.005-4.507-3.507
				C256.957,392.207,252.43,391.427,247.975,390.677z"/>
			<path style="fill:#C48723;" d="M199.503,372.034c1.143-0.943,2.798-0.804,4.233-1.171c1.543-0.394,2.848-1.388,4.227-2.183
				c1.38-0.795,3.015-1.414,4.542-0.963c1.882,0.556,3.056,2.572,4.943,3.11c1.034,0.294,2.138,0.099,3.209,0.186
				c0.968,0.078,5.606,1.884,4.773,3.442c-0.526,0.984-6.991-0.659-8.086-0.806C211.424,372.855,205.469,372.316,199.503,372.034z"
				/>
			<path style="fill:#C48723;" d="M173.423,430.46c-2.156-6.78-3.79-13.726-4.881-20.757c-0.278-1.793-0.52-3.638-0.129-5.41
				c0.439-1.984,1.631-3.705,2.797-5.369c1.518-2.166,3.098-4.391,5.342-5.789c1.551-0.967-0.477,4.49-0.603,4.919
				c-0.741,2.515-1.303,5.081-1.72,7.668c-0.841,5.216-1.094,10.511-1.07,15.789C173.175,424.495,173.28,427.478,173.423,430.46z"/>
			<path style="fill:#C48723;" d="M182.48,420.647c-1.283-2.699-2.568-5.406-3.517-8.24c-0.734-2.194-1.261-4.592-0.572-6.8
				c0.235-0.753,1.655-4.033,2.592-3.342c0.795,0.586,0.231,4.852,0.265,5.857C181.39,412.318,181.802,416.505,182.48,420.647z"/>
			<path style="fill:#C48723;" d="M169.945,386.51c-1.136-0.653-2.667-0.461-3.677-1.297c-0.195-0.161-0.372-0.379-0.379-0.632
				c-0.008-0.264,0.168-0.495,0.338-0.698c2.003-2.402,4.393-4.48,7.049-6.13c-0.379,0.236,0.505,6.14,0.534,6.882
				c0.074,1.881,0.492,4.842-0.303,6.558C171.827,390.438,171.695,387.516,169.945,386.51z"/>
			<path style="fill:#C48723;" d="M327.029,104.707c-1.17,1.76-2.48,3.42-3.94,4.97c-2.25-3.73-4.82-7.27-7.26-10.36
				c-0.16-0.4-0.46-0.75-0.85-1.05c-0.22-0.27-0.44-0.55-0.65-0.81c0.41-0.16,0.8-0.28,1.16-0.39c2.48-0.68,4.82-0.48,6.43,0.57
				c0.46,0.3,1.08,0.17,1.38-0.29c0.3-0.47,0.17-1.09-0.29-1.39c-2.86-1.86-6.27-1.31-8.05-0.81c-0.8,0.22-1.65,0.53-2.68,0.98
				c-0.89,0.39-1.77,0.83-2.62,1.26c-0.57,0.29-1.13,0.57-1.71,0.85c-4.73,2.27-9.78,3.69-14.99,4.22c-2.67,0.27-5.42,0.3-8.08,0.34
				c-3.27,0.04-6.65,0.08-9.97,0.55c-6.4,0.92-12.47,3.42-18.35,5.84c-6.48,2.67-13.18,5.43-20.16,5.93
				c-1.29,0.09-2.62,0.11-3.9,0.13c-2.86,0.04-5.82,0.08-8.66,0.91c-2.28,0.67-4.35,1.82-6.36,2.93c-1.32,0.73-2.69,1.48-4.08,2.08
				c-2.59,1.1-5.48,1.72-8.27,2.33c-2.78,0.6-5.66,1.23-8.32,2.33h-0.01l-0.01,0.01c-1.21,0.49-2.36,1.09-3.4,1.78
				c-0.46,0.3-0.59,0.93-0.28,1.39c0.12,0.19,0.3,0.31,0.51,0.38c-0.14,1.34,0.98,2.53,1.91,3.58c0.24,0.28,0.47,0.58,0.66,0.91
				v1.57c-3.4-3.25-7.56-5.65-12.04-7.02c-0.68-0.75-1.2-1.6-1.41-2.61c-0.53-2.47,1.07-5.02,3.24-6.32
				c2.17-1.29,4.78-1.59,7.31-1.68c2.52-0.1,5.09-0.04,7.52-0.75c5.49-1.58,9.4-6.79,14.94-8.2c4.44-1.13,9.08,0.38,13.66,0.47
				c6.37,0.13,12.52-2.53,17.81-6.07c4.1-2.75,8.09-6.16,12.98-6.8c5.47-0.72,11.29,1.84,16.68,0.47
				c5.42-1.37,10.54-4.86,16.34-4.22c0.06,0.01,0.12,0.01,0.18,0.02c0.68,0.09,1.34,0.23,2,0.39c2.17,0.54,4.29,1.32,6.5,1.26
				c3.42-0.09,6.43-2.15,9.27-4.06c1.42-0.96,2.92-1.91,4.5-2.59c0.75-0.33,1.53-0.6,2.31-0.76c0.85-0.2,1.72-0.28,2.6-0.21
				c2.57,0.2,4.93,1.65,6.65,3.57c1.32,1.49,2.34,3.3,2.62,5.27C330.319,98.817,328.829,101.997,327.029,104.707z"/>
			<path style="fill:#C48723;" d="M315.449,66.167c-0.68-0.23-1.39-0.39-2.14-0.44c-2.04-0.12-3.9,0.56-5.71,1.21l-0.56,0.2
				c-5.89,2.1-12.05,3.17-18.31,3.17h-0.1c-2.25-0.01-4.56-0.15-6.79-0.3c-3.64-0.22-7.41-0.46-11.14-0.1
				c-5.61,0.54-10.99,2.41-16.2,4.22c-1.53,0.53-3.06,1.06-4.59,1.56c-9.24,3.01-19.39,5.05-31.01,6.23l-1.8,0.18
				c-5.15,0.5-10.48,1.03-15.35,3.09c-2.75,1.16-5.29,2.78-7.73,4.35c-2.88,1.85-5.6,3.59-8.66,4.68c-1.46,0.51-3.03,0.88-4.55,1.23
				c-2.65,0.62-5.39,1.27-7.82,2.72c-0.22,0.13-0.43,0.27-0.64,0.42c0-1.54,0.07-3.08,0.21-4.61c8.05-2.89,13.67-10.83,21.49-14.65
				c8.55-4.17,18.6-2.94,28.1-3.51c8.57-0.51,17.05-2.57,24.9-6.05c6.96-3.08,13.54-7.31,21.02-8.7c8.49-1.57,17.15,0.66,25.76,1.21
				c6.13,0.38,12.85-0.42,17.96-3.5c0.29,0.25,0.56,0.5,0.82,0.77C314.149,61.117,315.579,63.587,315.449,66.167z"/>
			<path style="fill:#A38E5A;" d="M252.872,117.878c-3.182,1.866-4.516,5.834-4.678,9.52c-0.132,2.999,0.53,6.344,2.949,8.122
				c1.664,1.224,3.843,1.466,5.908,1.497c2.065,0.031,4.179-0.103,6.15,0.518c1.572,0.495,2.957,1.441,4.283,2.419
				c4.779,3.524,9.112,7.608,13.433,11.681c-4.93-0.478-9.378-3.042-14.091-4.567c-5.474-1.771-11.411-2.169-16.56-4.738
				c-2.162-1.079-4.133-2.518-6.32-3.544c-2.089-0.98-4.359-1.569-6.661-1.73c-0.329-0.023-0.707-0.063-0.895-0.334
				c-0.157-0.226-0.119-0.53-0.069-0.801c0.735-3.954,2.735-7.618,5.429-10.604c2.693-2.986,6.061-5.318,9.669-7.094
				c0.247-0.122,0.72,0.009,0.542,0.22c0,0.042-0.045,0.056-0.045,0.098"/>
			<path style="fill:#A38E5A;" d="M338.555,140.251c0-0.044,0.001-0.087,0.001-0.13c0.005-0.836,0.006-1.698-0.315-2.47
				c-0.349-0.842-0.521-1.602-0.996-2.407c-0.496-0.841-1.07-1.638-1.464-2.536c-0.05-0.114-0.104-0.233-0.205-0.306
				c-0.46-0.333-0.299,0.592-0.304,0.761c-0.012,0.488-0.092,0.973-0.215,1.444c-0.376,1.433-1.114,2.77-2.128,3.851
				c-0.965,1.028-2.158,1.813-3.377,2.521c-2.159,1.254-4.44,2.298-6.542,3.645c-2.103,1.347-4.058,3.044-5.218,5.256
				c3.333-2.399,7.074-4.231,11.013-5.392c1.744-0.514,3.523-0.898,5.274-1.386c0.917-0.255,1.824-0.539,2.713-0.879
				c0.692-0.264,1.428-0.252,1.663-1.069C338.539,140.862,338.552,140.556,338.555,140.251z"/>
			<path style="fill:#A38E5A;" d="M319.999,189.977c-1.15,0.51-2.63,0.41-3.94,0.19c-3.06-0.51-6.07-1.34-8.96-2.47
				c-0.85-0.33-1.7-0.69-2.4-1.27c-2.11,2.06-4.5,3.88-7.25,4.96c-2.62,1.03-5.59,1.33-8.28,0.5c0.84-1.2,1.63-2.5,2.39-3.87
				c0.07,0,0.16,0.01,0.22,0.01c0.23,0,0.44-0.01,0.63-0.03c2.64-0.28,7.45-1.55,9.9-3.9c1.57-1.49,2.53-3.22,3.11-4.69
				c0.82,1.84,2.06,4.04,3.78,5.61c1.63,1.49,4.46,1.81,6,1.86c0.82,0.04,1.71-0.21,2.76-0.76
				C318.599,187.497,319.279,188.787,319.999,189.977z"/>
			<path style="fill:#A38E5A;" d="M292.941,205.287c-0.598-0.402-1.218-0.781-1.897-1.021c-0.679-0.24-1.425-0.335-2.124-0.16
				c0.322,0.163,0.521,0.492,0.686,0.814c0.66,1.288,1.043,2.71,1.204,4.148c0.147,1.32,0.14,2.749,0.92,3.824
				c0.367,0.506,0.884,0.888,1.443,1.166c0.538,0.267,1.137,0.445,1.736,0.398c1.026-0.08,1.933-0.847,2.304-1.807
				c0.545-1.411-0.031-2.861-0.807-4.064C295.534,207.233,294.265,206.177,292.941,205.287z"/>
			<path style="fill:#A38E5A;" d="M315.961,208.023c-0.722,1.033-1.281,2.301-1.007,3.531c0.233,1.043,1.095,1.918,2.134,2.166
				c1.039,0.248,2.204-0.143,2.882-0.968c0.761-0.925,0.868-2.206,0.965-3.4c0.07-0.857,0.161-1.748,0.536-2.534
				c0.196-0.411,0.466-0.727,0.788-1.042c0.265-0.26,0.65-0.604,0.434-1.009c-0.405-0.759-1.784-0.323-2.383-0.127
				c-0.828,0.27-1.6,0.695-2.292,1.221C317.224,206.466,316.533,207.205,315.961,208.023z"/>
			<path style="fill:#A38E5A;" d="M330.854,216.938c-0.849,1.779-1.294,3.737-2.228,5.473c-0.609,1.13-1.414,2.144-2.026,3.272
				c-0.612,1.128-1.029,2.435-0.766,3.691c1.164-3.647,3.599-6.79,6.474-9.318c1.025-0.901,2.136-1.767,2.785-2.967
				c0.379-0.701,0.692-1.591,1.463-1.789c0.197-0.051,0.431-0.061,0.553-0.223c0.115-0.153,0.073-0.367,0.024-0.552
				c-0.361-1.36-0.847-2.687-1.451-3.959c-0.198-0.417-0.726-1.669-1.279-1.716c-0.582-0.049-0.474,1.337-0.527,1.674
				c-0.239,1.504-1.002,2.847-1.762,4.142C331.676,215.412,331.228,216.155,330.854,216.938z"/>
			<path style="fill:#A38E5A;" d="M265.22,216.662c0.78,1.879,2.152,3.458,3.683,4.798s3.231,2.468,4.858,3.689
				c1.381,1.036,2.709,2.141,3.981,3.309c0.865,0.794,1.703,1.618,2.512,2.468c0.405,0.425,0.802,0.857,1.193,1.296
				c0.195,0.219,0.388,0.44,0.58,0.663c0.151,0.175,0.394,0.361,0.408,0.606c0.01,0.177-0.421-0.238-0.447-0.26
				c-0.209-0.173-0.417-0.346-0.626-0.519c-0.417-0.346-0.834-0.692-1.252-1.038c-1.242-1.03-2.489-2.064-3.867-2.904
				c-2.806-1.71-6.065-2.564-8.882-4.258c-1.982-1.192-3.709-2.779-5.719-3.923c-2.01-1.144-4.48-1.818-6.638-0.986
				c0.159-0.061,0.405-0.762,0.499-0.931c0.185-0.334,0.376-0.664,0.572-0.991c0.4-0.667,0.821-1.321,1.264-1.961
				c0.868-1.255,1.818-2.454,2.839-3.588c1.031-1.145,2.137-2.223,3.308-3.224c0.433-0.37,1.146-1.011,1.286-0.022
				c0.101,0.711-0.24,1.628-0.296,2.354C264.333,213.073,264.511,214.953,265.22,216.662z"/>
			<path style="fill:#A38E5A;" d="M307.803,281.296c0.858,0.259,1.74,0.431,2.626,0.557c0.83,0.118,1.672,0.196,2.508,0.124
				c1.657-0.142,3.23-0.875,4.528-1.913c1.298-1.039,2.336-2.373,3.193-3.798c-2.424,1.021-5.019,1.836-7.643,1.643
				c-1.551-0.114-3.053-0.576-4.539-1.035c-1.569-0.485-3.137-0.969-4.706-1.454c-1.346-0.416-1.12,2.848-0.473,3.528
				C304.387,280.092,306.331,280.851,307.803,281.296z"/>
			<path style="fill:#A38E5A;" d="M317.858,303.564c-2.171,0.393-4.357,0.713-6.558,0.861c-4.662,0.314-9.338-0.145-13.988-0.603
				c2.115,1.715,4.812,2.578,7.509,2.953c4.563,0.634,9.232-0.039,13.651-1.34c2.198-0.647,4.348-1.449,6.465-2.324
				c1.049-0.434,2.089-0.886,3.126-1.347c0.59-0.263,2.439-0.755,2.602-1.396c-2.142,0.503-4.238,1.276-6.379,1.812
				C322.159,302.712,320.015,303.174,317.858,303.564z"/>
			<path style="fill:#49381D;" d="M207.604,264.104l50.458,47.813c0,0,3.917,5.667,8.417,7.417s18,7.167,27.917,7.167
				c9.917,0,14.667-0.25,14.667-0.25l-0.5,9.667l-21.583,7.417c0,0-27.75-5.417-34.083-13.833
				C246.562,321.083,207.604,264.104,207.604,264.104z"/>
			<polygon style="fill:#49381D;" points="205.979,207.292 221.479,227.042 222.479,265.167 214.354,232.042 			"/>
			<path style="fill:#49381D;" d="M320.149,108.767c-6.86,6.24-17.31,7.2-26.74,6.82c-10.08-0.41-20.66-1.79-29.88,2.33h-0.01
				c-3.94-0.85-7.45-1.21-10.13-0.73c-6.14,1.1-10.97,5.75-14.12,10.32c-1.97,0.05-3.96,0.03-5.93,0.13
				c-13.67,0.71-26.87,7.73-35.15,18.62v-11.04c8.61-6.47,17.69-12.79,28.23-14.75c5.56-1.04,11.3-0.8,16.85-1.88
				c8.65-1.7,16.39-6.5,24.9-8.8c7.92-2.14,16.24-2.06,24.42-2.68c7.69-0.58,15.61-1.91,22.1-6
				C316.519,103.457,318.409,106.047,320.149,108.767z"/>
			<g>
				<path style="fill:#131827;" d="M393.984,504.679c0.186-0.191,0.289-0.447,0.286-0.714c-0.37-29.418-14.869-90.921-15.016-91.539
					c-0.052-0.22-0.176-0.415-0.352-0.555l-42.515-33.578c0.204-3.171-0.099-5.668-0.916-7.411
					c-2.077-4.392-8.463-3.611-11.253-3.032c0.197-7.013,0.074-24.402-5.577-30.052c-1.657-1.658-4.545-2.307-8.774-1.999v-9.055
					c9.262-1.505,17.951-5.028,26.152-10.595c3.951-2.682,6.435-7.091,6.645-11.793c0.221-4.972,0.52-11.736,0.837-19.132
					c0.114-0.239,0.135-0.517,0.034-0.781c0.884-20.618,1.904-45.82,1.851-51.156c-0.018-1.794-0.423-3.82-1.066-5.924
					c0.183-2.035,1.877-20.611,3.257-27.685c0.252-1.295,0.398-2.705,0.462-4.178c5.356-5.068,7.347-12.868,8.075-18.418
					c0.878-0.093,1.873-0.364,2.677-1.025c0.878-0.709,1.471-2.023,1.625-3.604c0.128-1.309-0.048-3.081-0.93-4.135
					c-0.776-0.921-2.427-1.457-4.907-1.594c-0.902-0.432-1.878-0.791-2.902-1.098c0.488-1.004,0.743-2.127,0.743-3.418
					c0-1.48-0.301-4.087-0.872-6.996c0.085-0.054,0.173-0.103,0.241-0.183c1.501-1.792,2.958-3.784,3.454-6.209
					c0.599-2.93-0.372-5.906-1.155-8.301c0.294-0.595,0.6-1.193,0.917-1.8c1.236-2.369,2.515-4.818,2.897-7.573
					c0.167-1.193,0.115-2.205-0.159-3.095c-0.372-1.204-1.17-2.162-2.19-2.63c-1.638-0.752-3.416-0.13-4.781,0.494
					c-1.778,0.814-3.506,1.786-5.177,2.726c-2.994,1.685-5.836,3.27-8.972,4.062c-1.844-4.104-4.52-8.578-8.086-10.977
					c-0.569-2.048-1.367-4.125-2.326-6.19l6.331-9.61c0.89-1.351,1.898-2.882,2.194-4.701c0.344-2.116-0.349-4.181-1.088-6.113
					c-2.845-7.44-6.388-14.664-10.528-21.468c-1.449-2.382-3.311-5.011-5.773-6.565c0.441-2.996-0.771-6.35-3.308-8.938
					c-2.458-2.507-5.746-4.07-8.389-5.327c-12.15-5.777-24.453-11.077-36.567-15.75c-5.036-1.943-9.983-3.703-15.144-3.899
					c-4.948-0.188-9.77,1.075-14.438,2.295c-1.211,0.316-2.422,0.633-3.632,0.924c-7.5,1.802-15.335,2.666-22.912,3.502
					c-6.284,0.692-12.782,1.409-19.103,2.657c-4.645,0.917-9.767,2.416-12.539,6.574c-2.234,3.353-2.237,7.365-2.241,11.245
					c-0.002,2.296-0.004,4.67-0.482,6.831c-0.472,2.131-1.401,4.105-2.386,6.197c-0.267,0.567-0.534,1.136-0.792,1.706
					c-3.539,7.852-5.281,16.541-5.061,25.152c-3.224,3.281-4.828,8.185-3.915,12.711c0.718,3.556,2.74,6.553,4.696,9.451
					c1.022,1.514,2.064,3.069,2.906,4.683c-0.099,0.004-0.198,0.002-0.297,0.008c-11.864,0.634-21.717,8.22-27.892,14.471
					c-3.369,3.409-7.806,8.667-7.445,14.946c0.284,4.964,3.417,8.901,6.446,12.709c0.95,1.193,1.933,2.428,2.791,3.655
					c1.738,2.488,3.163,5.285,4.54,7.989c1.882,3.693,3.827,7.512,6.637,10.72c4.335,4.949,10.706,8.352,17.941,9.579
					c2.108,0.357,4.283,0.536,6.52,0.536c4.112-0.001,8.431-0.612,12.905-1.817v130.352c-2.104,0.192-3.667,0.537-4.76,1.049
					c-10.393,4.814-7.971,28.611-7.081,35.227c-2.209-0.403-6.375-0.617-8.752,2.741c-1.156,1.629-2.044,4.22-2.647,7.685
					l-53.699,44.809c-0.186,0.155-0.31,0.372-0.347,0.611l-13.157,82.967c-0.046,0.289,0.037,0.585,0.229,0.808
					c0.19,0.222,0.467,0.349,0.759,0.349c0.002,0,0.004,0,0.005,0l286.54-1.513C393.541,504.977,393.796,504.869,393.984,504.679z
					 M340.665,304.267c-0.182,4.076-2.339,7.899-5.77,10.228c-8.131,5.519-16.767,8.965-25.997,10.363
					c-0.012,0-0.021-0.007-0.033-0.007c-0.081,0-0.152,0.028-0.227,0.046c-12.592,1.852-26.291-0.109-41.34-5.881
					c-4.009-1.538-6.993-4.949-7.985-9.126c-1.316-5.545-3.262-14.147-5.078-23.719c17.728,4.696,33.77,7.05,48.312,7.05
					c14.367,0,27.273-2.298,38.904-6.883C341.153,293.264,340.875,299.566,340.665,304.267z M231.395,183.148
					c-0.034,0.149-0.034,0.304,0.001,0.453c0.051,0.213,5.287,20.987,32.981,23.523c-0.065,0.163-0.135,0.325-0.193,0.49
					c-2.218,1.324-14.233,9.5-16.457,32.257c-1.127,11.529,1.337,29.413,4.242,45.045c0.002,0.017,0.007,0.033,0.009,0.05
					c1.885,10.14,3.952,19.322,5.346,25.199l-49.21-46.982c-0.398-0.38-1.03-0.366-1.414,0.033
					c-0.381,0.399-0.366,1.032,0.033,1.414l52.47,50.094c1.702,2.769,4.262,4.963,7.38,6.16c11.654,4.47,22.527,6.708,32.728,6.708
					c2.907,0,5.756-0.193,8.557-0.557v8.961c-10.461,1.362-24.493,7.251-27.374,8.496c-7.347-4.35-61.638-15.239-82.307-14.377
					V135.219c8.613-6.473,17.691-12.793,28.23-14.753c5.561-1.035,11.303-0.798,16.854-1.883c8.651-1.691,16.39-6.492,24.899-8.796
					c7.919-2.143,16.238-2.06,24.419-2.68c7.689-0.583,15.613-1.913,22.103-6c4.382,5.599,9.062,12.607,11.366,19.375
					c-0.687-0.237-1.397-0.404-2.138-0.472c-5.683-0.514-10.465,2.219-14.682,4.63c-3.568,2.042-6.939,3.973-10.388,3.774
					c-3.002-0.171-9.087-2.267-15.529-4.484c-10.829-3.729-23.107-7.958-29.93-6.74c-10.374,1.847-17.025,13.845-18.103,18.471
					c-4.711-0.408-9.224,0.231-12.206,2.033c-5.492,3.315-7.51,8.604-7.709,20.214c-0.088,5.455,1.083,9.355,3.481,11.593
					c1.743,1.626,3.702,1.957,5.007,1.957c0.238,0,0.455-0.011,0.645-0.027l0.464-0.04c2.113-0.184,6.852-0.591,11.298-0.529
					c-0.008,0.288-0.007,0.579,0.017,0.875c0.068,0.847,0.266,1.622,0.563,2.299C234.719,176.26,232.232,179.496,231.395,183.148z
					 M238.02,175.698c0.099,0.088,0.197,0.176,0.303,0.252c1.077,0.77,2.428,1.062,3.577,1.15c1.252,9.22,5.96,24.066,23.15,26.634
					c0.39,0.057,0.764,0.095,1.139,0.134c-0.333,0.451-0.629,0.896-0.884,1.331c-25.646-1.993-31.276-19.53-31.906-21.837
					C234.152,180.388,236.187,177.666,238.02,175.698z M341.545,284.147c-23.346,9.477-52.054,9.428-87.717-0.15
					c-2.835-15.351-5.205-32.74-4.111-43.93c1.751-17.915,9.954-26.444,13.774-29.497c-0.281,2.421,0.097,4.868,1.145,6.998
					c0.175,0.354,0.529,0.559,0.898,0.559c0.148,0,0.299-0.033,0.44-0.103c0.496-0.244,0.699-0.844,0.456-1.339
					c-1.388-2.818-1.383-6.317,0.014-9.359c0.092-0.2,0.192-0.404,0.302-0.611c0.008-0.015,0.016-0.028,0.023-0.043
					c1.697-3.181,5.6-7.188,14.56-9.5c14.751-3.806,23.216,7.274,24.503,9.115v8.989c0,0.553,0.447,1,1,1c0.553,0,1-0.447,1-1
					v-8.981c1.094-1.522,7.563-9.94,15.244-7.583c4.326,1.328,7.562,4.039,8.875,7.439c0.972,2.516,0.795,5.197-0.487,7.358
					c-0.281,0.475-0.125,1.088,0.351,1.37c0.473,0.281,1.087,0.125,1.37-0.351c0.565-0.952,0.95-1.985,1.17-3.056
					c2.24,3.611,6.143,10.36,7.997,16.283c0.004,0.013,0.008,0.026,0.013,0.039c0.617,1.981,1.005,3.869,1.021,5.514
					C343.438,238.589,342.426,263.593,341.545,284.147z M302.308,184.096c1.572-1.493,2.531-3.219,3.112-4.686
					c0.819,1.841,2.059,4.037,3.781,5.61c1.626,1.482,4.455,1.802,5.998,1.86c0.822,0.038,1.708-0.217,2.763-0.765
					c3.314,7.151,7.615,11.743,12.642,13.532c-0.293,0.113-0.587,0.223-0.885,0.322c-1.683-1.364-3.726-2.456-6.056-3.172
					c-8.085-2.48-14.603,4.628-16.841,7.499c-2.264-2.813-8.998-9.868-19.52-9.899c1.531-1.874,2.95-4.011,4.26-6.381
					c0.068,0.002,0.152,0.011,0.217,0.011c0.233,0,0.442-0.012,0.626-0.034C295.045,187.714,299.861,186.444,302.308,184.096z
					 M292.654,185.941c1.047-2.108,2.019-4.372,2.899-6.812c2.154-0.68,5.131-1.421,8.429-1.698
					c-0.386,1.386-1.228,3.485-3.055,5.22C299.176,184.33,295.478,185.556,292.654,185.941z M306.723,177.319
					c2.789,0.013,5.701,0.425,8.475,1.533c0.597,1.934,1.246,3.745,1.946,5.431c-0.781,0.404-1.416,0.595-1.869,0.601
					c-2.127-0.081-3.893-0.582-4.725-1.34C308.644,181.803,307.375,179.032,306.723,177.319z M345.614,199.298
					c-1.065,5.458-2.278,17.261-2.896,23.701c-2.961-7.042-7.427-13.833-8.256-15.069c-0.117-0.838-0.327-1.677-0.645-2.499
					c-0.551-1.425-1.39-2.738-2.453-3.913c0.84-0.326,1.659-0.701,2.45-1.126c1.409,0.164,2.859,0.152,4.356-0.09
					c3.069-0.496,5.62-1.593,7.75-3.077C345.844,197.943,345.742,198.636,345.614,199.298z M353.882,168.611
					c0.123,0.062,0.259,0.097,0.398,0.103c2.242,0.102,3.382,0.546,3.675,0.893c0.325,0.389,0.591,1.425,0.471,2.654
					c-0.1,1.02-0.441,1.878-0.898,2.247c-0.645,0.531-1.638,0.618-2.219,0.618c-0.03,0-0.065-0.002-0.084-0.001
					c-0.508,0-0.935,0.381-0.993,0.887c-0.721,6.331-2.717,13.688-7.745,18.242c-0.051,0.037-0.1,0.072-0.143,0.118
					c-2.209,1.957-4.984,3.388-8.492,3.955c-9.227,1.487-15.014-5.818-18.569-14.102c-0.008-0.014-0.007-0.029-0.016-0.042
					c-0.001-0.002-0.003-0.003-0.004-0.005c-0.899-2.1-1.657-4.26-2.289-6.357c-0.085-0.284-0.291-0.515-0.564-0.631
					c-3.478-1.49-7.154-1.946-10.591-1.862c-0.18-0.115-0.396-0.176-0.614-0.168c-0.208,0.014-0.396,0.098-0.552,0.221
					c-4.073,0.243-7.729,1.189-10.188,1.997c-0.294,0.097-0.527,0.324-0.63,0.617c-1.694,4.79-4.685,11.508-9.32,16.559
					c-1.188,0.133-2.415,0.353-3.686,0.681c-6.434,1.66-10.479,4.193-13.024,6.751c-0.796-0.033-1.603-0.102-2.462-0.229
					c-15.588-2.329-20.331-15.282-21.564-25.738c-0.06-0.504-0.486-0.883-0.993-0.883c-0.987,0-2.361-0.141-3.298-0.81
					c-0.646-0.466-1.11-1.52-1.21-2.751c-0.1-1.232,0.181-2.406,0.701-2.926c0.459-0.465,2.054-0.99,5.149-1.075
					c0.122-0.004,0.242-0.029,0.355-0.076c15.556-6.429,48.916,1.348,52.4,2.189c0.222,0.141,0.491,0.19,0.752,0.133
					c2.383-0.524,5.002-0.626,7.506-0.515c0.003,0,0.005,0.001,0.008,0.001c0.004,0,0.008-0.001,0.012-0.001
					c3.382,0.152,6.55,0.695,8.632,1.131c0.318,0.067,0.652-0.026,0.891-0.25c0.057-0.054,0.106-0.113,0.148-0.178
					C318.909,168.943,342.706,163.09,353.882,168.611z M346.574,130.385c1.635-0.92,3.325-1.871,5.027-2.65
					c0.977-0.447,2.213-0.906,3.116-0.494c0.495,0.227,0.911,0.752,1.112,1.402c0.186,0.602,0.215,1.33,0.09,2.228
					c-0.336,2.412-1.479,4.604-2.69,6.925c-1.101,2.109-2.239,4.291-2.753,6.699c-0.115,0.54,0.228,1.071,0.768,1.187
					c0.07,0.016,0.141,0.022,0.21,0.022c0.462,0,0.877-0.321,0.977-0.791c0.113-0.527,0.261-1.043,0.435-1.553
					c0.458,1.667,0.754,3.405,0.415,5.061c-0.328,1.601-1.229,3.041-2.261,4.372c-1.32-5.536-3.537-11.349-6.496-12.362
					c-0.96-0.327-2.742-0.136-4.986,0.382c-0.329-1.195-1.031-3.539-2.125-6.247C340.699,133.68,343.683,132.012,346.574,130.385z
					 M337.598,141.309c-8.316,2.297-20.794,7.719-23.972,9.122c-0.505,0.224-0.733,0.814-0.511,1.319
					c0.224,0.504,0.813,0.734,1.319,0.511c9.865-4.355,26.59-10.905,29.445-9.936c3.378,1.157,6.539,14.373,6.539,19.886
					c0,1.139-0.253,2.091-0.74,2.908c-13.81-2.988-34.973,2.841-35.984,3.124c-0.077,0.021-0.149,0.052-0.217,0.089
					c-1.952-0.384-4.595-0.804-7.448-0.98c-0.258-1.939-0.64-3.891-1.155-5.816c-0.143-0.533-0.688-0.852-1.225-0.707
					c-0.533,0.143-0.85,0.69-0.707,1.225c0.462,1.728,0.813,3.478,1.059,5.218c-2.16-0.034-4.372,0.102-6.446,0.522
					c-2.595-0.646-36.941-8.976-53.668-2.213c-3.216,0.106-5.346,0.665-6.329,1.658c-0.409,0.409-0.727,0.974-0.949,1.627
					c-4.642-0.098-9.622,0.34-11.817,0.532l-0.46,0.04c-0.9,0.075-2.622-0.004-4.117-1.4c-1.939-1.809-2.924-5.301-2.846-10.096
					c0.185-10.793,1.949-15.644,6.743-18.536c2.615-1.58,7.142-2.2,11.943-1.657c0.022,0.002,0.041,0.013,0.064,0.013
					c0.009,0,0.018-0.005,0.027-0.005c3.819,0.444,7.804,1.624,11.135,3.653c7.527,4.596,34.222,11.604,35.354,11.9
					c0.536,0.134,1.08-0.181,1.221-0.715c0.14-0.534-0.181-1.081-0.715-1.221c-0.274-0.071-27.54-7.229-34.818-11.673
					c-3.192-1.944-7.133-3.227-11.064-3.807c0.973-3.982,7.339-15.111,16.476-16.737c6.323-1.121,18.853,3.193,28.93,6.662
					c6.861,2.363,12.788,4.404,16.066,4.59c4.023,0.226,7.661-1.842,11.494-4.035c4.153-2.376,8.444-4.839,13.507-4.373
					C331.875,122.742,336.572,137.67,337.598,141.309z M177.237,75.922c0.253-0.561,0.516-1.118,0.778-1.677
					c0.988-2.099,2.009-4.269,2.529-6.617c0.525-2.374,0.526-4.858,0.528-7.261c0.003-3.748,0.006-7.288,1.905-10.138
					c2.366-3.549,7.02-4.884,11.262-5.721c6.237-1.232,12.692-1.944,18.936-2.633c7.639-0.842,15.537-1.713,23.159-3.544
					c1.224-0.295,2.446-0.614,3.671-0.934c4.528-1.184,9.221-2.394,13.856-2.232c4.859,0.185,9.441,1.814,14.499,3.766
					c12.068,4.655,24.324,9.935,36.429,15.691c2.5,1.188,5.61,2.667,7.82,4.921c1.542,1.572,2.971,4.042,2.839,6.622
					c-0.676-0.233-1.388-0.391-2.145-0.436c-2.03-0.126-3.898,0.555-5.708,1.209l-0.556,0.199
					c-5.895,2.101-12.056,3.165-18.31,3.165c-0.034,0-0.068,0-0.102,0c-2.254-0.004-4.561-0.149-6.792-0.291
					c-3.64-0.229-7.405-0.469-11.134-0.109c-5.614,0.54-10.998,2.413-16.204,4.225c-1.529,0.532-3.058,1.064-4.592,1.563
					c-9.241,3.007-19.386,5.044-31.012,6.229l-1.793,0.179c-5.151,0.504-10.479,1.025-15.357,3.086
					c-2.751,1.162-5.282,2.787-7.729,4.357c-2.877,1.847-5.595,3.591-8.662,4.673c-1.458,0.514-3.028,0.882-4.546,1.237
					c-2.648,0.62-5.386,1.262-7.815,2.712c-0.221,0.132-0.433,0.278-0.646,0.423C172.378,90.805,174.041,83.01,177.237,75.922z
					 M172.792,121.296c-1.931-2.862-3.755-5.565-4.394-8.729c-0.975-4.828,1.389-10.163,5.619-12.687
					c2.162-1.29,4.632-1.869,7.246-2.481c1.57-0.367,3.193-0.748,4.755-1.298c3.287-1.16,6.23-3.049,9.077-4.876
					c2.377-1.525,4.835-3.104,7.428-4.199c4.598-1.941,9.77-2.447,14.773-2.938l1.801-0.179c11.769-1.199,22.049-3.266,31.428-6.316
					c1.547-0.504,3.088-1.04,4.63-1.576c5.095-1.773,10.362-3.606,15.738-4.124c3.569-0.342,7.253-0.109,10.816,0.115
					c2.262,0.144,4.6,0.291,6.914,0.295c0.035,0,0.07,0,0.105,0c6.484,0,12.871-1.104,18.982-3.28l0.564-0.203
					c1.693-0.612,3.295-1.188,4.908-1.094c3.672,0.222,6.325,3.836,8.226,6.96c4.079,6.702,7.567,13.815,10.37,21.144
					c0.668,1.747,1.245,3.45,0.98,5.077c-0.227,1.397-1.072,2.682-1.89,3.923l-5.68,8.622c-2.633-5.099-6.107-10.023-9.364-14.136
					c-0.16-0.396-0.462-0.752-0.847-1.052c-0.218-0.269-0.439-0.548-0.654-0.809c0.416-0.154,0.801-0.28,1.168-0.382
					c2.475-0.686,4.814-0.479,6.424,0.565c0.465,0.302,1.083,0.169,1.384-0.294c0.301-0.464,0.169-1.083-0.294-1.384
					c-2.862-1.859-6.27-1.309-8.05-0.814c-0.797,0.222-1.646,0.532-2.675,0.977c-0.898,0.392-1.777,0.837-2.628,1.267
					c-0.565,0.286-1.129,0.571-1.704,0.844c-4.735,2.276-9.781,3.698-14.995,4.226c-2.663,0.27-5.414,0.304-8.073,0.338
					c-3.27,0.042-6.649,0.085-9.971,0.556c-6.401,0.919-12.477,3.419-18.351,5.837c-6.481,2.667-13.184,5.426-20.162,5.932
					c-1.285,0.092-2.616,0.109-3.904,0.126c-2.857,0.038-5.813,0.077-8.654,0.91c-2.277,0.675-4.352,1.82-6.359,2.929
					c-1.324,0.73-2.693,1.486-4.077,2.077c-2.596,1.104-5.483,1.729-8.274,2.335c-2.785,0.604-5.664,1.229-8.322,2.329
					c-0.003,0.001-0.005,0.003-0.007,0.004c-0.003,0.001-0.006,0.003-0.009,0.004c-1.215,0.497-2.359,1.096-3.401,1.783
					c-0.461,0.305-0.588,0.925-0.284,1.386c0.126,0.191,0.309,0.318,0.51,0.388c-0.135,1.337,0.988,2.529,1.911,3.575
					c0.245,0.278,0.472,0.586,0.66,0.908v1.578c-5.333-5.1-12.551-8.119-19.932-8.362
					C175.294,125.036,174.033,123.133,172.792,121.296z M177.094,199.201c-6.781-1.15-12.737-4.319-16.77-8.925
					c-2.645-3.02-4.448-6.561-6.358-10.309c-1.408-2.765-2.865-5.624-4.684-8.226c-0.893-1.279-1.895-2.539-2.864-3.757
					c-2.966-3.726-5.768-7.247-6.016-11.578c-0.239-4.173,1.944-8.439,6.872-13.425c5.927-6.001,15.35-13.279,26.576-13.879
					c0.482-0.027,0.964-0.038,1.446-0.039c0.112,0.042,0.229,0.072,0.35,0.072c0.094,0,0.188-0.03,0.281-0.057
					c7.359,0.166,14.627,3.325,19.734,8.666c0.146,0.153,0.332,0.231,0.524,0.27v59.804
					C189.367,199.724,182.945,200.193,177.094,199.201z M142.488,504.302c2.971-11.329,10.259-28.736,13.338-35.883
					c1.276-2.977,1.066-6.415-0.56-9.195L138.985,431.2c-0.277-0.479-0.894-0.641-1.366-0.362c-0.478,0.277-0.641,0.889-0.362,1.366
					l16.282,28.027c1.309,2.237,1.477,5.004,0.45,7.399c-3.144,7.296-10.649,25.228-13.569,36.683l-32.518,0.172l12.914-81.434
					l51.712-43.152c-0.454,4.012-0.476,7.993-0.321,10.474c0.033,0.53,0.474,0.938,0.997,0.938c0.021,0,0.042-0.001,0.064-0.002
					c0.551-0.034,0.97-0.509,0.936-1.061c-0.182-2.911-0.121-7.958,0.646-12.602c0.546-3.31,1.367-5.809,2.374-7.228
					c2.23-3.153,6.913-1.954,7.88-1.671l10.288,7.039c0.457,0.313,1.078,0.194,1.39-0.261c0.312-0.455,0.195-1.078-0.261-1.39
					l-10.054-6.879c-0.503-3.452-3.974-29.623,5.802-34.151c1.009-0.472,2.686-0.788,4.981-0.939
					c20.813-1.354,78.895,10.854,82.445,14.192c3.111,2.928,3.272,28.499,2.64,44.381l-70.968,30.91
					c-4.267,1.858-6.948,6.225-6.673,10.866l2.528,42.307c-15.533-2.978-28.316-5.667-28.603-5.727
					c-0.535-0.112-1.071,0.233-1.185,0.773c-0.114,0.54,0.231,1.07,0.772,1.185c1.166,0.246,13.88,2.921,29.139,5.845l1.616,27.052
					L142.488,504.302z M373.263,503.083c2.094-17.304-5.404-35.283-8.057-40.973c1.852,0.319,4.694,0.725,7.181,0.725
					c0.763,0,1.493-0.038,2.15-0.129c4.591-0.634,5.853-5.477,5.903-5.683c0.134-0.534-0.19-1.074-0.725-1.21
					c-0.535-0.137-1.078,0.189-1.215,0.722c-0.039,0.153-0.997,3.742-4.237,4.19c-2.76,0.379-7.156-0.303-9.322-0.696
					c2.921-6.291,9.041-27.091,9.322-28.047c0.155-0.529-0.149-1.085-0.679-1.241c-0.528-0.153-1.086,0.148-1.241,0.679
					c-2.546,8.674-7.859,25.855-9.749,28.795c-0.06,0.093-0.097,0.195-0.123,0.3c-0.003,0.011-0.011,0.019-0.013,0.03
					c-0.003,0.016,0.002,0.032,0,0.048c-0.018,0.105-0.021,0.21-0.004,0.316c0.003,0.014,0.001,0.029,0.004,0.044
					c0.018,0.09,0.047,0.179,0.091,0.263c0.113,0.219,11.221,21.958,8.701,41.878l-160.283,0.847l-1.592-26.655
					c19.091,3.631,41.458,7.496,50.176,7.496c16.146,0,36.293-6.563,36.495-6.629c0.525-0.173,0.81-0.738,0.638-1.263
					c-0.173-0.525-0.739-0.811-1.263-0.638c-0.198,0.065-20.041,6.529-35.87,6.529c-8.548,0-31.148-3.924-50.3-7.57l-2.558-42.814
					c-0.226-3.807,1.975-7.389,5.476-8.913l71.542-31.16c0.351-0.153,0.584-0.493,0.6-0.875c0.169-4.025,1.442-37.558-2.434-45.371
					c3.905-1.649,17.543-7.181,27.098-8.202c4.097-0.433,6.947,0.027,8.255,1.336c4.353,4.354,5.387,18.815,4.949,29.863
					l-0.014,0.271l-7.438,8.234c-0.37,0.409-0.338,1.042,0.072,1.412c0.191,0.173,0.431,0.258,0.67,0.258
					c0.272,0,0.545-0.111,0.742-0.33l7.675-8.497c0.125-0.139,0.196-0.313,0.229-0.495c1.989-0.448,7.989-1.493,9.548,1.806
					c0.702,1.499,0.944,3.899,0.698,6.945c-0.297,3.976-1.297,7.772-1.308,7.811c-0.142,0.533,0.176,1.081,0.71,1.223
					c0.086,0.023,0.173,0.034,0.258,0.034c0.441,0,0.847-0.295,0.966-0.743c0.037-0.137,0.774-2.939,1.185-6.332l41.217,32.553
					c1.148,4.907,14.215,61.34,14.864,89.758L373.263,503.083z"/>
				<path style="fill:#131827;" d="M193.776,157.614c-0.142-0.127-0.288-0.258-0.432-0.394c-1.251-1.188-2.587-2.315-3.972-3.349
					c-2.739-2.044-5.703-3.757-8.81-5.091c-4.683-2.012-9.099-2.875-13.141-2.564c-4.957,0.382-9.346,2.585-12.04,6.044
					c-2.762,3.546-3.804,8.636-2.788,13.615c0.841,4.126,3.003,8.247,6.425,12.249c0.358,0.42,0.992,0.468,1.409,0.11
					c0.42-0.358,0.47-0.99,0.11-1.409c-3.198-3.742-5.212-7.561-5.985-11.351c-0.697-3.421-0.302-6.873,1.026-9.696
					c0.585-0.748,1.267-1.419,2.06-1.977c1.862-1.312,4.181-1.962,6.454-1.807c0.91,0.062,1.88,0.287,2.48,0.974
					c1.199,1.372,0.256,3.597,0.636,5.334c-0.128,1.068-0.192,2.145-0.17,3.225c0.102,5.191,1.952,10.277,5.207,14.322
					c0.198,0.245,0.487,0.373,0.78,0.373c0.22,0,0.441-0.072,0.626-0.221c0.431-0.347,0.498-0.976,0.152-1.406
					c-2.979-3.702-4.672-8.356-4.766-13.107c-0.066-3.318,0.666-6.611,2.07-9.6c0.412,0.119,0.857,0.192,1.24,0.249
					c3.705,0.551,7.163,1.673,10.306,3.761c1.689,1.122,3.232,2.466,4.562,3.999c0.452,0.521,0.897,1.098,1.001,1.78
					c0.274,1.796-1.857,3.362-1.786,5.058c-1.097,1.991-1.708,4.249-1.694,6.522c0.026,4.548,2.557,9.011,6.447,11.371
					c0.162,0.098,0.341,0.145,0.518,0.145c0.338,0,0.668-0.171,0.856-0.481c0.286-0.472,0.136-1.087-0.337-1.374
					c-3.31-2.007-5.462-5.804-5.484-9.672c-0.023-3.869,2.084-7.691,5.367-9.736c0.155-0.097,0.314-0.189,0.471-0.283
					c0.574-0.339,1.167-0.69,1.693-1.205c0.697-0.682,1.029-1.352,1.014-2.046C195.259,158.939,194.471,158.235,193.776,157.614z"/>
				<path style="fill:#131827;" d="M296.473,206.393c-1.414-1.442-3.304-2.408-5.301-2.709c-0.297-0.045-2.019-0.163-1.513,0.581
					c0.157,0.232,0.664,0.311,0.904,0.472c0.319,0.213,0.596,0.49,0.816,0.803c0.507,0.724,0.732,1.608,0.851,2.484
					c0.086,0.634,0.122,1.275,0.259,1.9c0.137,0.625,0.385,1.244,0.832,1.701c0.373,0.381,0.863,0.628,1.372,0.786
					c0.442,0.137,0.913,0.212,1.37,0.136c0.835-0.138,1.538-0.787,1.848-1.575c0.31-0.788,0.256-1.689-0.036-2.483
					C297.582,207.694,297.065,206.998,296.473,206.393z"/>
				<path style="fill:#131827;" d="M320.522,203.975c-1.866,0.281-3.632,1.184-4.953,2.531c-0.554,0.565-1.036,1.215-1.31,1.957
					c-0.273,0.742-0.323,1.584-0.034,2.321c0.29,0.736,0.946,1.343,1.727,1.472c0.427,0.071,0.867,0.001,1.28-0.127
					c0.475-0.148,0.934-0.379,1.283-0.734c0.418-0.427,0.65-1.005,0.777-1.589c0.128-0.584,0.161-1.183,0.242-1.775
					c0.111-0.818,0.321-1.645,0.795-2.321c0.205-0.293,0.465-0.552,0.762-0.75c0.224-0.15,0.698-0.224,0.845-0.441
					C322.409,203.822,320.8,203.933,320.522,203.975z"/>
				<path style="fill:#131827;" d="M251.16,431.141l-24.694-1.726c-0.058-0.003-0.11,0.017-0.166,0.024
					c-0.736-0.183-1.501-0.292-2.293-0.292c-5.236,0-9.496,4.261-9.496,9.497c0,5.056,3.975,9.19,8.963,9.469l4.765,6.647
					c0.195,0.272,0.502,0.417,0.813,0.417c0.201,0,0.405-0.061,0.582-0.188c0.448-0.321,0.552-0.946,0.23-1.396l-4.039-5.633
					c4.369-0.851,7.678-4.703,7.678-9.317c0-2.742-1.175-5.209-3.04-6.944l20.558,1.437c0.023,0.001,0.047,0.002,0.07,0.002
					c0.52,0,0.96-0.403,0.997-0.931C252.126,431.658,251.711,431.18,251.16,431.141z M231.503,438.645
					c0,4.134-3.363,7.496-7.497,7.496c-4.134,0-7.496-3.362-7.496-7.496s3.362-7.497,7.496-7.497
					C228.14,431.148,231.503,434.511,231.503,438.645z"/>
				<path style="fill:#131827;" d="M247.229,447.548l-10.157-6.174c-0.472-0.287-1.087-0.137-1.374,0.335
					c-0.287,0.472-0.137,1.087,0.335,1.374l10.157,6.174c0.162,0.099,0.342,0.146,0.519,0.146c0.338,0,0.667-0.171,0.855-0.481
					C247.851,448.451,247.701,447.836,247.229,447.548z"/>
				<path style="fill:#131827;" d="M130.101,474.915c0.087,0.483,0.508,0.821,0.982,0.821c0.06,0,0.119-0.005,0.18-0.017
					c8.169-1.484,19.656-9.691,20.142-10.04c0.448-0.322,0.551-0.946,0.229-1.396c-0.324-0.448-0.948-0.549-1.396-0.229
					c-0.115,0.083-11.606,8.292-19.331,9.697C130.362,473.851,130.001,474.372,130.101,474.915z"/>
				<path style="fill:#131827;" d="M197.237,109.224c0.12,0.445,0.524,0.739,0.965,0.739c0.087,0,0.174-0.011,0.262-0.034
					c0.533-0.144,0.849-0.692,0.705-1.227c-0.893-3.308-2.527-6.447-4.729-9.077c-0.353-0.423-0.985-0.481-1.408-0.125
					c-0.424,0.354-0.479,0.984-0.125,1.408C194.922,103.318,196.42,106.193,197.237,109.224z"/>
				<path style="fill:#131827;" d="M228.326,107.728c-0.146,0.532,0.167,1.083,0.699,1.229c0.089,0.024,0.178,0.036,0.266,0.036
					c0.438,0,0.842-0.291,0.963-0.735c1.116-4.064,0.221-8.278-0.569-11.996c-0.115-0.541-0.646-0.887-1.187-0.771
					c-0.54,0.115-0.885,0.646-0.77,1.187C228.47,100.172,229.312,104.132,228.326,107.728z"/>
				<path style="fill:#131827;" d="M260.602,79.9c0.013,0.017,0.024,0.033,0.035,0.052c0.482,0.789,0.85,1.64,1.093,2.529
					c0.122,0.444,0.524,0.736,0.964,0.736c0.088,0,0.177-0.012,0.265-0.035c0.532-0.146,0.847-0.695,0.701-1.229
					c-0.293-1.07-0.735-2.095-1.315-3.045c-0.285-0.466-0.827-0.994-1.494-1.084c-0.435-0.06-0.847,0.075-1.163,0.374
					c-0.401,0.379-0.42,1.012-0.041,1.414C259.9,79.882,260.268,79.979,260.602,79.9z"/>
				<path style="fill:#131827;" d="M258.834,95.413c0.087,0.483,0.508,0.823,0.983,0.823c0.059,0,0.118-0.005,0.178-0.016
					c0.543-0.098,0.905-0.617,0.808-1.161c-0.357-1.992-0.855-3.979-1.477-5.907c-0.169-0.524-0.73-0.815-1.259-0.644
					c-0.525,0.169-0.814,0.732-0.644,1.259C258.018,91.608,258.492,93.508,258.834,95.413z"/>
				<path style="fill:#131827;" d="M293.242,95.816c-0.059,0.55,0.34,1.042,0.889,1.1c0.036,0.004,0.071,0.006,0.106,0.006
					c0.505,0,0.94-0.381,0.993-0.895c0.265-2.499,0.219-5.027-0.138-7.515c-0.08-0.547-0.59-0.928-1.132-0.849
					c-0.547,0.079-0.927,0.585-0.849,1.132C293.446,91.12,293.49,93.482,293.242,95.816z"/>
				<path style="fill:#131827;" d="M311.037,81.167c0.025,0.535,0.468,0.952,0.998,0.952c0.017,0,0.032,0,0.049-0.001
					c0.552-0.026,0.978-0.495,0.951-1.047c-0.096-1.994-0.785-3.989-1.941-5.616c-0.32-0.449-0.944-0.556-1.395-0.236
					c-0.45,0.32-0.556,0.944-0.236,1.395C310.401,77.932,310.96,79.549,311.037,81.167z"/>
				<path style="fill:#131827;" d="M315.685,90.697c0.109,0.039,0.222,0.057,0.331,0.057c0.413,0,0.8-0.258,0.943-0.669l0.962-2.739
					c0.184-0.521-0.091-1.092-0.611-1.275c-0.522-0.186-1.092,0.09-1.275,0.611l-0.962,2.741
					C314.89,89.944,315.164,90.514,315.685,90.697z"/>
				<path style="fill:#131827;" d="M280.629,86.934c0.031,0.531,0.472,0.941,0.997,0.941c0.021,0,0.04-0.001,0.061-0.002
					c0.551-0.032,0.972-0.506,0.939-1.058c-0.092-1.546-0.41-3.064-0.944-4.516c-0.192-0.519-0.768-0.783-1.284-0.593
					c-0.519,0.191-0.783,0.767-0.593,1.284C280.271,84.257,280.549,85.585,280.629,86.934z"/>
				<path style="fill:#131827;" d="M246.658,103.09c0.046,0,0.094-0.003,0.141-0.01c0.547-0.077,0.928-0.583,0.851-1.13l-0.54-3.838
					c-0.077-0.547-0.581-0.937-1.129-0.852c-0.547,0.077-0.929,0.582-0.852,1.129l0.54,3.84
					C245.739,102.729,246.167,103.09,246.658,103.09z"/>
				<path style="fill:#131827;" d="M212.143,96.767c0.135,0.427,0.529,0.699,0.954,0.699c0.1,0,0.201-0.015,0.301-0.046
					c0.527-0.167,0.819-0.729,0.653-1.255c-0.414-1.312-1.02-2.55-1.8-3.681c-0.314-0.455-0.937-0.567-1.392-0.255
					c-0.454,0.313-0.568,0.937-0.255,1.392C211.272,94.588,211.789,95.646,212.143,96.767z"/>
				<path style="fill:#131827;" d="M208.647,116.326c-0.009,0.552,0.432,1.007,0.984,1.016c0.005,0,0.011,0,0.016,0
					c0.545,0,0.991-0.438,1-0.984c0.018-1.13-0.324-2.266-0.963-3.198c-0.313-0.454-0.935-0.571-1.391-0.26
					c-0.455,0.313-0.571,0.935-0.26,1.391C208.441,114.883,208.658,115.606,208.647,116.326z"/>
				<path style="fill:#131827;" d="M180.517,113.853c0.162,0.38,0.531,0.607,0.92,0.607c0.131,0,0.265-0.025,0.393-0.08
					c0.508-0.217,0.744-0.804,0.527-1.313c-0.574-1.346-1.081-2.737-1.507-4.137c-0.162-0.527-0.719-0.823-1.249-0.665
					c-0.528,0.161-0.825,0.721-0.665,1.249C179.383,110.982,179.915,112.441,180.517,113.853z"/>
				<path style="fill:#131827;" d="M189.896,123.76c0.176,0.349,0.528,0.55,0.895,0.55c0.151,0,0.305-0.034,0.449-0.106
					c0.493-0.249,0.691-0.85,0.443-1.344l-1.022-2.024c-0.25-0.493-0.852-0.691-1.344-0.441c-0.493,0.249-0.69,0.852-0.441,1.344
					L189.896,123.76z"/>
				<path style="fill:#131827;" d="M249.281,171.801c0.195,7.287,2.395,22.268,16.97,24.439c0.85,0.126,1.686,0.191,2.486,0.191
					c0.001,0,0,0,0.001,0c11.518,0,17.692-14.298,20.33-22.726c-6.796-1.35-17.768-3.159-27.778-3.159
					C255.758,170.546,251.921,171.1,249.281,171.801z"/>
				<path style="fill:#131827;" d="M335.389,193.737C335.39,193.737,335.389,193.737,335.389,193.737
					c0.606,0.007,1.239-0.042,1.883-0.146c11.046-1.783,12.859-14.926,13.079-21.327c-1.99-0.639-4.887-1.158-9.071-1.205
					c-7.572-0.085-15.889,1.41-21.044,2.538C322.148,181.025,326.677,193.639,335.389,193.737z"/>
				<path style="fill:#131827;" d="M221.792,225.979l-13.523-18.091c-0.33-0.441-0.957-0.534-1.399-0.202
					c-0.442,0.33-0.533,0.957-0.202,1.399l13.342,17.85l1.811,32.408c0.029,0.532,0.471,0.944,0.997,0.944
					c0.018,0,0.038-0.001,0.057-0.002c0.552-0.03,0.974-0.502,0.942-1.054l-1.828-32.71
					C221.979,226.326,221.91,226.136,221.792,225.979z"/>
				<path style="fill:#131827;" d="M207.857,383.826c-0.1,0.543,0.259,1.064,0.803,1.164l44.679,8.224
					c0.061,0.012,0.122,0.017,0.182,0.017c0.474,0,0.894-0.337,0.982-0.819c0.1-0.543-0.259-1.064-0.803-1.164l-44.679-8.224
					C208.479,382.921,207.956,383.283,207.857,383.826z"/>
				<path style="fill:#131827;" d="M291.073,392.408c0.134,0,0.27-0.027,0.401-0.084l11.238-4.935
					c0.506-0.223,0.735-0.813,0.514-1.318c-0.223-0.506-0.811-0.733-1.318-0.514l-11.238,4.935
					c-0.506,0.223-0.735,0.813-0.514,1.318C290.321,392.185,290.688,392.408,291.073,392.408z"/>
				<path style="fill:#131827;" d="M197.045,69.328c3.501,0.534,7.038,0.799,10.576,0.799c7.767,0,15.531-1.277,22.886-3.795
					c0.522-0.179,0.801-0.748,0.622-1.271c-0.18-0.523-0.749-0.8-1.271-0.622c-10.399,3.561-21.644,4.565-32.513,2.912
					c-0.546-0.084-1.057,0.292-1.139,0.838C196.124,68.735,196.499,69.245,197.045,69.328z"/>
				<path style="fill:#131827;" d="M257.39,53.665c0.178,0,0.358-0.047,0.521-0.147c3.469-2.122,6.19-5.378,7.664-9.169
					c0.2-0.515-0.055-1.094-0.569-1.294c-0.515-0.202-1.094,0.054-1.294,0.569c-1.316,3.385-3.747,6.293-6.844,8.188
					c-0.472,0.288-0.62,0.903-0.331,1.374C256.725,53.495,257.053,53.665,257.39,53.665z"/>
				<path style="fill:#131827;" d="M201.218,372.999c6.485,0.597,13.053,1.317,19.521,2.142c0.021,0.003,0.043,0.004,0.064,0.004
					c0.248,0,0.463-0.185,0.495-0.436c0.035-0.274-0.159-0.524-0.433-0.56c-6.48-0.825-13.061-1.547-19.557-2.146
					c-0.27-0.021-0.519,0.177-0.544,0.452C200.74,372.73,200.943,372.973,201.218,372.999z"/>
				<path style="fill:#131827;" d="M198.208,387.139c0.055,0.229,0.26,0.384,0.486,0.384c0.038,0,0.077-0.004,0.116-0.014
					c0.269-0.064,0.435-0.334,0.37-0.603c-0.441-1.85-1.466-3.566-2.885-4.834c-0.207-0.183-0.522-0.166-0.706,0.04
					c-0.184,0.206-0.166,0.521,0.04,0.706C196.898,383.952,197.814,385.486,198.208,387.139z"/>
				<path style="fill:#131827;" d="M172.939,425.715c0.005,0,0.011,0,0.016,0c0.269,0,0.491-0.214,0.5-0.484
					c0.3-9.34,1.381-18.722,3.213-27.886c0.054-0.27-0.121-0.534-0.393-0.588c-0.266-0.057-0.533,0.12-0.588,0.393
					c-1.843,9.217-2.931,18.654-3.232,28.05C172.446,425.474,172.662,425.706,172.939,425.715z"/>
				<path style="fill:#131827;" d="M181.507,413.106c0.005,0,0.011,0,0.016,0c0.276-0.009,0.493-0.24,0.484-0.516l-0.24-7.491
					c-0.01-0.275-0.25-0.476-0.516-0.484c-0.276,0.009-0.493,0.24-0.484,0.516l0.24,7.491
					C181.016,412.892,181.238,413.106,181.507,413.106z"/>
				<path style="fill:#131827;" d="M135.806,450.125c-0.177,0.212-0.148,0.526,0.063,0.704c3.279,2.742,6.886,5.088,10.721,6.974
					c0.071,0.035,0.146,0.052,0.221,0.052c0.185,0,0.361-0.103,0.448-0.279c0.122-0.248,0.021-0.548-0.228-0.669
					c-3.763-1.851-7.303-4.153-10.521-6.845C136.301,449.885,135.984,449.911,135.806,450.125z"/>
				<path style="fill:#131827;" d="M146.154,474.345c-1.286,0.926-2.488,1.982-3.57,3.143c-0.189,0.201-0.178,0.517,0.024,0.706
					c0.096,0.09,0.219,0.135,0.341,0.135c0.134,0,0.267-0.054,0.365-0.159c1.038-1.111,2.19-2.125,3.424-3.012
					c0.225-0.161,0.275-0.474,0.114-0.698C146.691,474.235,146.378,474.184,146.154,474.345z"/>
				<path style="fill:#131827;" d="M162.845,466.539c0.052,0,0.104-0.008,0.156-0.025c6.573-2.158,13.013-4.885,19.139-8.104
					c0.244-0.128,0.339-0.431,0.21-0.675c-0.128-0.246-0.432-0.338-0.675-0.21c-6.077,3.193-12.465,5.898-18.986,8.04
					c-0.262,0.086-0.405,0.368-0.318,0.631C162.439,466.405,162.635,466.539,162.845,466.539z"/>
				<path style="fill:#131827;" d="M162.737,473.838c-0.221-0.166-0.534-0.124-0.7,0.097c-0.167,0.221-0.123,0.534,0.097,0.7
					c3.229,2.44,5.97,5.604,7.928,9.147c0.091,0.165,0.262,0.258,0.438,0.258c0.082,0,0.165-0.02,0.242-0.063
					c0.241-0.134,0.329-0.438,0.195-0.68C168.911,479.633,166.076,476.361,162.737,473.838z"/>
				<path style="fill:#131827;" d="M232.923,459.502c-0.199-0.191-0.516-0.186-0.707,0.012c-0.192,0.199-0.187,0.516,0.012,0.707
					c3.203,3.092,6.166,6.481,8.807,10.075c0.099,0.134,0.25,0.204,0.403,0.204c0.104,0,0.207-0.031,0.296-0.097
					c0.223-0.164,0.271-0.477,0.107-0.699C239.166,466.064,236.165,462.632,232.923,459.502z"/>
				<path style="fill:#131827;" d="M260.449,454.538l-5.479-2.013c-0.261-0.092-0.546,0.038-0.643,0.297
					c-0.095,0.26,0.038,0.547,0.297,0.643l5.482,2.013c0.057,0.021,0.114,0.03,0.172,0.03c0.204,0,0.396-0.125,0.47-0.328
					C260.842,454.921,260.709,454.634,260.449,454.538z"/>
				<path style="fill:#131827;" d="M309.206,416.32c-0.141-0.239-0.448-0.315-0.685-0.179c-7.174,4.207-14.962,8.462-23.294,11.091
					c-9.006,2.842-17.766,3.39-25.335,1.581c-0.27-0.069-0.539,0.103-0.603,0.37c-0.064,0.269,0.102,0.538,0.37,0.603
					c2.995,0.715,6.169,1.07,9.468,1.07c5.23,0,10.772-0.895,16.4-2.671c8.427-2.658,16.274-6.945,23.499-11.181
					C309.266,416.865,309.346,416.558,309.206,416.32z"/>
				<path style="fill:#131827;" d="M299.837,432.057l-12.977,2.731c-0.271,0.057-0.443,0.322-0.387,0.592
					c0.05,0.236,0.257,0.398,0.488,0.398c0.034,0,0.069-0.003,0.104-0.011l12.977-2.732c0.271-0.057,0.443-0.322,0.387-0.592
					C300.371,432.172,300.105,431.995,299.837,432.057z"/>
				<path style="fill:#131827;" d="M340.903,454.027l-30.761,18.744c-0.497,0.303-1.064,0.615-1.519,0.475
					c-0.264-0.086-0.544,0.066-0.625,0.33c-0.082,0.264,0.065,0.544,0.33,0.625c0.183,0.057,0.362,0.081,0.54,0.081
					c0.647,0,1.257-0.33,1.793-0.657l30.761-18.744c0.236-0.143,0.311-0.451,0.167-0.686
					C341.445,453.956,341.137,453.883,340.903,454.027z"/>
				<path style="fill:#131827;" d="M334.154,477.329l-7.676-0.716c-0.262-0.013-0.517,0.176-0.544,0.452
					c-0.025,0.274,0.177,0.519,0.452,0.544l7.676,0.716c0.016,0.001,0.031,0.002,0.047,0.002c0.255,0,0.473-0.194,0.497-0.454
					C334.631,477.598,334.429,477.354,334.154,477.329z"/>
				<path style="fill:#131827;" d="M374.541,420.511c-0.265-0.052-0.534,0.125-0.585,0.397c-0.154,0.808-0.608,1.573-1.241,2.099
					c-0.212,0.176-0.242,0.491-0.065,0.704c0.099,0.119,0.241,0.181,0.385,0.181c0.112,0,0.226-0.038,0.319-0.115
					c0.821-0.681,1.384-1.633,1.585-2.681C374.99,420.826,374.813,420.563,374.541,420.511z"/>
				<path style="fill:#131827;" d="M327.534,412.566c0.107,0,0.216-0.034,0.307-0.105c1.523-1.186,2.49-2.878,3.307-4.53
					c2.304-4.662,3.82-9.639,4.509-14.793c0.036-0.274-0.156-0.525-0.43-0.562c-0.273-0.05-0.525,0.154-0.563,0.429
					c-0.673,5.046-2.158,9.919-4.413,14.482c-0.764,1.546-1.659,3.123-3.023,4.185c-0.219,0.17-0.258,0.483-0.088,0.701
					C327.239,412.5,327.386,412.566,327.534,412.566z"/>
				<path style="fill:#131827;" d="M307.644,391.943c0.126,0,0.251-0.047,0.349-0.142l7.789-7.563
					c0.198-0.192,0.202-0.509,0.01-0.707c-0.191-0.197-0.508-0.203-0.707-0.01l-7.789,7.563c-0.198,0.192-0.202,0.509-0.01,0.707
					C307.383,391.892,307.513,391.943,307.644,391.943z"/>
				<path style="fill:#131827;" d="M294.897,372.13c0.083,0,0.167-0.021,0.244-0.063c3.047-1.707,5.657-4.16,7.549-7.095
					c0.15-0.231,0.083-0.541-0.15-0.69c-0.228-0.151-0.54-0.083-0.69,0.149c-1.804,2.797-4.293,5.136-7.197,6.763
					c-0.241,0.136-0.327,0.44-0.192,0.681C294.552,372.039,294.722,372.13,294.897,372.13z"/>
				<path style="fill:#131827;" d="M298.062,348.128c0.065,0,0.133-0.013,0.196-0.04c2.241-0.96,4.607-1.582,7.032-1.85
					c0.275-0.03,0.473-0.277,0.442-0.552c-0.03-0.275-0.288-0.477-0.552-0.442c-2.523,0.278-4.984,0.926-7.316,1.924
					c-0.254,0.109-0.372,0.403-0.264,0.656C297.683,348.014,297.868,348.128,298.062,348.128z"/>
				<path style="fill:#131827;" d="M280.609,231.173c-1.37-1.414-2.787-2.877-4.277-4.206c-0.577-0.516-1.18-0.895-1.885-1.338
					l-0.131-0.089c-0.22-0.152-0.494-0.344-0.834-0.373c-0.288-0.021-0.518,0.18-0.542,0.454c-0.025,0.275,0.18,0.518,0.454,0.542
					c0.075,0.007,0.248,0.127,0.352,0.198l0.236,0.156c0.602,0.379,1.169,0.735,1.684,1.195c1.463,1.305,2.867,2.754,4.225,4.156
					c0.653,0.674,1.306,1.348,1.966,2.007c0.098,0.098,0.226,0.146,0.353,0.146s0.256-0.049,0.354-0.146
					c0.195-0.195,0.195-0.512,0-0.707C281.906,232.512,281.258,231.843,280.609,231.173z"/>
				<path style="fill:#131827;" d="M329.263,220.99c-0.264,0.053-0.436,0.322-0.394,0.587c0.02,0.123-0.244,0.486-0.356,0.642
					c-0.09,0.125-0.173,0.24-0.23,0.34c-0.405,0.7-0.783,1.413-1.161,2.126c-0.422,0.797-0.844,1.593-1.305,2.37
					c-0.141,0.238-0.061,0.545,0.176,0.686c0.08,0.047,0.168,0.069,0.255,0.069c0.171,0,0.337-0.088,0.431-0.245
					c0.468-0.791,0.897-1.602,1.327-2.411c0.372-0.702,0.744-1.404,1.142-2.095c0.043-0.074,0.107-0.16,0.175-0.254
					c0.275-0.38,0.652-0.9,0.519-1.459C329.78,221.085,329.522,220.939,329.263,220.99z"/>
				<path style="fill:#131827;" d="M298.34,304.005c-0.04,0.273,0.15,0.527,0.422,0.568c2.957,0.435,5.951,0.651,8.947,0.651
					c6.196,0,12.402-0.925,18.305-2.751c0.264-0.081,0.412-0.361,0.33-0.625c-0.082-0.264-0.361-0.413-0.625-0.33
					c-8.615,2.664-17.886,3.38-26.811,2.065C298.628,303.551,298.381,303.732,298.34,304.005z"/>
				<path style="fill:#131827;" d="M317.243,279.689c-3.934,2.138-9.092,1.926-12.839-0.524c-0.229-0.152-0.54-0.09-0.691,0.145
					c-0.151,0.23-0.087,0.541,0.145,0.691c2.184,1.431,4.814,2.154,7.439,2.154c2.235,0,4.47-0.525,6.423-1.587
					c0.243-0.132,0.333-0.435,0.201-0.678C317.788,279.647,317.483,279.558,317.243,279.689z"/>
			</g>
			<path style="fill:#E5ECEF;" d="M265.562,172.958c0,0,6.083-0.458,10.833,1.417l-13.792,18.708c0,0-4.042-2.375-4.875-3.833
				l10.042-14.375l-0.625-0.25l-7.583,10.333l-1.167-0.25L265.562,172.958z"/>
			<path style="fill:#E5ECEF;" d="M334.645,172.708c0,0,6.625-0.792,9.333,0.125L333.02,192.25c0,0-3.542-1.583-4.417-3.375
				l7.667-14.583l-0.833,0.042l-4.583,8.292l-0.667-0.208L334.645,172.708z"/>
		</g>
	</g>
</g>
</svg>
