<?xml version="1.0" encoding="utf-8"?>
<!-- Generator: Adobe Illustrator 27.5.0, SVG Export Plug-In . SVG Version: 6.00 Build 0)  -->
<svg version="1.1" xmlns="http://www.w3.org/2000/svg" xmlns:xlink="http://www.w3.org/1999/xlink" x="0px" y="0px"
	 viewBox="0 0 500 500" style="enable-background:new 0 0 500 500;" xml:space="preserve">
<g id="BACKGROUND">
	<rect style="fill:#F75843;" width="500" height="500"/>
</g>
<g id="OBJECTS">
	<g>
		<defs>
			<rect id="SVGID_1_" width="500" height="500"/>
		</defs>
		<clipPath id="SVGID_00000056405793982308478870000003916921253285232523_">
			<use xlink:href="#SVGID_1_"  style="overflow:visible;"/>
		</clipPath>
		<g style="clip-path:url(#SVGID_00000056405793982308478870000003916921253285232523_);">
			<g>
				<g>
					<path style="fill:none;stroke:#0B1011;stroke-linecap:round;stroke-linejoin:round;stroke-miterlimit:10;" d="M330.187,146.211
						c0.287-1.02,0.433-2.092,0.433-3.191c0-1.541-0.294-3.042-0.875-4.461c-1.824-4.458-6.116-7.339-10.935-7.339
						c-4.931,0-9.379,3.104-11.071,7.724c-0.484,1.31-0.729,2.68-0.729,4.076c0,1.297,0.211,2.58,0.627,3.81
						c1.629,4.784,6.12,8,11.172,8C324.089,154.831,328.768,151.286,330.187,146.211z M320.423,149.829
						c-4.243,0-7.683-3.44-7.683-7.683c0-4.243,3.44-7.683,7.683-7.683c4.243,0,7.683,3.44,7.683,7.683
						C328.106,146.389,324.667,149.829,320.423,149.829z"/>
					<g>
						<path style="fill:#E2C597;" d="M344.486,191.924l-0.051-0.094l-0.103-0.028c-0.942-0.256-1.947-0.386-2.988-0.386
							c-1.921,0-3.581,0.432-4.657,0.795l-0.061,0.036c-0.74,0.447-1.498,0.879-2.232,1.296l-0.353,0.201
							c-2.348,1.333-4.897,2.677-7.627,3.477c-0.02,0.006-0.038,0.009-0.056,0.009c-0.08,0-0.15-0.053-0.174-0.132
							c-0.03-0.098,0.024-0.198,0.124-0.228c2.704-0.842,5.19-2.211,7.475-3.564l0.798-0.477c2.089-1.247,4.249-2.536,6.061-4.151
							c0.415-0.364,0.806-0.756,1.162-1.162l0.08-0.092l-0.023-0.12c-0.031-0.165-0.014-0.324,0.052-0.471
							c2.379-5.174,2.78-9.617,1.191-13.204c-1.058-2.387-2.807-3.941-4.087-4.824c0,0-0.064-0.044-0.081-0.044
							c-0.257-0.136-0.539-0.274-0.839-0.408c-1.652-0.743-3.535-1.119-5.597-1.119c-0.743,0-1.51,0.05-2.278,0.15
							c-2.492,0.33-5.095,1.145-7.737,2.423c-2.691,1.307-4.804,2.946-6.28,4.873c-0.144,0.186-0.359,0.293-0.59,0.293
							c-0.166,0-0.324-0.055-0.458-0.158c-0.163-0.122-0.266-0.298-0.293-0.497c-0.027-0.198,0.026-0.394,0.148-0.552
							c1.658-2.08,3.972-3.819,6.888-5.176c2.787-1.297,5.537-2.107,8.173-2.408c0.715-0.08,1.431-0.12,2.128-0.12
							c0.917,0,1.82,0.07,2.685,0.209l0.416,0.067l-0.141-0.397c-1.229-3.463-2.831-12.461-1.897-21.862l0.087-0.872l-0.534,0.695
							l-0.5,0.651l-0.042,0.054l-0.008,0.068c-0.085,0.708-0.217,1.386-0.394,2.013c-1.221,4.365-4.544,7.814-8.891,9.228
							l-1.163,0.378l1.218,0.109c1.239,0.11,2.549,0.288,4.247,0.576c0.066,0.011,0.123,0.047,0.162,0.102
							c0.039,0.054,0.054,0.121,0.043,0.187c-0.02,0.121-0.124,0.208-0.246,0.208c0,0-0.044,0.112-0.078,0.115l0.017-0.123
							c-1.18-0.234-2.737-0.525-4.307-0.703c-1.011-0.131-2.025-0.198-2.794-0.242c-0.48,0.041-0.883,0.061-1.269,0.061
							c-0.578,0-1.178-0.044-1.835-0.133c-1.124,0.012-2.011,0.05-2.83,0.117c-1.723,0.146-3.095,0.356-4.319,0.66
							c1.216-0.353,2.55-0.595,4.306-0.795c0.07-0.008,0.142-0.013,0.214-0.018c0.066-0.005,0.132-0.009,0.197-0.016l1.183-0.117
							l-1.13-0.37c-4.028-1.318-7.249-4.502-8.616-8.516c-0.049-0.144-0.089-0.29-0.13-0.436l-0.05-0.176l-0.039-0.136l-0.137-0.036
							c-2.387-0.633-5.582-1.468-6.806-1.787l6.778-5.018l0.071-0.053l0.022-0.086c0.128-0.496,0.26-0.929,0.406-1.323
							c1.942-5.306,7.051-8.87,12.713-8.87c5.533,0,10.461,3.307,12.555,8.426c0.379,0.927,0.657,1.939,0.825,3.008l0.008,0.053
							l0.03,0.045l0.807,1.227l0.355,0.54l0.101-0.638c0.538-3.967,1.524-7.606,2.932-10.821c4.714-10.781,0.623-21.389-1.354-25.45
							l-0.026-0.054l-0.056-0.052l-0.054-0.041c-5.336-6.791-11.513-10.401-18.358-10.73c-0.34-0.016-0.679-0.024-1.016-0.024
							c-12.571,0-23.166,10.955-23.272,11.066c-0.047,0.049-0.112,0.077-0.181,0.077c-0.049,0-0.097-0.014-0.138-0.041
							c-0.158-0.104-16.02-10.445-33.541-10.447c-12.903-0.001-23.263,5.56-30.797,16.527c-7.037,10.244-9.482,20.571-7.265,30.693
							c4.263,19.469,24.543,31.756,24.747,31.878c0.085,0.051,0.132,0.147,0.12,0.245l-1.73,14.418l-0.013,0.108l0.07,0.083
							l9.096,10.751l0.189,0.223l0.191-0.221c3.78-4.376,10.432-8.542,13.116-10.131l0.222-0.131l-0.139-0.218
							c-0.693-1.09-1.258-2.225-1.681-3.372c-1.118-3.005-1.344-6.261-0.637-9.17c0.763-3.179,2.543-5.929,5.012-7.745
							c3.001-2.24,6.433-2.813,8.784-2.899c0.256-0.011,0.51-0.016,0.764-0.016c2.62,0,5.414,0.579,8.304,1.721
							c2.495,0.988,4.978,2.327,8.051,4.342c0.346,0.227,0.443,0.693,0.216,1.038c-0.139,0.212-0.374,0.339-0.628,0.339
							c-0.146,0-0.288-0.043-0.41-0.123c-2.932-1.97-5.392-3.333-7.75-4.296c-2.791-1.136-5.472-1.711-7.97-1.711
							c-0.178,0-0.355,0.003-0.533,0.009c-3.073,0.077-5.954,0.989-8.111,2.566c-2.232,1.6-3.929,4.167-4.653,7.041
							c-0.688,2.694-0.507,5.734,0.51,8.56c0.41,1.153,0.974,2.297,1.678,3.398l0.047,0.073l0.082,0.029
							c0.043,0.015,0.102,0.046,0.137,0.11c0.013,0.022,0.029,0.061,0.022,0.14l-0.007,0.088l0.05,0.073
							c0.825,1.196,1.798,2.289,2.892,3.249c2.137,1.904,4.744,3.1,7.684,4.358c2.741,1.152,5.591,2.132,8.472,2.914
							c0.19,0.051,0.302,0.247,0.251,0.437c-0.042,0.155-0.183,0.263-0.344,0.263c-0.03,0-0.06-0.004-0.09-0.012
							c-2.921-0.759-5.814-1.719-8.598-2.853c-2.314-0.962-4.558-1.943-6.561-3.337l-0.032-0.022l-0.037-0.012
							c-2.065-0.634-5.083-1.39-7.729-1.39c-0.68,0-1.31,0.05-1.874,0.15l-0.054,0.01l-0.045,0.031
							c-3.699,2.569-6.483,4.962-8.274,7.113l-0.037,0.045l-0.014,0.057c-0.015,0.061-0.039,0.105-0.073,0.134
							c-0.012,0.01-0.038,0.022-0.062,0.033l-0.056,0.025l-0.038,0.048c-0.682,0.86-1.197,1.68-1.532,2.439
							c-2.708,6.128-4.166,13.954-4.227,14.284c-0.006,0.031-0.023,0.065-0.053,0.104l-0.039,0.051l-0.01,0.064
							c-0.314,2.084,0.047,4.45,1.015,6.664c0.888,2.036,2.284,3.951,4.149,5.694c3.025,2.801,7.067,5.06,12.358,6.907
							c4.073,1.405,8.622,2.471,13.908,3.259c4.408,0.657,9.069,1.089,14.251,1.321c2.816,0.131,5.703,0.195,8.825,0.195
							c1.747,0,3.597-0.021,5.497-0.063c2.194-0.043,4.538-0.127,7.166-0.255c0.65-0.03,1.298-0.057,1.944-0.084
							c2.452-0.103,4.837,0.115,7.291-0.099c2.857-0.249,5.687-0.726,8.511-1.213c2.914-0.503,5.838-1.021,8.645-1.951
							c2.807-0.929,5.513-2.29,7.678-4.303c3.553-3.302,5.418-8.333,4.876-13.154c-0.13-1.16,0.065-2.291-0.023-3.473
							c-0.107-1.434-0.303-2.86-0.563-4.274c-0.513-2.79-1.279-5.532-2.198-8.214C348.796,200.605,346.798,196.163,344.486,191.924z
							 M337.417,229.497c0.009,0.066-0.009,0.132-0.049,0.185c-0.041,0.053-0.1,0.087-0.166,0.096l-0.034,0.002
							c-0.124,0-0.231-0.093-0.247-0.217c-0.072-0.753-0.134-1.482-0.195-2.212c-0.117-1.386-0.238-2.82-0.415-4.21
							c-0.247-1.833-0.718-4.162-2.178-5.942c0.687,0.76,1.231,1.695,1.627,2.768c0.333,0.889,0.589,1.884,0.805,3.132
							c0.233,1.405,0.408,2.83,0.576,4.208C337.229,228.037,337.319,228.766,337.417,229.497z M324.112,163
							c-0.004,0-0.009,0-0.014,0l0.016-0.123c-0.324-0.067-0.674-0.101-1.04-0.101c-0.962,0-1.932,0.229-2.754,0.453
							c-1.131,0.311-2.461,0.692-3.762,1.163c-1.45,0.532-2.579,1.063-3.553,1.672c-1.161,0.71-2.151,1.58-2.94,2.586l-0.009,0.006
							c-0.002,0-0.003-0.001-0.004-0.001c0.76-1.046,1.729-1.953,2.879-2.705c0.967-0.646,2.09-1.217,3.536-1.799
							c1.297-0.515,2.624-0.94,3.751-1.287c0.893-0.269,1.94-0.557,3.034-0.557c0.328,0,0.65,0.027,0.958,0.079
							c0.136,0.023,0.228,0.153,0.205,0.289c-0.021,0.12-0.124,0.208-0.246,0.208l-0.039,0.113
							C324.121,162.995,324.118,163,324.112,163z M338.69,175.583c0.316,2.972-0.56,5.669-2.606,7.999
							c-4.578,5.211-14.387,7.762-21.563,7.927l-0.061,0c-1.29,0-3.189-0.228-4.297-0.871c-0.366-0.212-0.539-0.591-0.464-1.012
							c0.063-0.347,0.333-0.787,0.89-0.882c1.914-0.327,3.894-1.229,5.885-2.681c2.275-1.659,4.07-3.964,5.807-6.194
							c3.052-3.918,5.935-7.619,11.068-7.623c0.147-0.007,0.281-0.011,0.416-0.011C335.847,172.236,338.234,173.115,338.69,175.583z
							 M311.032,203.844c0.73,0.53,1.535,0.993,2.314,1.441c0.761,0.438,1.548,0.89,2.278,1.411
							c2.977,2.057,5.517,4.788,7.348,7.898c1.842,3.081,2.993,6.636,3.332,10.281c0.343,3.621-0.112,7.341-1.316,10.758
							c-0.035,0.1-0.13,0.167-0.236,0.167c-0.028,0-0.056-0.005-0.083-0.014c-0.13-0.046-0.198-0.189-0.153-0.319
							c1.221-3.346,1.709-6.995,1.411-10.559c-0.294-3.6-1.393-7.122-3.177-10.185c-1.78-3.103-4.27-5.839-7.2-7.913
							c-0.709-0.52-1.484-0.977-2.233-1.419c-0.778-0.459-1.582-0.934-2.331-1.488c-1.212-0.89-2.693-2.379-2.872-4.418
							C308.332,201.619,310.035,203.132,311.032,203.844z M308.119,199.228L308.119,199.228L308.119,199.228L308.119,199.228z
							 M276.549,159.417c-0.003,0-0.006,0-0.009,0l0.016-0.121c-1.19-0.236-2.747-0.527-4.316-0.705
							c-1.011-0.131-2.024-0.198-2.793-0.242c-0.48,0.041-0.884,0.061-1.271,0.061c-0.579,0-1.18-0.044-1.837-0.133
							c-1.123,0.012-2.01,0.05-2.829,0.117c-1.723,0.146-3.095,0.356-4.319,0.66l-0.017,0.004c0,0-0.006,0-0.007-0.006
							c1.239-0.351,2.573-0.593,4.33-0.794c0.07-0.008,0.141-0.012,0.212-0.017c0.066-0.005,0.132-0.009,0.198-0.016l1.182-0.117
							l-1.129-0.369c-4.028-1.319-7.249-4.502-8.616-8.517c-0.049-0.144-0.089-0.29-0.13-0.436l-0.049-0.175l-0.039-0.136
							l-0.137-0.036c-2.387-0.634-5.582-1.468-6.805-1.787l6.778-5.018l0.071-0.053l0.022-0.086c0.128-0.496,0.26-0.929,0.406-1.323
							c1.942-5.306,7.052-8.87,12.714-8.87c5.533,0,10.461,3.307,12.554,8.426c0.178,0.434,0.34,0.915,0.496,1.471l0.022,0.079
							l0.065,0.051l4.918,3.847l-4.655,2.327l-0.108,0.054l-0.025,0.118c-0.06,0.283-0.127,0.564-0.205,0.841
							c-1.22,4.365-4.544,7.814-8.891,9.228l-1.163,0.378l1.218,0.109c1.24,0.111,2.549,0.288,4.246,0.576
							c0.136,0.023,0.228,0.152,0.205,0.288c-0.021,0.121-0.124,0.208-0.246,0.208l-0.038,0.11
							C276.561,159.412,276.557,159.417,276.549,159.417z M283.112,136.718c-0.002,0-0.004,0-0.006,0
							c-0.155,0-0.259-0.092-0.275-0.215c-0.372-3.469-2.16-6.685-4.904-8.829c-2.592-2.058-5.917-3.325-9.616-3.662
							c-0.622-0.056-1.253-0.084-1.875-0.084c-2.959,0-5.839,0.637-8.328,1.841c-3.248,1.548-5.841,4.248-7.114,7.407l-0.007,0.005
							c-0.001,0-0.001,0-0.003-0.001c1.236-3.199,3.811-5.94,7.062-7.533c2.572-1.281,5.556-1.957,8.632-1.957
							c0.549,0,1.105,0.022,1.655,0.064c3.76,0.3,7.16,1.553,9.831,3.623c1.422,1.104,2.629,2.487,3.491,4.001
							c0.86,1.501,1.437,3.249,1.671,5.056C283.345,136.574,283.248,136.7,283.112,136.718z M301.618,131.353
							c1.236-3.199,3.811-5.94,7.062-7.533c2.572-1.281,5.556-1.957,8.632-1.957c0.548,0,1.105,0.022,1.655,0.064
							c3.76,0.3,7.16,1.553,9.832,3.623c1.422,1.104,2.629,2.487,3.491,4.001c0.86,1.501,1.437,3.249,1.671,5.056
							c0.018,0.138-0.078,0.264-0.215,0.282c-0.002,0-0.004,0-0.006,0c-0.155,0-0.259-0.093-0.275-0.215
							c-0.372-3.469-2.159-6.684-4.904-8.829c-2.592-2.058-5.917-3.325-9.616-3.662c-0.622-0.056-1.253-0.084-1.875-0.084
							c-2.959,0-5.839,0.637-8.328,1.841c-3.248,1.548-5.841,4.248-7.114,7.407l-0.007,0.005
							C301.62,131.353,301.62,131.353,301.618,131.353z M283.8,163.534c-0.004-0.138,0.105-0.253,0.243-0.257
							c5.462,0.018,10.871,1.812,15.238,5.052c-4.24-2.937-9.409-4.561-14.564-4.561c-0.221,0-0.44,0.003-0.661,0.009l-0.004,0.125
							c-0.001,0-0.002,0-0.003,0v-0.125C283.913,163.777,283.804,163.671,283.8,163.534z M304.496,191.21
							c-1.088,0.881-3.136,1.379-4.175,1.534c-1.558,0.207-3.317,0.317-5.081,0.317c-9.983,0-20.81-3.242-21.254-12.339
							c0.075-2.671,2.605-3.881,4.748-4.1c0.527-0.082,1.04-0.122,1.538-0.122c4.258,0,7.332,2.887,10.587,5.943
							c2.06,1.935,4.19,3.935,6.694,5.223c2.192,1.127,4.287,1.713,6.228,1.74c0.565,0.008,0.9,0.4,1.016,0.734
							C304.938,190.543,304.825,190.943,304.496,191.21z M295.078,133.139c-0.047,0.687-0.105,1.371-0.164,2.054
							c-0.081,0.949-0.164,1.931-0.215,2.894c-0.347,6.595,0.914,13.247,3.645,19.238c0.057,0.125,0.002,0.274-0.124,0.331
							c-0.033,0.015-0.068,0.023-0.103,0.023c-0.098,0-0.187-0.057-0.228-0.146c-2.686-6.088-3.878-12.816-3.447-19.461
							c0.063-0.973,0.159-1.956,0.251-2.906c0.066-0.682,0.133-1.362,0.188-2.041l0.034-0.504c0.101-1.476,0.205-3.001-0.054-4.418
							c-0.143-0.677-0.4-1.31-0.672-1.979l-0.144-0.357c-0.299-0.747-0.561-1.542-0.778-2.362c-0.418-1.605-0.635-3.259-0.644-4.915
							c0.045,1.653,0.281,3.301,0.718,4.896c0.226,0.815,0.496,1.602,0.803,2.342l0.161,0.385c0.262,0.623,0.533,1.267,0.689,1.955
							c0.191,0.86,0.19,1.762,0.189,2.487C295.176,131.397,295.143,132.187,295.078,133.139z M299.164,219.595L299.164,219.595
							L299.164,219.595L299.164,219.595z M300.018,235.771c-0.067-0.003-0.128-0.031-0.174-0.08s-0.069-0.113-0.066-0.18
							c0.372-5.22,0.163-10.485-0.622-15.658c0.962,5.156,1.334,10.432,1.122,15.678c-0.005,0.135-0.115,0.24-0.249,0.24v0.122
							c-0.002,0-0.004,0.001-0.005,0.001L300.018,235.771z M276.43,219.019c-1.007,3.761-1.326,7.788-0.907,11.648
							c0.007,0.066-0.012,0.132-0.054,0.184c-0.042,0.052-0.102,0.085-0.168,0.092l-0.027,0.001c-0.128,0-0.234-0.096-0.248-0.223
							C274.758,226.738,275.231,222.804,276.43,219.019z M258.492,227.271c0.025,0.062,0.024,0.13-0.002,0.191
							s-0.075,0.109-0.137,0.134c-0.03,0.012-0.061,0.018-0.093,0.018c-0.103,0-0.194-0.062-0.232-0.157
							c-0.476-1.396-0.627-2.987-0.454-4.745c0.165-1.68,0.577-3.276,0.958-4.615c-0.278,1.276-0.624,2.952-0.701,4.634
							C257.75,224.446,257.972,225.974,258.492,227.271z"/>
						<path style="fill:#E2C597;" d="M327.84,242.943c-0.802,1.475-2.586,1.636-4.105,2.099c-2.188,0.666-4.471,1.002-6.758,1.002
							c-4.255,0-8.701-1.153-12.859-3.333l-0.056-0.029l-0.063,0.001c-0.746,0.007-1.493,0.01-2.24,0.01
							c-3.233,0-6.198-0.067-9.066-0.204c-5.197-0.239-9.872-0.679-14.293-1.344c-5.309-0.799-9.88-1.876-13.974-3.294
							c-5.277-1.852-9.173-4.017-12.261-6.811l-0.355,0.351c0.567,0.642,1.082,1.188,1.574,1.669
							c1.508,1.488,3.261,2.936,5.208,4.302c1.796,1.274,3.729,2.476,5.747,3.572c6.883,3.762,14.926,6.796,25.309,9.548
							c1.948,0.5,4.255,1.079,6.607,1.588l1.655,0.374l1.631,0.439l3.28,0.89l6.561,1.78c0.376,0.094,0.745,0.198,1.113,0.302
							c0.711,0.201,1.447,0.408,2.164,0.518c0.991,0.166,2.079,0.251,3.232,0.251l0.107,0c2.324-0.025,4.526-0.449,6.545-1.259
							c0.987-0.419,1.929-0.918,2.968-1.572l2.912-1.75c3.985-2.353,7.734-4.443,11.46-6.389l0.054-0.028l0.021-0.03
							c0.056-0.043,0.111-0.073,0.18-0.101l0.1-0.04c0,0,0.047-0.019,0.074-0.035c0.014-0.005,0.033-0.01,0.054-0.015
							c0,0,2.615-1.008,2.619-1.009c3.556-1.37,5.021-5.908,5.398-9.318c-2.417,1.924-5.539,2.661-8.533,3.421
							c-3.712,0.943-7.395,2.003-11.041,3.178c-0.162,0.052-0.329,0.107-0.456,0.221c-0.181,0.163-0.247,0.414-0.331,0.643
							C327.969,242.683,327.908,242.818,327.84,242.943z M321.35,252.12c0.024,0.063,0.021,0.13-0.006,0.191
							c-0.027,0.061-0.077,0.107-0.139,0.131c-1.941,0.63-3.956,0.947-6,0.947c-1.451,0-2.895-0.162-4.291-0.482
							c1.11,0.185,2.247,0.286,3.382,0.286c2.324,0,4.589-0.41,6.733-1.219c0.029-0.011,0.058-0.016,0.088-0.016
							C321.219,251.958,321.313,252.023,321.35,252.12z"/>
					</g>
					<path style="fill:none;stroke:#0B1011;stroke-linecap:round;stroke-linejoin:round;stroke-miterlimit:10;" d="M268.176,133.05
						c-4.931,0-9.38,3.104-11.071,7.724c-0.484,1.311-0.729,2.681-0.729,4.076c0,1.298,0.211,2.579,0.627,3.809
						c1.629,4.785,6.12,8.001,11.173,8.001c5.28,0,9.958-3.544,11.377-8.619c0.288-1.021,0.433-2.094,0.433-3.191
						c0-1.54-0.294-3.042-0.876-4.461C277.287,135.93,272.995,133.05,268.176,133.05z M269.789,151.658
						c-4.243,0-7.683-3.44-7.683-7.683s3.44-7.683,7.683-7.683c4.243,0,7.683,3.44,7.683,7.683S274.032,151.658,269.789,151.658z"/>
					<path style="fill:#8A7DD8;" d="M431.214,455.2c-4.16-11.82-8.24-26.69-12.52-42.23c-6.82-24.84-13.88-50.52-21.51-63.99
						c-12.74-22.51-63.54-26.63-68.463-26.98c0.275,3.755-0.045,7.478-0.792,11.137c-0.826,3.972-2.243,7.833-4.261,11.369
						c-2.023,3.531-4.645,6.724-7.726,9.385c-3.072,2.674-6.569,4.829-10.258,6.513c-7.407,3.369-15.48,4.894-23.506,5.496
						c-8.05,0.604-16.188,0.078-24.105-1.516c-3.962-0.785-7.863-1.86-11.69-3.146c-3.837-1.283-7.548-2.86-11.223-4.48
						c-7.351-3.267-14.502-6.998-21.353-11.234c-6.842-4.246-13.388-9.006-19.406-14.392c-5.788-5.192-11.084-10.972-15.587-17.351
						l-23.51,12.47c-0.08,0.04-0.17,0.08-0.26,0.09c-0.35,0.08-34.86,7.63-51.12,39.87c-13.4,26.58-29.99,68.14-36.272,85.247
						c9.75-0.977,19.543-1.189,29.325-1.057c10.341,0.184,20.682,0.749,30.969,1.86c10.28,1.138,20.545,2.521,30.693,4.552
						c5.099,0.887,10.129,2.108,15.181,3.23c2.534,0.526,5.021,1.249,7.527,1.892l6.386,1.681l1.161-21.64l0.399-7.44
						c0.086-1.244,0.09-2.471,0.243-3.729c0.124-1.224,0.227-2.456,0.321-3.687c0.367-4.928,0.538-9.875,0.554-14.818
						c0.013-9.886-0.628-19.784-2.247-29.517c-1.646-9.706-4.304-19.317-8.851-27.996c0,0-0.031-0.064-0.039-0.084
						c-0.979-2.26-2.169-4.518-3.432-6.685c-1.275-2.17-2.652-4.281-4.149-6.299c-2.988-4.034-6.439-7.741-10.433-10.725
						c-0.442-0.331-0.533-0.957-0.203-1.4c0.33-0.442,0.957-0.533,1.402-0.201c4.182,3.146,7.739,7.004,10.804,11.167
						c1.535,2.084,2.942,4.255,4.243,6.487c1.288,2.231,2.472,4.483,3.509,6.891c4.637,8.95,7.285,18.726,8.917,28.55
						c1.604,9.866,2.211,19.854,2.161,29.818c-0.034,4.984-0.226,9.964-0.614,14.936c-0.033,0.416-0.078,0.832-0.113,1.248
						c0.725,0.666,2.051,1.798,4.012,3.176c13.009,8.297,28.344,12.881,43.749,13.09c15.405,0.209,30.836-3.959,44.025-11.877
						c0.237-0.142,0.544-0.065,0.686,0.171c0.142,0.237,0.065,0.544-0.174,0.687c-13.394,7.945-29.002,12.067-44.549,11.776
						c-3.58-0.067-7.152-0.379-10.692-0.906l-39.468,23.872l-0.191,3.336c-0.023,0.406-0.371,0.716-0.777,0.693
						c-0.05-0.003-0.105-0.013-0.152-0.025c-0.053-0.014-0.107-0.027-0.161-0.042c-1.889,3.316-5.397,4.356-7.183,4.672
						l-1.544,9.966c-0.01,0.079-1.309,10.181-0.784,14.46c0,0,191.58-0.03,191.589-0.03c-1.763-12.529-3.172-30.507,3.247-46.135
						c0.069-0.883,0.417-5.327,0.841-10.7c-3.151-5.489-13.3-8.922-16.499-9.887c-1.469,0.425-2.967,0.749-4.496,0.924
						c-4.571,0.541-9.179-0.168-13.534-1.43c-4.372-1.265-8.548-3.059-12.689-4.868c-0.13-0.057-0.19-0.209-0.133-0.339
						c0.057-0.13,0.207-0.189,0.337-0.134c4.154,1.772,8.326,3.518,12.658,4.729c4.315,1.21,8.836,1.856,13.269,1.29
						c4.435-0.547,8.642-2.301,12.491-4.574c2.41-1.421,4.698-3.035,6.927-4.722c0.95-0.718,2.467-1.519,3.176-2.471
						c0.417-0.56,0.104-1.745,1.215-1.738c1.495,0.009,0.955,2.405,0.876,3.352c-0.864,10.29-1.659,20.586-2.458,30.882
						c-0.008,0.105-0.033,0.208-0.073,0.305c-0.216,0.521-0.4,1.053-0.598,1.58c4.471-0.723,8.957-1.311,13.455-1.813
						c4.917-0.54,9.847-0.96,14.787-1.248c4.942-0.258,9.893-0.381,14.847-0.306C422.014,454.321,426.628,454.621,431.214,455.2z"/>
					<g>
						<path style="fill:#EC899E;" d="M157.449,464.915c-11.036-2.208-21.145-3.906-30.904-5.191
							c-11.523-1.517-21.735-2.379-31.217-2.635l-0.78-0.018l-8.182,44.99l90.337-0.02l-0.057-0.551
							c-0.317-3.076,0.149-8.506,0.456-11.47l0.376-3.64c0.064-0.275,0.127-0.55,0.188-0.826l2.413-15.58l-0.444-0.109
							C172.573,468.122,165.315,466.503,157.449,464.915z"/>
						<path style="fill:#C0361A;" d="M179.071,461.811c-1.748-0.473-3.556-0.962-5.358-1.344c-1.158-0.262-2.315-0.529-3.472-0.796
							c-3.813-0.88-7.755-1.791-11.669-2.487c-8.794-1.796-18.533-3.28-30.65-4.669c-9.753-1.092-19.875-1.74-30.947-1.98
							c-11.396-0.199-20.792,0.109-29.569,0.967l-0.313,0.031l-0.108,0.295c-1.213,3.325-1.916,5.367-2.213,6.432l-0.221,0.774
							l0.793-0.145c3.346-0.613,6.866-1.084,10.461-1.402l0.021-0.002c6.089-0.799,12.08-1.108,17.802-0.923l0.12,0.004l0.109-0.051
							c0.114-0.054,0.211-0.07,0.295-0.058c0.183,0.034,0.285,0.165,0.33,0.24l0.141,0.235l0.708,0.015
							c9.486,0.223,19.707,1.049,31.247,2.527c9.773,1.252,19.895,2.916,30.942,5.086c10.766,2.136,20.48,4.349,29.699,6.765
							l0.593,0.155l0.388-7.229l-6.972-1.864C180.508,462.2,179.789,462.006,179.071,461.811z"/>
						<path style="fill:#FFEDC3;" d="M328.143,321.43l-0.135-0.135c-0.046-0.056-0.082-0.125-0.099-0.196l-1.093-4.393
							l-10.151-2.466l3.484,8.195l0.169,0.254c0.059,0.088,0.086,0.186,0.078,0.274l-0.007,0.069l0.012,0.068
							c0.01,0.051,0.01,0.11,0,0.161c-6.182,33.814-41.722,30.147-43.28,29.97c-50.476-0.842-87.561-43.839-91.624-48.739
							l-0.315-0.38l-0.384,0.311c-0.274,0.221-6.57,5.348-5.338,7.642l0.088,0.153c8.199,12.002,19.948,22.848,34.921,32.238
							c6.586,4.119,13.703,7.909,21.154,11.266c3.517,1.572,7.296,3.205,11.106,4.499c3.938,1.347,7.823,2.413,11.544,3.169
							c5.895,1.218,11.864,1.83,17.815,1.83c2.012,0,4.022-0.07,6.026-0.21c9.105-0.635,16.71-2.371,23.249-5.307
							c3.815-1.719,7.217-3.854,10.109-6.347c3.04-2.6,5.607-5.686,7.629-9.172c1.963-3.402,3.393-7.159,4.248-11.168
							c0.829-3.927,1.101-7.763,0.807-11.401L328.143,321.43z"/>
						<path style="fill:#EC899E;" d="M407.356,481.822c0.044-0.197,0.089-0.394,0.133-0.589l5.028-18.65l-0.662,0.01
							c-2.886,0.046-5.819,0.153-8.716,0.319c-5.513,0.305-10.964,0.738-16.201,1.289c-2.778,0.289-5.495,0.597-8.08,0.917
							l-4.03,0.523l-3.499,0.504l-0.069,0.344c-2.61,12.983-1.239,26.246,0.019,35.092l0.061,0.43l37.74-0.01l0.015-0.485
							c0.176-5.841-1.427-13.845-1.951-16.282v-2.55L407.356,481.822z"/>
						<path style="fill:#C0361A;" d="M434.467,462.43c-0.758-1.841-1.545-3.914-2.407-6.337l-0.102-0.285l-0.299-0.043
							c-4.367-0.621-9.032-1.007-14.263-1.181l-0.005-0.001c-4.679-0.109-9.528-0.049-14.824,0.185
							c-4.848,0.243-9.822,0.622-14.786,1.126c-5.001,0.516-9.503,1.087-13.761,1.747l-0.292,0.045l-0.101,0.278
							c-0.865,2.382-1.586,4.878-2.143,7.421l-0.157,0.717l7.515-1.135c2.585-0.359,5.224-0.698,8.069-1.037
							c5.243-0.63,10.693-1.146,16.201-1.533c5.812-0.419,11.136-0.596,16.273-0.528c4.395,0.081,9.503,0.25,14.525,1.248
							l0.912,0.175L434.467,462.43z"/>
					</g>
					<g>
						<path style="fill:#EC899E;" d="M368.007,98.896c-0.298-0.841-1.334-1.102-1.63-1.141l0-0.001
							c-0.07-0.009-0.162-0.047-0.252-0.104c-1.713-1.246-4.036-1.886-6.88-1.886c-8.788,0-20.143,5.955-23.414,7.78l-0.436,0.243
							l0.243,0.436c0.891,1.602,3.827,7.402,4.197,14.774l0.038,0.762l0.683-0.339l0.332-0.165c0.684-0.339,1.367-0.679,2.053-1.022
							c1.76-0.996,4.151-2.232,6.755-3.493c3.093-1.668,5.843-3.285,8.338-4.909c-0.268,0.174-0.531,0.35-0.802,0.522l-0.031,0.02
							l-0.028,0.024c-0.665,0.572-1.767,1.741-3.044,3.094c-2.382,2.525-5.644,5.983-7.894,7.465
							c-1.021,0.673-3.285,3.095-3.277,4.627c-0.238,0.967-4.888,14.389-8.603,23.349l-0.152,0.152l0.089,0.227
							c-0.079,8.007,1.347,14.678,2.133,16.48l0.111,0.255l0.276,0.04c1.172,0.168,2.305,0.253,3.367,0.253
							c3.882,0,7.031-1.122,9.358-3.335c5.88-5.591,5.178-16.49,4.822-19.697c-0.684-6.337,2.273-11.762,6.21-18.194
							c3.271-5.358,3.361-5.625,3.204-9.517l-0.04-1.112c-0.12-3.382,0.467-6.597,0.828-8.213l0.305-1.365l-1.1,0.856
							c-1.764,1.381-3.683,2.739-5.704,4.053c2.494-1.625,4.736-3.258,6.814-4.957l0.085-0.07l0.048-0.1
							c0.023-0.049,0.032-0.072,0.046-0.093C368.019,101.389,368.296,99.727,368.007,98.896z M346.562,160.831
							c0.038,0.189,0.057,0.377,0.057,0.559c0,1.574-1.28,2.854-2.854,2.854c-1.573,0-2.853-1.28-2.853-2.854
							c0-1.573,1.28-2.854,2.853-2.854c1.061,0,2.028,0.596,2.525,1.556l0.227,0.439l-0.012,0.01L346.562,160.831z"/>
						<path style="fill:#EC899E;" d="M329.029,251.96l-0.143,0.084l-0.065,0.153c-3.336,7.912-11.061,10.069-11.778,10.254
							c-11.074-0.118-28.147-10.764-31.462-12.901l-0.061-0.039l-0.07-0.02c-8.452-2.465-15.183-5.144-21.183-8.433
							c-2.02-1.101-3.956-2.307-5.754-3.587c-1.951-1.373-3.706-2.826-5.217-4.321c-1.724-1.692-3.154-3.46-4.251-5.256
							c-0.959-1.596-2.087-3.752-2.303-6.274l0.199-0.154l-0.036-0.283c-0.092-0.737-0.115-1.466-0.066-2.167l0.076-1.097
							l-0.026,0.019l0.035-0.179c0.264-1.371,1.71-8.495,4.207-14.146c0.325-0.735,0.818-1.53,1.465-2.364l0.249-0.32l-0.262-0.31
							l-9.354-11.055l1.718-14.318l0.038-0.314l-0.267-0.169c-2.092-1.321-20.556-13.436-24.595-31.867
							c-2.234-10.194,0.222-20.588,7.302-30.894c7.587-11.046,18.002-16.647,30.955-16.647c16.061,0,30.635,8.57,33.393,10.288
							l0.333,0.208l0.281-0.275c1.853-1.814,11.678-10.864,23.163-10.864c0.343,0,0.687,0.008,1.032,0.025
							c5.441,0.259,10.496,2.589,15.023,6.924l0.718-0.695c-4.57-5.152-15.125-12.512-20.069-15.685
							c-0.116-0.075-0.194-0.19-0.218-0.32c-0.04-0.181,0.02-0.319,0.077-0.406c1.082-1.557,4.493-3.267,9.595-4.804l1.194-0.36
							l-1.111-0.565c-7.215-3.667-17.903-5.473-18.355-5.548c-0.147-0.025-0.277-0.119-0.355-0.26
							c-0.072-0.13-0.079-0.287-0.017-0.43c1.923-4.542,11.851-9.537,16.031-11.473l1.222-0.566l-1.296-0.368
							c-7.697-2.188-16.544-3.298-26.296-3.298c-23.13,0-43.865,6.216-44.737,6.481l-0.038,0.012l-0.036,0.018l-52.53,25.72
							l-0.359,0.176l0.092,0.389c0.857,3.615,1.401,11.168,1.548,13.397l0.025,0.387l0.381,0.072
							c0.585,0.11,1.149,0.226,1.708,0.345c-0.588-0.125-1.184-0.246-1.801-0.361l-0.259-0.048c0,0-0.186,0.186-0.189,0.189
							c-0.062,0.059-0.179,0.138-0.343,0.138l-0.052-0.003c-1.841-0.153-3.631-0.23-5.32-0.23c-10.523,0-18.07,2.96-22.432,8.799
							c-1.486,1.987-2.613,4.338-3.351,6.985l-0.38,1.362l1.151-0.818c0.225-0.161,0.468-0.3,0.698-0.454
							c-0.569,0.381-1.136,0.766-1.675,1.185l-0.193,0.15v0.196c-2.399,11.135,1.904,23.782,2.793,26.207
							c2.474,7.624,6.041,14.996,11.177,21.195c4.056,4.896,9.116,9.043,14.96,11.611c1.624,0.714,3.308,1.312,5.035,1.722
							c0.444,0.105,0.944,0.136,1.375,0.278c1.83,0.607,1.719,3.253,1.601,4.883c-0.849,11.695-3.386,23.324-8.511,33.898
							c-0.001,0.001-0.594,1.225-0.594,1.225l1.246-0.55c2.81-1.24,6.076-1.573,7.013-1.645c0,0,0.049-0.004,0.052-0.004
							c0.191,0,0.352,0.099,0.44,0.251c0.097,0.168,0.091,0.365-0.015,0.526c-2.456,3.757-1.914,8.795-1.372,11.464l0.196,0.968
							l0.664-0.731c3.318-3.654,9.7-3.696,9.97-3.696c0.185,0,0.351,0.099,0.444,0.265c1.711,3.122,3.615,6.164,5.658,9.035
							l0.087,0.122l0.139,0.054c0.18,0.07,0.302,0.238,0.312,0.43l0.008,0.149l0.059,0.08l-0.308,2.874
							c-2.807,26.199-23.075,63.628-25.377,67.81l-0.177,0.321l0.253,0.265c4.862,5.1,10.147,9.941,15.723,14.4l-0.123-0.037
							l2.21,1.683c15.099,11.703,39.081,25.745,67.613,26.209c0.031,0.004,0.059,0.007,0.086,0.009
							c0.384,0.05,2.155,0.258,4.795,0.258c8.639,0,29.456-2.377,36.146-24.391l0.433-1.426l-0.045,0.032
							c0.297-1.103,0.553-2.224,0.764-3.339l0.029-0.153l-0.064-0.143l-0.08-0.18l-0.017-0.038l-0.023-0.034
							c-1.671-2.534-2.98-5.224-3.89-7.994l-0.292-0.888l-0.577,0.735c-1.736,2.213-5.684,5.924-12.619,5.924
							c-4.438,0-9.4-1.547-14.748-4.598c-4.405-2.513-9.03-4.937-13.502-7.281c-16.52-8.659-33.602-17.612-42.067-32.483
							c-8.611-15.128-12.287-29.317-13.468-34.715l-0.592-2.706c8.746,11.912,17.453,17.178,19.918,18.51l1.078,0.583l-0.237-0.766
							c0.073,0.23,0.146,0.47,0.22,0.692l0.025,0.076l0.047,0.064c0.034,0.046,0.051,0.074,0.057,0.096
							c0.106,0.275,2.389,5.881,13.516,17.63c5.038,5.327,12.571,8.174,19.396,10.363c7.277,2.333,14.798,3.932,22.346,5.092
							c11.884,1.826,23.988,1.056,33.134-7.843c5.719-5.565,8.758-12.8,10.054-20.559c0.514-3.076,1.534-5.911,1.933-9.062
							c0.288-2.275,0.576-4.549,0.864-6.824l0.121-0.953l-0.85,0.448C335.751,248.118,332.37,250,329.029,251.96z M316.566,283.264
							L316.566,283.264C316.566,283.264,316.565,283.264,316.566,283.264c-0.002-0.004-0.004-0.009-0.005-0.013
							C316.562,283.255,316.564,283.26,316.566,283.264z M234.141,232.974c-0.02,0.264-0.04,0.531-0.048,0.823
							C234.101,233.505,234.12,233.238,234.141,232.974z M234.091,234.333c-0.001,0.219-0.005,0.432,0,0.665
							C234.086,234.766,234.09,234.553,234.091,234.333z M236.058,228.3c0.054-0.079,0.107-0.158,0.163-0.236
							C236.165,228.142,236.112,228.221,236.058,228.3z M234.353,231.706c0.073-0.262,0.163-0.527,0.269-0.794
							C234.517,231.179,234.425,231.444,234.353,231.706z M234.737,230.635c0.105-0.243,0.217-0.487,0.345-0.732
							C234.955,230.148,234.841,230.393,234.737,230.635z M235.297,229.514c0.081-0.143,0.165-0.287,0.253-0.431
							C235.463,229.227,235.378,229.37,235.297,229.514z M239.644,224.094c-0.004,0.004-0.007,0.008-0.011,0.011
							C239.636,224.101,239.64,224.097,239.644,224.094z M234.31,231.882c-0.07,0.283-0.127,0.565-0.153,0.84
							C234.184,232.446,234.24,232.165,234.31,231.882z M173.24,150.93L173.24,150.93L173.24,150.93L173.24,150.93z
							 M219.261,120.537c-0.005,3.153-1.214,6.27-3.311,8.621C218.047,126.807,219.256,123.69,219.261,120.537z M215.722,129.424
							c-0.121,0.128-0.239,0.238-0.356,0.338C215.482,129.661,215.599,129.553,215.722,129.424z M214.839,130.126
							c-0.017,0.009-0.034,0.014-0.051,0.022C214.805,130.14,214.822,130.135,214.839,130.126z M215.209,129.886
							c-0.057,0.043-0.113,0.083-0.169,0.119C215.096,129.968,215.152,129.93,215.209,129.886z M189.686,114.283
							c5.718,0.724,10.567,2.728,14.023,5.794c1.473,1.308,2.756,2.856,3.997,4.353c1.592,1.921,3.238,3.907,5.288,5.385
							c0.31,0.223,0.674,0.464,1.083,0.495l0.019,0.001l0.069,0.002c0.105,0,0.21-0.02,0.316-0.046l-0.653,0.198l0.484,0.58
							c1.098,1.316,1.72,3.062,1.706,4.792c-0.009,2.088-0.993,4.106-2.631,5.401c-0.72,0.575-1.623,1.02-2.763,1.362
							c-0.461,0.149-0.941,0.252-1.405,0.351c-0.574,0.123-1.117,0.239-1.619,0.432c-0.997,0.364-1.673,1.262-2.279,2.151
							c-0.58,0.873-1.055,1.818-1.415,2.813c-0.562,1.547-1.076,3.882-0.332,6.218c0.094,0.314,0.22,0.591,0.353,0.884
							c0.082,0.18,0.168,0.369,0.253,0.584c0.045,0.124,0.119,0.396,0.058,0.656c-0.048,0.207-0.171,0.411-0.349,0.577
							c-0.317,0.291-0.722,0.494-1.309,0.656c-0.491,0.142-0.996,0.239-1.508,0.289c-0.263,0.025-0.533,0.038-0.8,0.038
							c-0.275,0-0.55-0.013-0.822-0.04l-0.874-0.706c-0.624-0.505-1.08-1.503-1.413-2.232l-0.027-0.06
							c-1.148-2.514-1.426-5.537-0.781-8.511c0.744-3.432,2.598-6.819,5.669-10.356c0.325-0.374,0.77-0.887,0.798-1.552
							c0.017-0.404-0.128-0.771-0.234-1.038c-2.915-7.344-7.555-14.061-13.42-19.424l-0.116-0.106
							C189.261,114.245,189.474,114.256,189.686,114.283z M188.529,114.173c-1.166-0.111-2.342-0.174-3.502-0.174
							c-1.864,0-3.705,0.146-5.504,0.427c1.805-0.284,3.645-0.439,5.505-0.439C186.189,113.987,187.361,114.062,188.529,114.173z
							 M234.144,236.311c-0.012-0.209-0.017-0.403-0.026-0.604C234.126,235.908,234.131,236.102,234.144,236.311z M234.247,237.716
							c-0.016-0.181-0.027-0.353-0.041-0.53C234.22,237.363,234.232,237.535,234.247,237.716z M246.038,218.581
							c-1.056,0.8-2.551,1.982-4.126,3.379c1.962-1.746,3.731-3.093,4.508-3.669L246.038,218.581z M240.228,223.52
							c0.172-0.167,0.345-0.332,0.517-0.494C240.572,223.188,240.4,223.354,240.228,223.52z M241.119,222.679
							c0.243-0.225,0.486-0.446,0.725-0.659C241.604,222.234,241.361,222.456,241.119,222.679z M200.484,104.264
							c-0.479-0.115-0.959-0.23-1.458-0.338C199.525,104.034,200.005,104.149,200.484,104.264z M208.31,106.841
							c-0.176-0.078-0.347-0.16-0.526-0.235C207.963,106.681,208.134,106.763,208.31,106.841z M207.003,106.296
							c-0.268-0.106-0.53-0.216-0.804-0.318C206.473,106.079,206.735,106.189,207.003,106.296z M205.497,105.732
							c-0.318-0.112-0.631-0.227-0.957-0.334C204.867,105.505,205.18,105.62,205.497,105.732z M203.874,105.194
							c-0.356-0.111-0.709-0.224-1.076-0.329C203.165,104.97,203.518,105.083,203.874,105.194z M202.198,104.705
							c-0.408-0.111-0.812-0.224-1.234-0.329C201.386,104.481,201.791,104.593,202.198,104.705z M168.704,118.097
							c-0.46,0.254-0.915,0.515-1.359,0.79C167.79,118.611,168.244,118.35,168.704,118.097z M179.106,114.504
							c-0.729,0.123-1.453,0.263-2.166,0.431C177.654,114.766,178.378,114.628,179.106,114.504z M176.124,115.152
							c-0.574,0.15-1.147,0.305-1.708,0.484C174.978,115.456,175.55,115.302,176.124,115.152z M173.474,115.965
							c-0.509,0.18-1.016,0.362-1.513,0.566C172.458,116.327,172.965,116.145,173.474,115.965z M171.018,116.945
							c-0.48,0.215-0.958,0.435-1.424,0.672C170.061,117.38,170.538,117.16,171.018,116.945z M234.558,240.499
							c0.009,0.068,0.017,0.135,0.026,0.203C234.575,240.634,234.567,240.568,234.558,240.499z M234.354,238.786
							c0.014,0.135,0.027,0.266,0.042,0.402C234.381,239.052,234.369,238.921,234.354,238.786z"/>
					</g>
				</g>
				<path style="fill:#B47742;" d="M286.032,144.307c-0.765-1.656-1.447-3.351-2.042-5.076c-0.283-0.819-0.69-1.722-0.812-2.582
					c-0.079-0.554,0.022-1.086-0.096-1.652c-0.403-1.932-1.353-3.693-2.692-5.137c-2.503-2.698-6.064-4.241-9.557-5.194
					c-1.323-0.361-2.669-0.641-4.026-0.84c-0.496-0.073-1.127-0.25-1.632-0.191c-5.018,0.587-9.964,2.628-12.829,6.973
					c-0.509,0.772-0.905,1.601-1.235,2.46l-0.033-0.095c-0.855,1.996-1.299,4.164-1.443,6.337c-0.015,0.094-0.031,0.188-0.046,0.281
					c-0.174,1.08-0.306,2.17-0.596,3.225c-0.15,0.544-0.34,1.076-0.531,1.607c-0.263,0.731-0.525,1.463-0.788,2.194
					c0.444-0.078,0.831-0.336,1.216-0.571c0.935-0.569,1.93-1.021,2.951-1.417c0.558-0.152,1.11-0.34,1.628-0.589
					c0.421-0.143,0.842-0.284,1.263-0.422l-0.105-0.306c0.241-0.196,0.471-0.409,0.672-0.657c1.101-1.356,1.289-3.249,2.233-4.719
					c0.44-0.685,1.032-1.258,1.654-1.783c2.614-2.212,5.907-3.695,9.328-3.83c3.421-0.135,6.943,1.165,9.212,3.729
					c0.804,0.909,1.438,1.951,2.005,3.02c0.347,0.653,0.624,1.442,1.022,2.106c0.151,0.251,0.32,0.485,0.516,0.687
					c0.724,0.744,1.462,1.458,2.35,2.009c0.482,0.299,0.987,0.56,1.499,0.804c0.243,0.116,1.273,0.398,1.38,0.618
					C286.342,144.968,286.185,144.638,286.032,144.307z"/>
				<path style="fill:#B47742;" d="M300.042,139.916c-0.5,1.595-1.047,3.176-1.507,4.783c2.503-1.298,5.292-2.689,7.102-4.928
					c0.848-1.049,1.324-2.503,2.091-3.638c0.795-1.177,1.732-2.269,2.865-3.135c2.536-1.938,5.839-2.595,9.03-2.667
					c1.544-0.035,3.116,0.058,4.572,0.574c2.256,0.798,4.069,2.562,5.367,4.573c0.778,1.206,1.393,2.508,1.937,3.833
					c0.275,0.669,0.473,1.403,0.796,2.048c0.091,0.182,0.974,1.083,0.976,1.055c0.164-2.231,0.296-4.464,0.396-6.699
					c0.047-1.058,0.078-1.952-0.245-2.974c-0.287-0.905-0.714-1.763-1.211-2.57c-2.719-4.407-7.617-7.316-12.762-7.902
					c-5.145-0.586-10.45,1.07-14.55,4.234c-1.508,1.164-2.764,3.079-3.311,4.905c-0.301,1.008-0.124,2.243-0.274,3.295
					c-0.161,1.133-0.416,2.25-0.719,3.353C300.422,138.678,300.235,139.298,300.042,139.916z"/>
				<polygon style="fill:#FFEDC3;" points="381.673,369.725 303.433,400.886 188.053,374.527 190.529,392.569 302.996,417.587 
					381.673,388.654 				"/>
				<polygon style="fill:#C0361A;" points="381.673,379.687 304.453,409.038 189.364,382.96 191.112,392.691 304.526,417.611 
					381.673,388.359 				"/>
				<path style="fill:#E2C597;" d="M214.237,146.561c-0.694-3.851,1.467-7.753,0.964-11.633c-0.282-2.171-2.806-4.062-4.065-5.853
					c-4.765-6.785-10.731-11.702-18.798-13.617c-8.067-1.915-16.732-0.458-24.312,2.901c-1.261,0.559-2.365,1.278-3.156,2.409
					c-0.781,1.117-1.162,1.981-1.27,3.34c-1.109,14.071,3.429,28.663,10.834,40.426c0.961,1.526,1.926,3.059,3.1,4.429
					c2.274,2.655,5.244,4.604,8.197,6.475c1.615,1.023,3.238,2.033,4.868,3.031c2.466,1.51,4.999,3.01,7.809,3.692
					c3.658,0.887,7.656,0.275,10.881-1.665c5.558-3.345,7.061-9.632,8.367-15.548c0.416-1.886,1.176-3.954,1.178-5.901
					C218.84,154.384,215.029,150.954,214.237,146.561z"/>
				<path style="fill:#E2C597;" d="M340.102,120.488l24.951-15.073c0,0-1.244,9.22-1.024,12.585
					c0.219,3.366-4.829,9.585-4.829,9.585s-5.488,9.878-4.902,17.195c0.585,7.317,0.073,15-3.585,17.268
					c-3.659,2.268-4.39,5.195-9.659,4.61c-5.268-0.585-5.488-1.244-5.488-1.244l-1.683-19.39L340.102,120.488z"/>
				<ellipse style="fill:#FFFFFF;" cx="267.737" cy="145.073" rx="13.244" ry="12.439"/>
				<ellipse style="fill:#FFFFFF;" cx="318.81" cy="143.317" rx="13.244" ry="12.439"/>
				<path style="fill:#E2C597;" d="M249.069,227.834c-1.85,6.714-3.432,13.547-3.816,20.501s0.475,14.073,3.333,20.424
					c2.172,4.826,5.554,9.182,9.913,12.22c4.736,3.301,9.656,4.4,15.233,5.731c9.396,2.243,18.859,4.22,28.355,5.99
					c9.434,1.758,19.12-3.054,25.254-10.078c4.703-5.385,7.747-11.977,10.042-18.691c1.412-4.13,1.842-8.306,2.426-12.614
					l0.585-5.122l-11.509,5.848c0,0-7.661,6.883-18.052,4.981c-10.39-1.902-23.707-6.878-23.707-6.878l-12.439-4.098l-13.317-6.293
					c0,0-7.024-4.976-8.049-6.146C251.736,231.797,250.241,229.938,249.069,227.834z"/>
			</g>
			<g>
				<g>
					<g>
						<g>
							<path style="fill:#0B1011;" d="M74.595,443.941c4.509-0.667,9.032-0.96,13.565-1.13c4.531-0.191,9.066-0.174,13.598-0.11
								c9.066,0.186,18.113,0.858,27.127,1.795l6.756,0.756l6.735,0.922c4.498,0.566,8.956,1.391,13.432,2.102
								c4.468,0.757,8.908,1.674,13.363,2.503l13.287,2.879c0.27,0.059,0.441,0.325,0.383,0.595
								c-0.059,0.27-0.325,0.441-0.594,0.383l-0.002,0l-0.013-0.003l-13.249-2.933c-4.443-0.847-8.87-1.783-13.326-2.557
								c-4.463-0.73-8.91-1.573-13.396-2.158l-6.718-0.95l-6.739-0.785c-8.991-0.976-18.017-1.687-27.06-1.912
								c-4.521-0.084-9.045-0.121-13.563,0.049c-4.514,0.148-9.044,0.423-13.498,1.062l-0.013,0.002
								c-0.141,0.02-0.271-0.078-0.291-0.218C74.358,444.092,74.455,443.962,74.595,443.941z"/>
						</g>
						<g>
							<path style="fill:#0B1011;" d="M380.13,449.216c3.541-0.935,7.129-1.557,10.741-2.046c3.612-0.473,7.244-0.817,10.887-0.953
								c3.641-0.134,7.291-0.172,10.933,0.024c3.645,0.137,7.276,0.524,10.897,0.973c0.274,0.034,0.469,0.284,0.435,0.558
								c-0.034,0.274-0.284,0.469-0.558,0.435c-0.001,0-0.002,0-0.003,0l-0.016-0.002c-3.585-0.484-7.183-0.909-10.8-1.085
								c-3.614-0.235-7.239-0.238-10.86-0.144c-3.622,0.095-7.237,0.397-10.834,0.827c-3.592,0.445-7.185,1.029-10.683,1.911
								l-0.011,0.003c-0.138,0.035-0.278-0.049-0.313-0.187C379.912,449.391,379.994,449.252,380.13,449.216z"/>
						</g>
						<path style="fill:#0B1011;" d="M185.385,302.406c0,0,9.314,1.693,9.06,1.778c-0.254,0.085-4.403,5.419-4.403,5.419
							L185.385,302.406z"/>
						<path style="fill:#0B1011;" d="M94.15,456.078l-5.175,23.714c0,0-19.157-6.257-24.564-20.702
							C64.41,459.091,77.928,455.46,94.15,456.078z"/>
						<path style="fill:#0B1011;" d="M435.922,464.648c0,0-11.974,12.422-27.753,16.227c0,0,4.812-15.331,4.812-18.465
							C412.981,462.41,430.326,461.627,435.922,464.648z"/>
						<path style="fill:#0B1011;" d="M179.382,477.253c0,0,6.248-0.257,8.645-5.478l-7.532-2.397L179.382,477.253z"/>
						<path style="fill:#0B1011;" d="M229.102,444.195l-40.829,24.695l2.415-41.049
							C190.688,427.841,202.432,440.244,229.102,444.195z"/>
						<path style="fill:#0B1011;" d="M374.785,448l1.61-25.463c0,0-12.395,10.884-20.04,11.968
							C356.355,434.504,374.785,439.366,374.785,448z"/>
						<path style="fill:none;stroke:#0B1011;stroke-width:2;stroke-linecap:round;stroke-linejoin:round;stroke-miterlimit:10;" d="
							M408.59,481.073c21.366-6.732,27.22-16.683,27.22-16.683c-12.293-28.683-24-91.61-37.756-115.902
							c-13.756-24.293-69.659-27.512-69.659-27.512l-1.171-4.683l-11.415-2.78l4.098,9.658
							c-6.293,34.39-42.732,29.561-42.732,29.561c-54.293-0.878-91.902-49.317-91.902-49.317s-8.195,6.146-6.146,9.073
							l-24.293,12.878c0,0-35.122,7.317-51.805,40.39c-16.683,33.073-39.805,93.073-38.927,93.366
							c0.878,0.293,4.683,13.463,25.756,20.78l-4.098,22.659l323.781-0.062c0.488-7.315-2.194-18.653-2.194-18.653l5.608-20.97"/>
						<g>
							<path style="fill:#0B1011;" d="M370.635,465.728c0.801-0.163,1.397-0.241,2.09-0.36l2.013-0.311l4.031-0.584
								c2.689-0.373,5.382-0.717,8.078-1.039c5.392-0.648,10.802-1.153,16.224-1.534c5.422-0.391,10.863-0.598,16.318-0.529
								c5.449,0.1,10.938,0.336,16.368,1.635c0.537,0.128,0.868,0.668,0.74,1.205c-0.128,0.537-0.668,0.868-1.205,0.74
								c-0.003-0.001-0.007-0.002-0.01-0.003l-0.018-0.005c-5.121-1.311-10.544-1.642-15.911-1.816
								c-5.385-0.148-10.791-0.025-16.188,0.284c-5.398,0.298-10.794,0.721-16.177,1.287c-2.692,0.28-5.381,0.583-8.068,0.915
								l-4.026,0.523l-2.009,0.28l-1.924,0.289l-0.149,0.022c-0.277,0.042-0.536-0.149-0.577-0.426
								C370.194,466.033,370.372,465.782,370.635,465.728z"/>
						</g>
						<path style="fill:none;stroke:#0B1011;stroke-width:2;stroke-linecap:round;stroke-linejoin:round;stroke-miterlimit:10;" d="
							M370.877,502.357c-1.976-13.61-3.262-31.382,3.104-46.747c0,0,2.195-28.098,2.634-32.927c0,0,13.723-35.368-0.546-71.368"/>
						<g>
							<path style="fill:#0B1011;" d="M328.639,321.009c0.415,4.091,0.1,8.147-0.713,12.128c-0.826,3.972-2.243,7.833-4.26,11.369
								c-2.023,3.531-4.645,6.724-7.726,9.385c-3.072,2.674-6.569,4.829-10.258,6.513c-7.407,3.369-15.48,4.894-23.506,5.496
								c-8.05,0.604-16.188,0.078-24.105-1.516c-3.962-0.785-7.863-1.86-11.69-3.146c-3.837-1.283-7.548-2.86-11.224-4.48
								c-7.351-3.267-14.502-6.998-21.353-11.235c-6.842-4.246-13.388-9.006-19.406-14.392
								c-6.008-5.389-11.495-11.405-16.096-18.078c-0.313-0.455-0.199-1.077,0.256-1.391s1.077-0.199,1.391,0.256l0.004,0.006
								c8.957,13.118,21.316,23.664,34.781,32.107c6.754,4.224,13.821,7.957,21.093,11.233c3.644,1.629,7.307,3.206,11.064,4.483
								c3.758,1.284,7.59,2.361,11.483,3.153c7.782,1.608,15.773,2.165,23.706,1.611c7.916-0.552,15.848-2.017,23.078-5.264
								c3.602-1.622,7.004-3.698,9.99-6.271c2.995-2.561,5.544-5.633,7.521-9.042c1.97-3.415,3.367-7.156,4.191-11.021
								c0.814-3.853,1.135-7.88,0.76-11.764l-0.003-0.037c-0.027-0.283,0.18-0.534,0.463-0.562
								C328.36,320.521,328.612,320.726,328.639,321.009z"/>
						</g>
						<g>
							<path style="fill:#0B1011;" d="M319.597,326.515c-1.978,1.63-4.1,3.053-6.371,4.253c-2.273,1.173-4.729,2.129-7.387,2.305
								c-0.276,0.018-0.514-0.19-0.532-0.466c-0.018-0.276,0.19-0.514,0.466-0.532c0.005,0,0.01-0.001,0.014-0.001l0.017-0.001
								c2.428-0.08,4.833-0.907,7.082-1.983c2.246-1.096,4.399-2.442,6.381-3.972l0.009-0.007c0.112-0.087,0.274-0.066,0.361,0.046
								C319.722,326.269,319.703,326.427,319.597,326.515z"/>
						</g>
						<g>
							<path style="fill:#0B1011;" d="M207.07,324.317c0.189,0.017,0.404,0.051,0.586,0.098l0.431,0.124l0.86,0.249l1.714,0.504
								l3.429,0.996c2.287,0.658,4.579,1.298,6.878,1.915c4.596,1.237,9.212,2.393,13.85,3.451
								c4.642,1.038,9.305,1.979,13.991,2.772c4.691,0.758,9.404,1.369,14.134,1.708l0.007,0c0.275,0.02,0.483,0.259,0.463,0.534
								c-0.02,0.275-0.259,0.483-0.535,0.463l-0.004,0c-4.771-0.382-9.506-1.038-14.212-1.839c-4.7-0.836-9.369-1.82-14.014-2.9
								c-4.64-1.1-9.256-2.298-13.848-3.576c-2.296-0.638-4.586-1.298-6.871-1.977l-3.423-1.026l-1.709-0.519l-0.853-0.255
								l-0.427-0.127c-0.107-0.024-0.183-0.057-0.283-0.109l-0.266-0.14c-0.09-0.048-0.125-0.16-0.078-0.25
								C206.925,324.347,206.998,324.31,207.07,324.317z"/>
						</g>
						<g>
							<path style="fill:#0B1011;" d="M285.043,339.528c1.283,1.255,2.674,2.427,4.129,3.479c1.456,1.046,3.013,1.985,4.676,2.541
								c0.827,0.268,1.694,0.424,2.509,0.316c0.815-0.101,1.54-0.504,2.058-1.134c0.512-0.632,0.887-1.413,1.094-2.257
								c0.138-0.408,0.183-0.854,0.28-1.277l0.157-1.315l0.005-0.039c0.033-0.274,0.281-0.47,0.555-0.437
								c0.274,0.033,0.47,0.281,0.437,0.555c0,0.003-0.001,0.008-0.001,0.011l-0.197,1.388c-0.114,0.459-0.172,0.924-0.334,1.377
								c-0.249,0.911-0.684,1.811-1.333,2.571c-0.649,0.763-1.63,1.277-2.625,1.37c-0.997,0.107-1.959-0.103-2.846-0.41
								c-1.777-0.64-3.346-1.646-4.812-2.747c-1.465-1.111-2.836-2.319-4.122-3.633c-0.1-0.102-0.098-0.265,0.004-0.364
								c0.1-0.098,0.26-0.098,0.36,0L285.043,339.528z"/>
						</g>
						
							<line style="fill:none;stroke:#0B1011;stroke-width:2;stroke-linecap:round;stroke-linejoin:round;stroke-miterlimit:10;" x1="89.859" y1="479.902" x2="94.057" y2="456.95"/>
						<path style="fill:none;stroke:#0B1011;stroke-width:2;stroke-linecap:round;stroke-linejoin:round;stroke-miterlimit:10;" d="
							M180.574,469.988"/>
						<path style="fill:none;stroke:#0B1011;stroke-width:2;stroke-linecap:round;stroke-linejoin:round;stroke-miterlimit:10;" d="
							M180.521,470.365l-2.565,16.561c0,0-1.361,10.477-0.775,14.867"/>
						<g>
							<path style="fill:#0B1011;" d="M64.002,458.617c5.159-1.016,10.386-1.59,15.619-1.918c5.234-0.334,10.48-0.389,15.717-0.25
								c10.476,0.246,20.918,1.201,31.299,2.531c10.383,1.331,20.708,3.075,30.976,5.092c10.267,2.036,20.474,4.315,30.611,6.996
								l-0.929,0.668l1.597-29.76l0.399-7.44c0.086-1.244,0.09-2.471,0.243-3.729c0.124-1.224,0.227-2.456,0.321-3.687
								c0.367-4.928,0.539-9.875,0.554-14.819c0.014-9.886-0.628-19.784-2.247-29.517c-1.646-9.706-4.304-19.317-8.85-27.996
								l-0.031-0.064l-0.008-0.02c-0.979-2.26-2.169-4.518-3.432-6.685c-1.275-2.17-2.652-4.281-4.149-6.299
								c-2.988-4.034-6.439-7.741-10.429-10.722l-0.004-0.003c-0.442-0.331-0.533-0.957-0.203-1.4c0.33-0.442,0.957-0.533,1.4-0.203
								l0.003,0.002c4.182,3.146,7.739,7.004,10.804,11.167c1.535,2.084,2.942,4.255,4.243,6.487
								c1.296,2.244,2.486,4.509,3.528,6.933l-0.039-0.083c4.651,8.961,7.303,18.752,8.937,28.592
								c1.604,9.866,2.211,19.854,2.161,29.818c-0.034,4.984-0.225,9.964-0.614,14.936c-0.1,1.243-0.208,2.485-0.339,3.729
								c-0.153,1.206-0.164,2.467-0.253,3.698l-0.425,7.429l-1.699,29.717c-0.023,0.406-0.371,0.716-0.777,0.693
								c-0.05-0.003-0.106-0.013-0.152-0.025c-10.062-2.699-20.259-5.013-30.486-7.079c-10.234-2.048-20.526-3.823-30.872-5.186
								c-10.343-1.362-20.744-2.35-31.166-2.631c-5.21-0.156-10.425-0.12-15.623,0.194c-5.196,0.307-10.38,0.859-15.483,1.845
								c-0.279,0.056-0.55-0.125-0.606-0.404C63.541,458.944,63.723,458.673,64.002,458.617z"/>
						</g>
						<g>
							<path style="fill:#0B1011;" d="M65.972,451.623c10.304-1.129,20.658-1.362,31.001-1.223
								c10.342,0.184,20.682,0.749,30.969,1.86c10.28,1.138,20.545,2.521,30.693,4.552c5.099,0.887,10.129,2.108,15.18,3.23
								c2.534,0.526,5.021,1.249,7.527,1.892l7.507,1.976c0.267,0.07,0.426,0.344,0.356,0.611c-0.07,0.267-0.344,0.426-0.611,0.356
								l-0.002-0.001l-0.018-0.005l-7.478-2c-2.497-0.651-4.974-1.381-7.499-1.916c-5.033-1.138-10.046-2.376-15.13-3.281
								c-10.116-2.066-20.352-3.486-30.606-4.662c-10.261-1.149-20.579-1.754-30.9-1.977c-10.317-0.18-20.671,0.015-30.924,1.098
								l-0.011,0.001c-0.141,0.015-0.268-0.087-0.283-0.229C65.729,451.764,65.83,451.638,65.972,451.623z"/>
						</g>
						<g>
							<path style="fill:#0B1011;" d="M373.059,457.771c4.884-0.819,9.786-1.463,14.702-2.011c4.917-0.54,9.847-0.96,14.787-1.248
								c4.942-0.258,9.893-0.381,14.847-0.306c4.953,0.124,9.907,0.446,14.831,1.13c0.274,0.038,0.464,0.29,0.426,0.564
								c-0.038,0.273-0.29,0.464-0.564,0.426l-0.004-0.001l-0.008-0.001c-4.862-0.716-9.778-1.076-14.702-1.24
								c-4.927-0.115-9.859-0.033-14.788,0.184c-4.927,0.247-9.849,0.625-14.759,1.124c-4.908,0.507-9.813,1.11-14.682,1.886
								c-0.14,0.025-0.274-0.069-0.298-0.209C372.823,457.93,372.92,457.796,373.059,457.771z"/>
						</g>
						<g>
							<path style="fill:#0B1011;" d="M195.376,431.667c13.009,8.297,28.344,12.881,43.749,13.09
								c15.405,0.209,30.836-3.959,44.025-11.877c0.237-0.142,0.544-0.065,0.686,0.171c0.142,0.237,0.066,0.544-0.171,0.686
								l-0.002,0.001c-13.394,7.946-29.002,12.067-44.549,11.776c-15.547-0.292-30.967-4.996-44.015-13.414
								c-0.119-0.077-0.154-0.236-0.077-0.356C195.098,431.625,195.256,431.591,195.376,431.667z"/>
						</g>
						<g>
							<path style="fill:#0B1011;" d="M326.823,428.94c4.154,1.772,8.327,3.518,12.658,4.729c4.316,1.21,8.836,1.856,13.269,1.29
								c4.435-0.547,8.642-2.301,12.491-4.574c3.865-2.279,7.426-5.051,10.954-7.866c0.216-0.172,0.53-0.137,0.703,0.079
								c0.172,0.216,0.137,0.53-0.079,0.703l-0.004,0.003c-3.56,2.788-7.179,5.557-11.132,7.84
								c-3.935,2.278-8.269,4.045-12.842,4.567c-4.571,0.541-9.179-0.168-13.534-1.43c-4.372-1.265-8.548-3.059-12.689-4.868
								c-0.13-0.057-0.19-0.209-0.133-0.339C326.542,428.944,326.693,428.885,326.823,428.94z"/>
						</g>
						<g>
							<path style="fill:#0B1011;" d="M407.96,481.377c-1.01,3.298-2.235,6.519-3.66,9.637c1.116-3.241,2.015-6.545,2.691-9.883
								c0.055-0.271,0.319-0.446,0.59-0.391c0.271,0.055,0.446,0.319,0.391,0.59C407.969,481.345,407.965,481.362,407.96,481.377z"
								/>
						</g>
						<g>
							<path style="fill:#0B1011;" d="M178.912,481.979c-1.389,5.726-3.291,11.312-5.672,16.669
								c2.073-5.484,3.644-11.141,4.694-16.877c0.05-0.272,0.31-0.452,0.582-0.402c0.272,0.05,0.452,0.31,0.402,0.582
								C178.917,481.96,178.914,481.97,178.912,481.979z"/>
						</g>
					</g>
					<g>
						<path style="fill:#0B1011;" d="M195.861,146.593c0.86-3.969,3.118-7.511,5.78-10.578c0.316-0.364,0.656-0.764,0.676-1.245
							c0.012-0.287-0.094-0.565-0.2-0.833c-2.973-7.49-7.71-14.273-13.718-19.642c6.548,0.052,13.016,3.073,17.26,8.061
							c1.356,1.593,2.5,3.38,4.046,4.789c1.638,1.493,3.709,2.546,5.002,4.346c1.353,1.883,1.65,4.458,0.831,6.627
							c-0.819,2.169-2.708,3.887-4.924,4.571c-1.244,0.384-2.581,0.463-3.769,0.993c-2.093,0.934-2.858,4.299-3.202,6.565
							c-0.344,2.266,0.051,3.647,0.675,5.853c0.141,0.499-0.094,1.023-0.45,1.401c-0.16,0.169-0.48,0.13-0.701,0.204
							c-1.284,0.431-3.185,1.084-4.51,0.449c-0.967-0.464-1.561-1.814-1.982-2.736C195.427,152.682,195.228,149.512,195.861,146.593
							z"/>
						<path style="fill:#0B1011;" d="M216.904,171.071c0,0-2.738,25.884-16.302,23.022l-0.404-11.799
							C200.198,182.294,212.051,185.008,216.904,171.071z"/>
						<path style="fill:#0B1011;" d="M303.214,242.533c0.359,0,14.73,9.557,29.101-1.796L303.214,242.533z"/>
						<path style="fill:#0B1011;" d="M284.465,249.42c0.265,0.177,20.075,13.442,32.633,13.531c0,0,9.021-2.034,12.47-11.232
							c0,0-6.016,5.349-13,5.041c-7.572-0.334-17.599-3.537-17.599-3.537L284.465,249.42z"/>
						<path style="fill:#0B1011;" d="M315.663,313.805c0,0-8.049,14.488-28.829,2.634c-20.781-11.854-44.927-20.927-55.756-39.951
							c-10.829-19.024-13.902-36.732-13.902-36.732s7.448,11.689,21.204,17.836c0,0,6.162,15.823,18.455,23.433
							c0,0,18.146,8.927,36.146,10.829l12.439,1.463l9.572-1.876C314.991,291.441,313.322,308.39,315.663,313.805z"/>
						<path style="fill:#0B1011;" d="M274.208,196.349c0,0-9.489-3.882-14.018-1.941l6.398-4.313L274.208,196.349z"/>
						<path style="fill:#0B1011;" d="M335.815,192.827c0,0,4.96-2.372,9.705-0.359l-3.235-4.888L335.815,192.827z"/>
						<path style="fill:#0B1011;" d="M357.517,110.756c-2.81,0.871-15.51,6.939-17.699,8.904c0.876,2.05,0.139,2.845-0.627,4.938
							c-7.332,20.022-4.926,25.834-4.774,25.475c3.86-9.136,9.055-24.124,9.04-24.453c-0.057-1.236,2.018-3.566,3.051-4.247
							C350.012,119.064,355.648,112.351,357.517,110.756z"/>
						<path style="fill:none;stroke:#0B1011;stroke-width:2;stroke-linecap:round;stroke-linejoin:round;stroke-miterlimit:10;" d="
							M196.176,103.293c0,0-0.659-10.756-1.756-14.268l53.341-26.122c0,0,41.707-12.951,73.976-2.415c0,0-15.805,6.585-18.22,12.293
							c0,0,13.39,2.195,20.634,6.805c0,0-9.659,2.415-11.634,5.268c0,0,20.195,12.951,22.39,19.098c0,0,8.341,13.61,2.195,27.659
							c-6.146,14.049-2.195,32.927-0.878,34.902c0,0,13.829,4.39,6.366,20.634c0,0,20.854,32.268,6.146,47.415
							c0,0-0.22,7.902-5.488,10.537c0,0-2.854,1.098-2.854,1.098c-1.446,11.39-2.567,22.477-9.175,32.303
							c-0.654,0.973-1.346,1.92-2.073,2.84c-1.776,2.245-3.768,4.332-6.044,6.068c-9.398,7.172-20.666,5.709-31.517,3.901
							c-10.73-1.788-21.835-4.285-31.552-9.328c-3.02-1.567-5.97-3.444-8.322-5.929c-11.634-12.293-13.61-17.78-13.61-17.78
							s-15.146-6.805-27.439-29.195c0,0-8.341,0-10.756,5.268c0,0-2.854-8.342,0.878-14.049c0,0-7.463,0.439-10.098,3.951
							c0,0,12.951-22.61,9.659-41.707c0,0-22.61-1.976-33.366-35.122C166.981,147.415,148.322,99.341,196.176,103.293z"/>
						<path style="fill:none;stroke:#0B1011;stroke-width:2;stroke-linecap:round;stroke-linejoin:round;stroke-miterlimit:10;" d="
							M335.098,103.393c0,0,21.976-12.947,31.345-6.133c0,0,5.451,0.681-1.022,7.666c0,0-1.363,4.6-1.193,9.54
							c0.17,4.94,0.511,4.77-3.237,10.903c-3.748,6.133-6.814,11.584-6.133,17.887c0.681,6.303,1.061,26.412-18.635,23.257"/>
						<path style="fill:none;stroke:#0B1011;stroke-linecap:round;stroke-linejoin:round;stroke-miterlimit:10;" d="
							M252.883,200.976l-9.659-11.415l1.756-14.634c0,0-43.133-25.702-17.561-62.927c23.122-33.659,64.683-6.146,64.683-6.146
							s23.707-24.878,43.024-0.293"/>
						<path style="fill:none;stroke:#0B1011;stroke-linecap:round;stroke-linejoin:round;stroke-miterlimit:10;" d="
							M267.224,189.854c0,0-13.317,7.463-16.098,13.756c-2.78,6.293-4.244,14.341-4.244,14.341"/>
						<g>
							<path style="fill:#0B1011;" d="M286.311,201.484c-2.935-0.762-5.82-1.719-8.63-2.864c-2.774-1.154-5.652-2.391-8.038-4.461
								c-2.368-2.033-4.24-4.658-5.326-7.607c-1.092-2.934-1.4-6.214-0.645-9.315c0.74-3.078,2.502-5.971,5.107-7.887
								c2.587-1.932,5.787-2.833,8.923-2.948c3.163-0.137,6.295,0.586,9.169,1.722c2.888,1.143,5.554,2.699,8.096,4.365
								c0.462,0.303,0.591,0.923,0.288,1.385c-0.303,0.462-0.923,0.591-1.385,0.288c-0.002-0.001-0.009-0.006-0.011-0.007
								c-2.461-1.653-5.002-3.166-7.697-4.266c-2.691-1.095-5.541-1.778-8.401-1.684c-2.846,0.072-5.707,0.862-7.971,2.518
								c-2.273,1.629-3.867,4.157-4.558,6.9c-0.701,2.746-0.469,5.716,0.503,8.414c0.961,2.707,2.662,5.153,4.831,7.056
								c2.156,1.921,4.878,3.144,7.618,4.316c2.743,1.153,5.565,2.123,8.439,2.903c0.323,0.087,0.514,0.42,0.427,0.743
								C286.962,201.376,286.632,201.567,286.311,201.484z"/>
						</g>
						<g>
							<path style="fill:#0B1011;" d="M314.821,173.596c1.872-2.348,4.369-4.027,6.968-5.241c2.602-1.206,5.365-2.098,8.255-2.428
								c2.874-0.322,5.901-0.052,8.603,1.215c2.665,1.243,4.979,3.367,6.178,6.131c0.593,1.374,0.834,2.92,0.812,4.347
								c-0.021,1.425-0.03,2.799-0.2,4.252c-0.16,1.439-0.614,2.913-1.378,4.176c-0.741,1.283-1.754,2.354-2.829,3.301
								c-2.184,1.877-4.667,3.226-7.074,4.613c-2.426,1.378-4.947,2.695-7.678,3.498c-0.23,0.068-0.471-0.064-0.538-0.294
								c-0.067-0.227,0.063-0.466,0.288-0.537c2.608-0.815,5.041-2.133,7.423-3.541c2.384-1.425,4.801-2.804,6.818-4.603
								c2.025-1.782,3.492-4.099,3.684-6.763c0.135-1.315,0.125-2.731,0.121-4.087c-0.008-1.354-0.238-2.607-0.763-3.789
								c-1.064-2.352-3.138-4.215-5.519-5.272c-2.377-1.07-5.115-1.285-7.743-0.943c-2.643,0.344-5.234,1.225-7.656,2.399
								c-2.41,1.173-4.618,2.744-6.194,4.794c-0.335,0.439-0.962,0.524-1.402,0.189c-0.439-0.335-0.524-0.962-0.189-1.402
								C314.81,173.61,314.819,173.6,314.821,173.596z"/>
						</g>
						<path style="fill:none;stroke:#0B1011;stroke-linecap:round;stroke-linejoin:round;stroke-miterlimit:10;" d="
							M164.178,121.123c6.983-5.758,16.525-7.978,25.504-6.841c5.094,0.646,10.182,2.386,14.023,5.794
							c3.362,2.983,5.639,7.11,9.285,9.738c0.326,0.235,0.682,0.464,1.083,0.495c0.644,0.049,1.204-0.418,1.647-0.888
							c2.24-2.375,3.531-5.62,3.536-8.884c0.005-3.264-1.277-6.513-3.51-8.894c-1.415-1.509-3.171-2.659-4.998-3.629
							c-4.685-2.489-9.888-3.862-15.119-4.746"/>
						<path style="fill:none;stroke:#0B1011;stroke-linecap:round;stroke-linejoin:round;stroke-miterlimit:10;" d="
							M339.438,119.974c9.416-4.668,18.945-9.411,26.882-16.3"/>
						<path style="fill:none;stroke:#0B1011;stroke-linecap:round;stroke-linejoin:round;stroke-miterlimit:10;" d="
							M199.471,182.057c2.784,0.135,5.656,0.257,8.272-0.706c3.697-1.36,6.33-4.702,8.069-8.237
							c1.914-3.89,2.982-8.193,3.109-12.526"/>
						<g>
							<path style="fill:#0B1011;" d="M192.104,151.624c0.43,1.974,1.617,3.769,3.245,4.954c1.627,1.186,3.707,1.707,5.703,1.497
								c0.499-0.054,0.992-0.153,1.471-0.296c0.479-0.133,0.926-0.333,1.242-0.63c0.318-0.303,0.395-0.652,0.232-1.073
								c-0.163-0.408-0.453-0.927-0.614-1.444c-0.686-2.099-0.431-4.358,0.273-6.368c0.355-1.012,0.828-1.981,1.415-2.883
								c0.3-0.448,0.604-0.885,0.987-1.296c0.373-0.41,0.87-0.782,1.406-0.993c1.08-0.413,2.089-0.497,3.05-0.825
								c0.961-0.298,1.878-0.71,2.63-1.324c1.517-1.219,2.445-3.164,2.429-5.105c0-1.949-0.845-3.907-2.311-5.167
								c-0.21-0.18-0.234-0.495-0.054-0.705c0.18-0.21,0.495-0.234,0.705-0.054c0.001,0.001,0.004,0.003,0.005,0.004
								c1.69,1.487,2.613,3.713,2.595,5.925c-0.01,2.233-1.076,4.41-2.821,5.789c-0.875,0.699-1.903,1.141-2.929,1.448
								c-1.02,0.33-2.117,0.436-2.989,0.771c-0.862,0.315-1.476,1.131-2.046,1.966c-0.558,0.839-1.014,1.751-1.358,2.702
								c-0.686,1.89-0.929,4.001-0.326,5.896c0.145,0.482,0.374,0.876,0.595,1.435c0.099,0.275,0.159,0.619,0.08,0.954
								c-0.077,0.335-0.271,0.619-0.495,0.828c-0.453,0.415-0.998,0.629-1.518,0.772c-0.52,0.15-1.054,0.252-1.591,0.305
								c-2.15,0.205-4.37-0.375-6.107-1.666c-1.731-1.287-2.97-3.203-3.408-5.312c-0.029-0.139,0.06-0.276,0.2-0.305
								C191.938,151.396,192.074,151.486,192.104,151.624z"/>
						</g>
						<g>
							<path style="fill:#0B1011;" d="M247.3,218.051c-0.382,2.2,0.051,4.624,0.972,6.727c0.929,2.131,2.382,4.015,4.091,5.611
								c3.453,3.197,7.812,5.297,12.27,6.854c4.485,1.547,9.157,2.546,13.862,3.248c4.709,0.702,9.464,1.106,14.226,1.319
								c4.763,0.222,9.536,0.236,14.306,0.132c2.387-0.047,4.766-0.138,7.159-0.254c2.406-0.109,4.761-0.151,7.144-0.344
								c4.748-0.35,9.487-0.927,14.13-1.923c2.32-0.498,4.61-1.127,6.827-1.932c2.2-0.829,4.349-1.85,6.13-3.311l0.009-0.008
								c0.213-0.175,0.529-0.144,0.704,0.069c0.175,0.214,0.144,0.529-0.069,0.704l-0.001,0.001
								c-1.93,1.577-4.166,2.623-6.429,3.475c-2.278,0.825-4.61,1.46-6.963,1.963c-4.709,1.004-9.485,1.578-14.269,1.925
								c-2.384,0.191-4.81,0.232-7.179,0.337c-2.381,0.113-4.78,0.202-7.173,0.246c-4.788,0.098-9.581,0.078-14.369-0.151
								c-4.787-0.22-9.571-0.632-14.318-1.346c-4.744-0.714-9.463-1.727-14.019-3.305c-4.528-1.59-8.986-3.73-12.575-7.059
								c-1.776-1.663-3.304-3.643-4.287-5.904c-0.967-2.264-1.451-4.747-1.011-7.273c0.041-0.233,0.262-0.388,0.495-0.348
								c0.233,0.041,0.388,0.262,0.348,0.494L247.3,218.051z"/>
						</g>
						<g>
							<path style="fill:#0B1011;" d="M247.092,221.61c0.17,2.088,1.113,4.225,2.26,6.091c1.16,1.895,2.604,3.617,4.202,5.18
								c1.592,1.571,3.34,2.987,5.177,4.276c1.83,1.299,3.746,2.483,5.723,3.557c7.909,4.323,16.537,7.216,25.254,9.526
								c2.186,0.561,4.379,1.106,6.596,1.585l1.657,0.374l1.641,0.442l3.281,0.89l6.561,1.78c1.099,0.274,2.186,0.651,3.249,0.813
								c1.086,0.182,2.196,0.252,3.3,0.247c2.21-0.024,4.414-0.423,6.453-1.241c1.022-0.434,1.953-0.938,2.928-1.551l2.917-1.753
								c3.908-2.308,7.859-4.528,11.895-6.624c0.245-0.127,0.547-0.032,0.674,0.213c0.127,0.245,0.032,0.547-0.213,0.674l0,0
								l-0.006,0.003c-4.005,2.073-7.956,4.286-11.849,6.578l-2.908,1.742c-0.942,0.593-2.005,1.173-3.07,1.618
								c-2.168,0.867-4.495,1.282-6.811,1.304c-1.159,0.004-2.317-0.071-3.465-0.265c-1.178-0.186-2.24-0.564-3.336-0.837
								l-6.548-1.786l-3.274-0.893l-1.638-0.443l-1.655-0.376c-2.21-0.481-4.411-1.031-6.611-1.598
								c-8.763-2.336-17.445-5.255-25.45-9.642c-2-1.09-3.943-2.294-5.803-3.618c-1.867-1.314-3.649-2.76-5.279-4.373
								c-1.636-1.604-3.122-3.379-4.326-5.351c-1.19-1.98-2.181-4.096-2.379-6.543c-0.019-0.235,0.156-0.441,0.391-0.46
								c0.235-0.019,0.441,0.156,0.46,0.391L247.092,221.61z"/>
						</g>
						<g>
							<path style="fill:#0B1011;" d="M315.492,264.711c-1.306,6.119-0.755,12.598,1.534,18.368c0.102,0.257-0.024,0.547-0.28,0.649
								c-0.257,0.102-0.547-0.024-0.649-0.28c-0.001-0.003-0.003-0.009-0.005-0.012c-2.209-6.016-2.588-12.654-1.102-18.839
								c0.033-0.138,0.172-0.223,0.31-0.19C315.437,264.44,315.521,264.576,315.492,264.711z"/>
						</g>
						<g>
							<path style="fill:#0B1011;" d="M308.373,199.465c0.165,1.717,1.391,3.168,2.801,4.176c1.427,1.036,3.096,1.785,4.592,2.852
								c3.007,2.078,5.56,4.818,7.419,7.975c1.88,3.146,3.026,6.73,3.365,10.385c0.346,3.656-0.105,7.388-1.33,10.864
								c-0.092,0.26-0.377,0.397-0.638,0.305c-0.26-0.092-0.397-0.377-0.305-0.638c0-0.001,0.002-0.007,0.003-0.008
								c1.212-3.32,1.69-6.913,1.395-10.447c-0.289-3.534-1.354-7.007-3.144-10.08c-1.769-3.083-4.222-5.778-7.129-7.835
								c-1.433-1.051-3.08-1.809-4.569-2.91c-1.466-1.077-2.801-2.647-2.973-4.597c-0.012-0.142,0.092-0.267,0.234-0.279
								C308.234,199.216,308.359,199.324,308.373,199.465z"/>
						</g>
						<g>
							<path style="fill:#0B1011;" d="M299.413,219.806c0.95,5.174,1.325,10.462,1.111,15.736c-0.011,0.276-0.244,0.491-0.52,0.48
								c-0.276-0.011-0.491-0.244-0.48-0.52c0-0.004,0.001-0.011,0.001-0.016c0.37-5.191,0.163-10.432-0.621-15.595
								c-0.021-0.141,0.075-0.272,0.216-0.293C299.259,219.577,299.388,219.67,299.413,219.806z"/>
						</g>
						<g>
							<path style="fill:#0B1011;" d="M334.326,217.023c0.734,0.837,1.282,1.824,1.664,2.857c0.387,1.033,0.632,2.106,0.817,3.176
								c0.356,2.144,0.567,4.27,0.854,6.407c0.037,0.274-0.155,0.525-0.429,0.562c-0.274,0.037-0.526-0.155-0.562-0.429
								c-0.001-0.006-0.001-0.011-0.002-0.017l-0.002-0.019c-0.204-2.128-0.338-4.284-0.607-6.388
								c-0.281-2.083-0.795-4.196-2.124-5.815c-0.091-0.109-0.076-0.272,0.033-0.363
								C334.075,216.906,334.234,216.92,334.326,217.023z"/>
						</g>
						<g>
							<path style="fill:#0B1011;" d="M344.578,217.047c0.992,1.361,1.524,3.003,1.791,4.635c0.271,1.64,0.307,3.293,0.328,4.918
								c0.004,0.276-0.217,0.503-0.493,0.507c-0.276,0.004-0.503-0.217-0.507-0.493c0-0.008,0-0.018,0-0.025
								c0.06-1.617,0.102-3.223-0.078-4.801c-0.178-1.571-0.601-3.128-1.465-4.449c-0.078-0.119-0.045-0.279,0.074-0.357
								C344.344,216.907,344.498,216.937,344.578,217.047z"/>
						</g>
						<g>
							<path style="fill:#0B1011;" d="M276.681,219.089c-1.023,3.763-1.331,7.705-0.914,11.551c0.03,0.275-0.169,0.521-0.443,0.551
								c-0.275,0.03-0.521-0.169-0.551-0.443c-0.001-0.006-0.001-0.015-0.002-0.021c-0.267-3.986,0.22-8.004,1.416-11.784
								c0.043-0.136,0.188-0.211,0.323-0.168C276.643,218.817,276.717,218.956,276.681,219.089z"/>
						</g>
						<g>
							<path style="fill:#0B1011;" d="M258.786,218.157c-0.35,1.52-0.639,3.053-0.71,4.585c-0.072,1.527,0.092,3.059,0.644,4.437
								c0.103,0.256-0.022,0.548-0.278,0.65c-0.256,0.103-0.548-0.022-0.65-0.278c-0.003-0.008-0.008-0.02-0.01-0.027
								c-0.537-1.576-0.617-3.243-0.461-4.835c0.157-1.599,0.535-3.145,0.966-4.659c0.039-0.137,0.181-0.216,0.318-0.177
								C258.737,217.889,258.816,218.024,258.786,218.157z"/>
						</g>
						<g>
							<path style="fill:#0B1011;" d="M197.388,168.904c1.486,1.308,3.382,2.12,5.343,2.355c1.956,0.222,3.993-0.047,5.747-0.924
								c1.762-0.853,3.18-2.299,4.245-3.965c1.085-1.663,1.88-3.52,2.673-5.387c0.107-0.255,0.4-0.374,0.655-0.267
								c0.255,0.107,0.374,0.4,0.267,0.655c-0.001,0.002-0.004,0.008-0.005,0.011c-0.833,1.857-1.682,3.748-2.859,5.476
								c-1.152,1.728-2.717,3.275-4.652,4.162c-1.917,0.908-4.089,1.147-6.156,0.87c-2.072-0.291-4.063-1.189-5.607-2.606
								c-0.105-0.096-0.112-0.259-0.016-0.364c0.095-0.103,0.255-0.112,0.36-0.019L197.388,168.904z"/>
						</g>
						<g>
							<path style="fill:#0B1011;" d="M173.481,151.107c4.196,12.758,14.643,23.237,27.302,27.476
								c0.262,0.088,0.403,0.371,0.316,0.633c-0.088,0.262-0.371,0.403-0.633,0.316c-0.001,0-0.005-0.002-0.006-0.002
								c-12.917-4.505-23.372-15.297-27.469-28.265c-0.043-0.135,0.032-0.28,0.168-0.323
								C173.293,150.9,173.437,150.973,173.481,151.107z"/>
						</g>
						<path style="fill:none;stroke:#0B1011;stroke-width:2;stroke-linecap:round;stroke-linejoin:round;stroke-miterlimit:10;" d="
							M280.982,144.85c0,1.2-0.16,2.36-0.47,3.46c-1.51,5.4-6.46,9.35-12.34,9.35c-5.63,0-10.4-3.63-12.12-8.68
							c-0.44-1.3-0.68-2.68-0.68-4.13c0-1.55,0.28-3.04,0.79-4.42c1.79-4.89,6.49-8.38,12.01-8.38c5.36,0,9.95,3.29,11.86,7.96
							C280.642,141.5,280.982,143.14,280.982,144.85z"/>
						<path style="fill:#0B1011;" d="M280.512,148.31c0.31-1.1,0.47-2.26,0.47-3.46c0-1.71-0.34-3.35-0.95-4.84l6.66,5.21
							L280.512,148.31z"/>
						<path style="fill:#0B1011;" d="M255.372,144.85c0,1.45,0.24,2.83,0.68,4.13c-2.91-0.78-8.44-2.22-8.44-2.22l8.55-6.33
							C255.652,141.81,255.372,143.3,255.372,144.85z"/>
						<circle style="fill:#0B1011;" cx="269.785" cy="143.976" r="7.683"/>
						<path style="fill:#FFFFFF;" d="M279.005,143.629c0,1.849-2.24,3.349-5.003,3.349c-2.763,0-5.003-1.499-5.003-3.349
							c0-1.849,2.24-3.349,5.003-3.349C276.765,140.281,279.005,141.78,279.005,143.629z"/>
						<circle style="fill:#FFFFFF;" cx="265.377" cy="143.247" r="1.271"/>
						<g>
							<path style="fill:#0B1011;" d="M250.744,133.079c1.302-3.348,3.979-6.082,7.188-7.654c3.209-1.598,6.859-2.194,10.416-1.918
								c3.552,0.284,7.097,1.453,9.965,3.674c1.427,1.108,2.655,2.493,3.555,4.074c0.905,1.58,1.469,3.348,1.701,5.148
								c0.037,0.274-0.156,0.525-0.429,0.562c-0.274,0.037-0.525-0.156-0.562-0.429c0-0.003-0.001-0.01-0.002-0.013
								c-0.363-3.379-2.115-6.548-4.808-8.652c-2.677-2.126-6.062-3.298-9.485-3.609c-3.427-0.307-6.965,0.23-10.071,1.734
								c-3.107,1.48-5.698,4.065-6.992,7.276c-0.053,0.132-0.203,0.196-0.335,0.143C250.756,133.361,250.693,133.21,250.744,133.079
								z"/>
						</g>
						<g>
							<path style="fill:#0B1011;" d="M292.884,118.584c0.03,1.633,0.264,3.261,0.694,4.834c0.218,0.786,0.48,1.558,0.793,2.312
								c0.311,0.756,0.67,1.527,0.863,2.381c0.19,0.855,0.196,1.711,0.195,2.543c-0.006,0.837-0.047,1.671-0.104,2.501
								c-0.114,1.66-0.293,3.305-0.378,4.944c-0.345,6.55,0.91,13.171,3.623,19.122c0.115,0.251,0.004,0.548-0.247,0.662
								c-0.251,0.115-0.548,0.004-0.662-0.247c0-0.001-0.002-0.005-0.003-0.006c-2.706-6.133-3.899-12.907-3.467-19.575
								c0.107-1.666,0.306-3.311,0.439-4.952c0.106-1.626,0.265-3.313-0.018-4.857c-0.162-0.768-0.493-1.514-0.803-2.289
								c-0.312-0.779-0.573-1.58-0.787-2.391c-0.423-1.625-0.643-3.301-0.653-4.978c-0.001-0.142,0.114-0.258,0.256-0.259
								C292.766,118.33,292.881,118.443,292.884,118.584z"/>
						</g>
						<g>
							<path style="fill:#0B1011;" d="M309.844,168.497c0.802-1.091,1.818-2.019,2.945-2.756c1.122-0.749,2.343-1.324,3.58-1.821
								c1.242-0.493,2.503-0.904,3.77-1.294c1.266-0.382,2.656-0.732,4.107-0.485c0.272,0.046,0.455,0.305,0.409,0.577
								c-0.046,0.272-0.305,0.455-0.577,0.409c-0.005-0.001-0.013-0.002-0.018-0.004c-1.166-0.242-2.432,0.008-3.679,0.348
								c-1.261,0.347-2.521,0.714-3.742,1.157c-1.219,0.447-2.414,0.966-3.506,1.649c-1.099,0.672-2.084,1.519-2.876,2.529
								c-0.086,0.113-0.247,0.135-0.361,0.05C309.785,168.77,309.764,168.609,309.844,168.497z"/>
						</g>
						<g>
							<path style="fill:#0B1011;" d="M299.126,168.546c-4.395-3.063-9.764-4.662-15.066-4.519c-0.276,0.007-0.506-0.21-0.513-0.486
								c-0.008-0.276,0.21-0.506,0.486-0.513c0.004,0,0.011,0,0.015,0c5.523,0.018,10.986,1.842,15.378,5.101
								c0.114,0.085,0.138,0.246,0.053,0.36C299.397,168.601,299.239,168.626,299.126,168.546z"/>
						</g>
						<path style="fill:#0B1011;" d="M297.665,187.442c-6.813-3.504-10.809-12.338-18.959-11.07
							c-2.47,0.252-4.899,1.687-4.973,4.361c0.568,11.63,17.52,13.466,26.621,12.257c1.103-0.165,3.165-0.671,4.296-1.587
							c0.927-0.751,0.325-2.232-0.868-2.249C301.708,189.126,299.59,188.432,297.665,187.442z"/>
						<path style="fill:#0B1011;" d="M316.323,185.861c6.19-4.514,8.774-13.859,17.022-13.865c2.479-0.132,5.1,0.91,5.587,3.541
							c1.235,11.578-15.23,16.01-24.409,16.221c-1.116,0.008-3.23-0.174-4.489-0.905c-1.032-0.599-0.666-2.155,0.51-2.356
							C312.588,188.149,314.574,187.137,316.323,185.861z"/>
						<g>
							<path style="fill:#0B1011;" d="M259.103,158.802c1.445-0.401,2.896-0.625,4.363-0.792c1.466-0.161,2.94-0.235,4.415-0.247
								c1.474,0.012,2.95,0.055,4.419,0.203c1.471,0.126,2.931,0.345,4.387,0.592c0.272,0.046,0.456,0.304,0.409,0.577
								c-0.046,0.272-0.304,0.456-0.577,0.409c-0.004-0.001-0.007-0.001-0.011-0.002l-0.014-0.003
								c-1.42-0.281-2.847-0.537-4.287-0.7c-1.438-0.186-2.886-0.267-4.335-0.32c-1.449-0.028-2.901,0.005-4.346,0.123
								c-1.44,0.122-2.895,0.31-4.279,0.653l-0.015,0.004c-0.138,0.034-0.277-0.05-0.312-0.188
								C258.888,158.976,258.969,158.839,259.103,158.802z"/>
						</g>
						<path style="fill:none;stroke:#0B1011;stroke-width:2;stroke-linecap:round;stroke-linejoin:round;stroke-miterlimit:10;" d="
							M331.616,143.021c0,1.2-0.16,2.36-0.47,3.46c-1.51,5.4-6.46,9.35-12.34,9.35c-5.63,0-10.4-3.63-12.12-8.68
							c-0.44-1.3-0.68-2.68-0.68-4.13c0-1.55,0.28-3.04,0.79-4.42c1.79-4.89,6.49-8.38,12.01-8.38c5.36,0,9.95,3.29,11.86,7.96
							C331.276,139.671,331.616,141.311,331.616,143.021z"/>
						<path style="fill:#0B1011;" d="M331.146,146.481c0.31-1.1,0.47-2.26,0.47-3.46c0-1.71-0.34-3.35-0.95-4.84l3.161,4.804
							L331.146,146.481z"/>
						<path style="fill:#0B1011;" d="M306.006,143.021c0,1.45,0.24,2.83,0.68,4.13c-2.91-0.78-8.44-2.22-8.44-2.22l8.55-6.33
							C306.286,139.981,306.006,141.471,306.006,143.021z"/>
						
							<ellipse transform="matrix(0.1598 -0.9871 0.9871 0.1598 128.897 435.7335)" style="fill:#0B1011;" cx="320.42" cy="142.146" rx="7.683" ry="7.683"/>
						<path style="fill:#FFFFFF;" d="M329.346,141.8c0,1.849-2.174,3.349-4.857,3.349c-2.682,0-4.857-1.499-4.857-3.349
							c0-1.849,2.174-3.349,4.857-3.349C327.172,138.451,329.346,139.951,329.346,141.8z"/>
						<circle style="fill:#FFFFFF;" cx="316.011" cy="141.417" r="1.271"/>
						<g>
							<path style="fill:#0B1011;" d="M301.378,131.25c1.302-3.348,3.979-6.082,7.188-7.654c3.209-1.598,6.859-2.194,10.416-1.918
								c3.552,0.284,7.097,1.453,9.965,3.675c1.427,1.108,2.655,2.493,3.555,4.075c0.905,1.58,1.469,3.348,1.701,5.148
								c0.037,0.274-0.155,0.525-0.429,0.562c-0.274,0.037-0.525-0.156-0.562-0.429c0-0.003-0.001-0.01-0.002-0.013
								c-0.363-3.379-2.116-6.548-4.808-8.652c-2.676-2.126-6.062-3.298-9.485-3.61c-3.427-0.307-6.965,0.23-10.071,1.734
								c-3.107,1.48-5.698,4.065-6.992,7.276c-0.053,0.132-0.203,0.196-0.335,0.143C301.39,131.532,301.327,131.381,301.378,131.25z
								"/>
						</g>
						<g>
							<path style="fill:#0B1011;" d="M309.737,156.973c1.445-0.401,2.895-0.625,4.363-0.792c1.466-0.161,2.94-0.235,4.415-0.247
								c1.474,0.012,2.95,0.055,4.419,0.203c1.471,0.126,2.931,0.345,4.387,0.592c0.272,0.046,0.456,0.304,0.409,0.577
								c-0.046,0.272-0.304,0.456-0.577,0.409c-0.004-0.001-0.007-0.001-0.011-0.002l-0.014-0.003
								c-1.42-0.281-2.847-0.537-4.287-0.7c-1.438-0.186-2.886-0.267-4.335-0.32c-1.449-0.029-2.901,0.005-4.346,0.123
								c-1.44,0.122-2.895,0.31-4.279,0.653l-0.015,0.004c-0.138,0.034-0.277-0.05-0.312-0.188
								C309.523,157.147,309.603,157.01,309.737,156.973z"/>
						</g>
						<g>
							<path style="fill:#0B1011;" d="M253.713,63.675c7.281-1.907,14.984-1.891,22.352-0.474
								c7.389,1.422,14.455,4.222,21.057,7.775c0.243,0.131,0.334,0.434,0.203,0.677c-0.131,0.243-0.434,0.334-0.677,0.203
								l-0.005-0.003c-6.495-3.586-13.447-6.428-20.726-7.91c-7.258-1.478-14.863-1.576-22.077,0.229
								c-0.138,0.035-0.278-0.049-0.312-0.187C253.494,63.85,253.576,63.711,253.713,63.675z"/>
						</g>
						<g>
							<path style="fill:#0B1011;" d="M310.956,252.646c3.348,0.604,6.838,0.279,9.979-0.906c0.258-0.098,0.547,0.033,0.645,0.292
								c0.098,0.258-0.033,0.547-0.291,0.644c-0.007,0.003-0.016,0.006-0.023,0.008c-3.368,1.092-7.005,1.247-10.413,0.467
								c-0.139-0.032-0.225-0.17-0.194-0.309C310.69,252.708,310.822,252.622,310.956,252.646z"/>
						</g>
						<path style="fill:none;stroke:#0B1011;stroke-width:2;stroke-linecap:round;stroke-linejoin:round;stroke-miterlimit:10;" d="
							M191.036,309.514c0,0,24.237-43.343,25.773-71.002"/>
						<path style="fill:none;stroke:#0B1011;stroke-width:2;stroke-linecap:round;stroke-linejoin:round;stroke-miterlimit:10;" d="
							M314.938,292.188c0.439,1.537-3.374,18.489,4.968,30.782"/>
						<g>
							<path style="fill:#0B1011;" d="M349.915,148.427c0.189-0.032,0.406,0.092,0.484,0.219c0.092,0.125,0.13,0.245,0.159,0.362
								c0.054,0.251,0.029,0.44,0.038,0.632c0.003,0.389-0.009,0.779-0.032,1.168c-0.047,0.778-0.147,1.554-0.302,2.32
								c-0.309,1.532-0.848,3.028-1.633,4.397c-1.562,2.731-4.168,4.944-7.301,5.766c-0.267,0.07-0.54-0.09-0.611-0.357
								s0.09-0.54,0.357-0.611c0.004-0.001,0.011-0.003,0.015-0.004c2.849-0.663,5.351-2.645,6.887-5.18
								c0.774-1.272,1.328-2.683,1.663-4.147c0.168-0.732,0.284-1.477,0.35-2.228c0.033-0.375,0.054-0.752,0.061-1.129
								c-0.001-0.19,0.018-0.388-0.011-0.514c-0.031-0.162-0.102-0.204-0.068-0.183c-0.141,0.016-0.269-0.086-0.284-0.227
								C349.672,148.57,349.773,148.443,349.915,148.427z"/>
						</g>
						<g>
							<path style="fill:#0B1011;" d="M359.761,116.797c-3.97,3.877-6.567,9.097-7.276,14.545c-0.036,0.274-0.286,0.467-0.56,0.431
								c-0.274-0.036-0.467-0.286-0.431-0.56c0.001-0.004,0.002-0.011,0.002-0.015c0.903-5.652,3.745-10.932,7.911-14.774
								c0.105-0.096,0.267-0.09,0.364,0.015C359.865,116.541,359.86,116.7,359.761,116.797z"/>
						</g>
						<g>
							<path style="fill:#0B1011;" d="M201.343,90.825c10.03-0.795,20.186-0.115,30.043,2.018c0.27,0.058,0.441,0.325,0.383,0.594
								c-0.058,0.27-0.325,0.441-0.594,0.383c-0.002,0-0.006-0.001-0.008-0.002c-9.725-2.27-19.796-3.111-29.787-2.48
								c-0.142,0.009-0.264-0.099-0.273-0.241C201.097,90.958,201.203,90.837,201.343,90.825z"/>
						</g>
					</g>
					<polyline style="fill:none;stroke:#0B1011;stroke-linecap:round;stroke-linejoin:round;stroke-miterlimit:10;" points="
						381.262,369.85 303.579,400.675 187.834,374.66 					"/>
					<polyline style="fill:none;stroke:#0B1011;stroke-linecap:round;stroke-linejoin:round;stroke-miterlimit:10;" points="
						381.981,379.561 304.672,409.122 189.582,383.176 					"/>
					<polyline style="fill:none;stroke:#0B1011;stroke-linecap:round;stroke-linejoin:round;stroke-miterlimit:10;" points="
						381.57,388.546 304.307,417.767 190.675,392.599 					"/>
					<path style="fill:none;stroke:#0B1011;stroke-linecap:round;stroke-linejoin:round;stroke-miterlimit:10;" d="M249.224,228.634
						c0,0-13.171,30.878,6.878,50.634"/>
					<g>
						<path style="fill:#0B1011;" d="M261.006,305.677c2.783,8.72,6.989,16.97,12.393,24.325c0.164,0.223,0.116,0.535-0.107,0.699
							c-0.223,0.163-0.536,0.116-0.699-0.107c-0.001-0.002-0.004-0.005-0.005-0.007c-5.336-7.538-9.428-15.936-12.073-24.757
							c-0.041-0.136,0.036-0.28,0.173-0.321C260.822,305.469,260.964,305.544,261.006,305.677z"/>
					</g>
				</g>
				<path style="fill:#FFEDC3;" d="M366.832,237.6c-14.97,4.25-48.28,5.96-48.28,5.96c-1.97-1.1,1.21-1.76,1.21-1.76
					s35.75-22.06,45.79-27c-0.31,0.59-0.66,1.15-1.13,1.59c-0.79,0.75-1.86,1.11-2.75,1.74c-0.88,0.62-1.61,1.75-1.21,2.76
					c0.4,0.99,1.74,1.46,1.87,2.52c0.08,0.66-0.39,1.28-0.91,1.7c-1.45,1.16-3.49,1.46-4.81,2.77c-0.5,0.49-0.87,1.11-1.12,1.76
					c-0.27,0.71-0.4,1.5-0.25,2.25c0.26,1.37,1.54,2.47,2.93,2.54c0.94,0.04,1.85-0.34,2.78-0.47c1.51-0.22,3.11,0.25,4.27,1.24
					C365.962,235.84,366.512,236.68,366.832,237.6z"/>
				<path style="fill:none;stroke:#0B1011;stroke-linecap:round;stroke-linejoin:round;stroke-miterlimit:10;" d="M366.832,237.6
					c-14.97,4.25-48.28,5.96-48.28,5.96c-1.97-1.1,1.21-1.76,1.21-1.76s35.75-22.06,45.79-27c-0.31,0.59-0.66,1.15-1.13,1.59
					c-0.79,0.75-1.86,1.11-2.75,1.74c-0.88,0.62-1.61,1.75-1.21,2.76c0.4,0.99,1.74,1.46,1.87,2.52c0.08,0.66-0.39,1.28-0.91,1.7
					c-1.45,1.16-3.49,1.46-4.81,2.77c-0.5,0.49-0.87,1.11-1.12,1.76c-0.27,0.71-0.4,1.5-0.25,2.25c0.26,1.37,1.54,2.47,2.93,2.54
					c0.94,0.04,1.85-0.34,2.78-0.47c1.51-0.22,3.11,0.25,4.27,1.24C365.962,235.84,366.512,236.68,366.832,237.6z"/>
				<path style="fill:#0B1011;" d="M370.802,236.21c-1.09,0.49-2.44,0.95-3.97,1.39c-0.32-0.92-0.87-1.76-1.61-2.4
					c-1.16-0.99-2.76-1.46-4.27-1.24c-0.93,0.13-1.84,0.51-2.78,0.47c-1.39-0.07-2.67-1.17-2.93-2.54
					c-0.15-0.75-0.02-1.54,0.25-2.25c0.25-0.65,0.62-1.27,1.12-1.76c1.32-1.31,3.36-1.61,4.81-2.77c0.52-0.42,0.99-1.04,0.91-1.7
					c-0.13-1.06-1.47-1.53-1.87-2.52c-0.4-1.01,0.33-2.14,1.21-2.76c0.89-0.63,1.96-0.99,2.75-1.74c0.47-0.44,0.82-1,1.13-1.59
					c1.34-0.66,2.22-1.02,2.5-0.98c2.42,0.33,4.06,3.51,2.2,6.8c-1.87,3.29-0.44,5.16-0.44,5.16
					C379.142,230.5,370.802,236.21,370.802,236.21z"/>
				<path style="fill:none;stroke:#0B1011;stroke-linecap:round;stroke-linejoin:round;stroke-miterlimit:10;" d="M370.802,236.21
					c-1.09,0.49-2.44,0.95-3.97,1.39c-0.32-0.92-0.87-1.76-1.61-2.4c-1.16-0.99-2.76-1.46-4.27-1.24c-0.93,0.13-1.84,0.51-2.78,0.47
					c-1.39-0.07-2.67-1.17-2.93-2.54c-0.15-0.75-0.02-1.54,0.25-2.25c0.25-0.65,0.62-1.27,1.12-1.76c1.32-1.31,3.36-1.61,4.81-2.77
					c0.52-0.42,0.99-1.04,0.91-1.7c-0.13-1.06-1.47-1.53-1.87-2.52c-0.4-1.01,0.33-2.14,1.21-2.76c0.89-0.63,1.96-0.99,2.75-1.74
					c0.47-0.44,0.82-1,1.13-1.59c1.34-0.66,2.22-1.02,2.5-0.98c2.42,0.33,4.06,3.51,2.2,6.8c-1.87,3.29-0.44,5.16-0.44,5.16
					C379.142,230.5,370.802,236.21,370.802,236.21z"/>
				<path style="fill:#F7BE27;" d="M189.771,179.408c-2.102,3.755-2.602,8.203-2.508,12.505c0.07,3.185,0.452,6.404,1.625,9.366
					s3.197,5.664,5.981,7.212c4.565,2.538,10.523,1.519,14.768-1.525c1.421-1.019,2.698-2.25,3.7-3.682
					c0.977-1.396,1.682-2.966,2.242-4.576c1.261-3.624,1.808-7.535,1.252-11.332s-2.257-7.469-5.03-10.12
					c-0.742-0.709-1.581-1.357-2.564-1.652c-1.25-0.375-2.609-0.359-3.626,0.538c-0.51,0.45-0.857,1.124-0.783,1.801
					c0.09,0.829,0.751,1.459,1.291,2.095c1.896,2.231,2.612,5.24,2.83,8.16c0.304,4.055-0.261,8.23-2.053,11.881
					c-0.462,0.943-1.022,1.868-1.841,2.524c-1.469,1.177-3.477,1.273-5.265,1.007c-1.827-0.271-3.168-2.016-3.912-3.601
					c-0.709-1.509-1.025-3.172-1.247-4.825c-0.609-4.523-0.565-9.166,0.488-13.607L189.771,179.408z"/>
				<path style="fill:none;stroke:#0B1011;stroke-linecap:round;stroke-linejoin:round;stroke-miterlimit:10;" d="M189.771,179.408
					c-2.102,3.755-2.602,8.203-2.508,12.505c0.07,3.185,0.452,6.404,1.625,9.366s3.197,5.664,5.981,7.212
					c4.565,2.538,10.523,1.519,14.768-1.525c1.421-1.019,2.698-2.25,3.7-3.682c0.977-1.396,1.682-2.966,2.242-4.576
					c1.261-3.624,1.808-7.535,1.252-11.332s-2.257-7.469-5.03-10.12c-0.742-0.709-1.581-1.357-2.564-1.652
					c-1.25-0.375-2.609-0.359-3.626,0.538c-0.51,0.45-0.857,1.124-0.783,1.801c0.09,0.829,0.751,1.459,1.291,2.095
					c1.896,2.231,2.612,5.24,2.83,8.16c0.304,4.055-0.261,8.23-2.053,11.881c-0.462,0.943-1.022,1.868-1.841,2.524
					c-1.469,1.177-3.477,1.273-5.265,1.007c-1.827-0.271-3.168-2.016-3.912-3.601c-0.709-1.509-1.025-3.172-1.247-4.825
					c-0.609-4.523-0.565-9.166,0.488-13.607L189.771,179.408z"/>
				<path style="fill:#F7BE27;" d="M346.615,161.39c0,1.576-1.278,2.854-2.854,2.854c-1.576,0-2.854-1.278-2.854-2.854
					c0-1.576,1.278-2.854,2.854-2.854C345.337,158.537,346.615,159.814,346.615,161.39z"/>
				<path style="fill:none;stroke:#0B1011;stroke-linecap:round;stroke-linejoin:round;stroke-miterlimit:10;" d="M346.615,161.39
					c0,1.576-1.278,2.854-2.854,2.854c-1.576,0-2.854-1.278-2.854-2.854c0-1.576,1.278-2.854,2.854-2.854
					C345.337,158.537,346.615,159.814,346.615,161.39z"/>
			</g>
		</g>
	</g>
</g>
</svg>
